<svg width="13" height="16" viewBox="0 0 13 16" fill="none" xmlns="http://www.w3.org/2000/svg">
<path d="M3.975 5.62107C3.975 4.7786 2.93275 4.5553 2.65624 5.34357C1.98736 7.25036 1.5 8.95613 1.5 9.87835C1.5 12.8174 3.71619 15.2 6.45 15.2C9.18381 15.2 11.4 12.8174 11.4 9.87835C11.4 8.88755 10.8375 6.99233 10.0917 4.91509C9.12555 2.22423 8.64249 0.878797 8.0462 0.806329C7.8554 0.783141 7.64725 0.824831 7.47701 0.920331C6.945 1.21878 6.945 2.68621 6.945 5.62107C6.945 6.5028 6.28014 7.21758 5.46 7.21758C4.63986 7.21758 3.975 6.5028 3.975 5.62107Z" stroke="#1F2830" stroke-width="1.5"/>
</svg>
