<svg width="24" height="24" viewBox="0 0 24 24" fill="none" xmlns="http://www.w3.org/2000/svg">
<path d="M12 12L21 3" stroke="#A5AAB4" stroke-width="2" stroke-linecap="round" stroke-linejoin="round"/>
<path d="M18.3656 5.63439C16.7701 4.03404 14.6319 3.09101 12.3742 2.99195C10.1165 2.8929 7.90389 3.64504 6.1743 5.0995C4.44471 6.55397 3.32419 8.60476 3.03451 10.846C2.74483 13.0872 3.30711 15.3555 4.61006 17.2019C5.91301 19.0483 7.86166 20.3383 10.0703 20.8165C12.279 21.2948 14.5867 20.9264 16.5368 19.7843C18.4868 18.6422 19.937 16.8096 20.6003 14.6493C21.2637 12.489 21.0918 10.1584 20.1188 8.11877" stroke="#A5AAB4" stroke-width="2" stroke-linecap="round" stroke-linejoin="round"/>
<path d="M15.1781 8.82193C14.4349 8.08079 13.4555 7.62341 12.4102 7.52923C11.3648 7.43505 10.3195 7.71003 9.45574 8.30639C8.59201 8.90276 7.96448 9.78284 7.68213 10.7938C7.39978 11.8047 7.48047 12.8825 7.91017 13.8402C8.33987 14.7978 9.09143 15.5746 10.0343 16.0358C10.9772 16.4969 12.0518 16.6132 13.0715 16.3644C14.0912 16.1157 14.9916 15.5176 15.6162 14.674C16.2408 13.8305 16.5502 12.7948 16.4906 11.7469" stroke="#A5AAB4" stroke-width="2" stroke-linecap="round" stroke-linejoin="round"/>
</svg>
