<svg width="1920" height="413" viewBox="0 0 1920 413" fill="none" xmlns="http://www.w3.org/2000/svg">
<path fill-rule="evenodd" clip-rule="evenodd" d="M0 405.046V6.57152H129.618C254.886 6.57152 341.794 86.0274 341.794 206.107C341.794 326.187 254.886 405.046 129.618 405.046H0ZM1921 6.57152V129.841L1848.2 241.952V405.046H1763.09V241.952L1609.06 6.57152H1706.15L1805.65 166.678L1903.94 6.57152H1921ZM651.529 412.215C772.601 412.215 860.708 326.187 860.708 206.107C860.708 86.0274 772.601 0 651.529 0C531.057 0 442.95 86.0274 442.95 206.107C442.95 326.187 531.057 412.215 651.529 412.215ZM651.529 336.941C577.808 336.941 530.458 280.186 530.458 206.107C530.458 131.431 577.808 75.274 651.529 75.274C725.251 75.274 773.201 131.431 773.201 206.107C773.201 280.186 725.251 336.941 651.529 336.941ZM129.618 330.369H57.0952V81.2481H129.618C211.731 81.2481 254.886 135.613 254.886 206.107C254.886 273.615 208.735 330.369 129.618 330.369ZM1234.5 330.369V405.046H980.37V6.57152H1065.48V330.369H1234.5ZM1608.17 405.046V330.369H1439.15V6.57152H1354.04V405.046H1608.17Z" fill="#33445E" fill-opacity="0.04"/>
</svg>
