<svg width="882" height="212" viewBox="0 0 882 212" fill="none" xmlns="http://www.w3.org/2000/svg">
<path d="M155.531 51.5C155.531 64.7188 150.844 75.6406 141.469 84.2656C132.094 92.8906 119.391 98.375 103.359 100.719V101.562C122.203 103.438 136.641 108.641 146.672 117.172C156.797 125.703 161.859 136.812 161.859 150.5C161.859 169.438 154.172 184.391 138.797 195.359C123.516 206.328 102.328 211.812 75.2344 211.812C45.0469 211.812 20.8125 208.109 2.53125 200.703V164.141C11.3438 168.359 21.6562 171.688 33.4688 174.125C45.375 176.469 56.4844 177.641 66.7969 177.641C101.391 177.641 118.688 167.562 118.688 147.406C118.688 138.312 113.109 131.328 101.953 126.453C90.8906 121.578 74.4844 119.141 52.7344 119.141H33.4688V85.1094H50.7656C72.5156 85.1094 88.3594 83.0469 98.2969 78.9219C108.234 74.7969 113.203 67.9531 113.203 58.3906C113.203 51.3594 110.062 45.7812 103.781 41.6562C97.5938 37.4375 88.2656 35.3281 75.7969 35.3281C56.4844 35.3281 37.8281 40.9062 19.8281 52.0625L0.84375 22.9531C12.5625 15.1719 24.9844 9.5 38.1094 5.9375C51.2344 2.28125 65.8125 0.453125 81.8438 0.453125C104.25 0.453125 122.109 5.14062 135.422 14.5156C148.828 23.8906 155.531 36.2188 155.531 51.5ZM200.25 3.40625H239.484V102.688L238.922 129.266L237.516 159.5H238.359L333.281 3.40625H385.453V209H346.641V110.281C346.641 97.0625 347.484 77.4688 349.172 51.5H348.047L252.703 209H200.25V3.40625ZM524.391 209L474.891 47.7031H473.625C475.406 80.5156 476.297 102.406 476.297 113.375V209H437.344V3.40625H496.688L545.344 160.625H546.188L597.797 3.40625H657.141V209H616.5V111.688C616.5 107.094 616.547 101.797 616.641 95.7969C616.828 89.7969 617.484 73.8594 618.609 47.9844H617.344L564.328 209H524.391ZM834.891 209L819.984 160.062H745.031L730.125 209H683.156L755.719 2.5625H809.016L881.859 209H834.891ZM809.578 123.5C795.797 79.1562 788.016 54.0781 786.234 48.2656C784.547 42.4531 783.328 37.8594 782.578 34.4844C779.484 46.4844 770.625 76.1562 756 123.5H809.578Z" fill="#F2F2F2"/>
</svg>
