<?xml version="1.0" standalone="no"?>
<!DOCTYPE svg PUBLIC "-//W3C//DTD SVG 20010904//EN"
 "http://www.w3.org/TR/2001/REC-SVG-20010904/DTD/svg10.dtd">
<svg version="1.0" xmlns="http://www.w3.org/2000/svg"
 width="512.000000pt" height="512.000000pt" viewBox="0 0 512.000000 512.000000"
 preserveAspectRatio="xMidYMid meet">

<g transform="translate(0.000000,512.000000) scale(0.100000,-0.100000)"
fill="#2288CC" stroke="none">
<path d="M2160 5110 c-190 -33 -338 -165 -402 -358 l-22 -67 -6 -1313 c-4
-722 -9 -1314 -12 -1317 -2 -3 -60 38 -129 91 -229 177 -342 236 -534 279
-116 25 -292 17 -397 -18 -112 -38 -211 -101 -304 -192 -68 -67 -83 -87 -88
-121 -12 -70 2 -93 183 -319 581 -722 1288 -1301 1914 -1569 457 -195 904
-251 1321 -165 332 69 614 246 812 508 118 158 237 430 293 671 42 184 71 461
71 685 0 241 -45 635 -77 685 -23 35 -28 38 -223 149 -516 292 -904 443 -1442
562 -126 27 -198 48 -198 55 0 7 -34 291 -75 631 -41 340 -77 642 -81 671 -13
118 -66 225 -155 312 -121 119 -282 169 -449 140z m185 -309 c50 -22 101 -79
115 -128 6 -21 49 -360 95 -753 47 -393 90 -729 96 -746 10 -32 39 -64 74 -82
12 -6 151 -40 310 -76 160 -36 354 -86 432 -110 278 -87 601 -229 908 -401
l153 -86 13 -132 c18 -171 18 -651 1 -767 -61 -404 -166 -668 -346 -870 -164
-183 -405 -303 -685 -340 -121 -16 -349 -14 -475 5 -498 74 -1008 342 -1576
829 -212 182 -569 553 -774 806 l-77 95 23 19 c39 32 120 65 190 76 121 19
274 -18 401 -96 34 -21 170 -121 302 -222 131 -102 253 -193 270 -203 66 -41
165 -15 202 53 22 40 21 11 31 1733 l7 1260 27 46 c26 44 84 92 124 102 44 11
121 6 159 -12z"/>
</g>
</svg>
