<svg width="267" height="38" viewBox="0 0 267 38" fill="none" xmlns="http://www.w3.org/2000/svg">
<rect width="267" height="38" rx="19" fill="#D90000"/>
<path d="M20.479 24L26.239 11.4H27.553L33.313 24H31.909L26.617 12.174H27.157L21.865 24H20.479ZM22.747 20.634L23.143 19.554H30.469L30.865 20.634H22.747ZM40.2995 24.09C39.4835 24.09 38.7455 23.904 38.0855 23.532C37.4255 23.148 36.8975 22.602 36.5015 21.894C36.1175 21.174 35.9255 20.298 35.9255 19.266C35.9255 18.234 36.1175 17.364 36.5015 16.656C36.8855 15.936 37.4075 15.39 38.0675 15.018C38.7275 14.646 39.4715 14.46 40.2995 14.46C41.1995 14.46 42.0035 14.664 42.7115 15.072C43.4315 15.468 43.9955 16.032 44.4035 16.764C44.8115 17.484 45.0155 18.318 45.0155 19.266C45.0155 20.226 44.8115 21.066 44.4035 21.786C43.9955 22.506 43.4315 23.07 42.7115 23.478C42.0035 23.886 41.1995 24.09 40.2995 24.09ZM35.4215 27.492V14.55H36.6455V17.394L36.5195 19.284L36.6995 21.192V27.492H35.4215ZM40.2095 22.956C40.8815 22.956 41.4815 22.806 42.0095 22.506C42.5375 22.194 42.9575 21.762 43.2695 21.21C43.5815 20.646 43.7375 19.998 43.7375 19.266C43.7375 18.534 43.5815 17.892 43.2695 17.34C42.9575 16.788 42.5375 16.356 42.0095 16.044C41.4815 15.732 40.8815 15.576 40.2095 15.576C39.5375 15.576 38.9315 15.732 38.3915 16.044C37.8635 16.356 37.4435 16.788 37.1315 17.34C36.8315 17.892 36.6815 18.534 36.6815 19.266C36.6815 19.998 36.8315 20.646 37.1315 21.21C37.4435 21.762 37.8635 22.194 38.3915 22.506C38.9315 22.806 39.5375 22.956 40.2095 22.956ZM45.8794 24L49.8754 18.816L49.8574 19.446L46.0594 14.55H47.4994L50.6134 18.6L50.0734 18.582L53.1874 14.55H54.5914L50.7574 19.5L50.7754 18.816L54.8074 24H53.3494L50.0554 19.68L50.5594 19.752L47.3194 24H45.8794ZM56.902 24V14.55H58.18V22.056L64.498 14.55H65.632V24H64.354V16.476L58.054 24H56.902ZM71.0946 24V15.324L71.4186 15.666H67.5126V14.55H75.9546V15.666H72.0486L72.3726 15.324V24H71.0946ZM81.4129 24.09C80.4289 24.09 79.5649 23.886 78.8209 23.478C78.0769 23.058 77.4949 22.488 77.0749 21.768C76.6549 21.036 76.4449 20.202 76.4449 19.266C76.4449 18.33 76.6429 17.502 77.0389 16.782C77.4469 16.062 77.9989 15.498 78.6949 15.09C79.4029 14.67 80.1949 14.46 81.0709 14.46C81.9589 14.46 82.7449 14.664 83.4289 15.072C84.1249 15.468 84.6709 16.032 85.0669 16.764C85.4629 17.484 85.6609 18.318 85.6609 19.266C85.6609 19.326 85.6549 19.392 85.6429 19.464C85.6429 19.524 85.6429 19.59 85.6429 19.662H77.4169V18.708H84.9589L84.4549 19.086C84.4549 18.402 84.3049 17.796 84.0049 17.268C83.7169 16.728 83.3209 16.308 82.8169 16.008C82.3129 15.708 81.7309 15.558 81.0709 15.558C80.4229 15.558 79.8409 15.708 79.3249 16.008C78.8089 16.308 78.4069 16.728 78.1189 17.268C77.8309 17.808 77.6869 18.426 77.6869 19.122V19.32C77.6869 20.04 77.8429 20.676 78.1549 21.228C78.4789 21.768 78.9229 22.194 79.4869 22.506C80.0629 22.806 80.7169 22.956 81.4489 22.956C82.0249 22.956 82.5589 22.854 83.0509 22.65C83.5549 22.446 83.9869 22.134 84.3469 21.714L85.0669 22.542C84.6469 23.046 84.1189 23.43 83.4829 23.694C82.8589 23.958 82.1689 24.09 81.4129 24.09ZM95.4199 24L91.5319 19.32L92.5939 18.69L96.9319 24H95.4199ZM88.4899 24V14.55H89.7679V24H88.4899ZM89.3719 19.788V18.69H92.4139V19.788H89.3719ZM92.7019 19.41L91.5139 19.23L95.2759 14.55H96.6619L92.7019 19.41ZM100.556 24V15.324L100.88 15.666H96.9735V14.55H105.416V15.666H101.51L101.834 15.324V24H100.556ZM107.425 27.582C106.981 27.582 106.555 27.51 106.147 27.366C105.751 27.222 105.409 27.006 105.121 26.718L105.715 25.764C105.955 25.992 106.213 26.166 106.489 26.286C106.777 26.418 107.095 26.484 107.443 26.484C107.863 26.484 108.223 26.364 108.523 26.124C108.835 25.896 109.129 25.488 109.405 24.9L110.017 23.514L110.161 23.316L114.049 14.55H115.309L110.575 25.134C110.311 25.746 110.017 26.232 109.693 26.592C109.381 26.952 109.039 27.204 108.667 27.348C108.295 27.504 107.881 27.582 107.425 27.582ZM109.945 24.27L105.589 14.55H106.921L110.773 23.226L109.945 24.27ZM122.178 24.09C121.362 24.09 120.624 23.904 119.964 23.532C119.304 23.148 118.776 22.602 118.38 21.894C117.996 21.174 117.804 20.298 117.804 19.266C117.804 18.234 117.996 17.364 118.38 16.656C118.764 15.936 119.286 15.39 119.946 15.018C120.606 14.646 121.35 14.46 122.178 14.46C123.078 14.46 123.882 14.664 124.59 15.072C125.31 15.468 125.874 16.032 126.282 16.764C126.69 17.484 126.894 18.318 126.894 19.266C126.894 20.226 126.69 21.066 126.282 21.786C125.874 22.506 125.31 23.07 124.59 23.478C123.882 23.886 123.078 24.09 122.178 24.09ZM117.3 27.492V14.55H118.524V17.394L118.398 19.284L118.578 21.192V27.492H117.3ZM122.088 22.956C122.76 22.956 123.36 22.806 123.888 22.506C124.416 22.194 124.836 21.762 125.148 21.21C125.46 20.646 125.616 19.998 125.616 19.266C125.616 18.534 125.46 17.892 125.148 17.34C124.836 16.788 124.416 16.356 123.888 16.044C123.36 15.732 122.76 15.576 122.088 15.576C121.416 15.576 120.81 15.732 120.27 16.044C119.742 16.356 119.322 16.788 119.01 17.34C118.71 17.892 118.56 18.534 118.56 19.266C118.56 19.998 118.71 20.646 119.01 21.21C119.322 21.762 119.742 22.194 120.27 22.506C120.81 22.806 121.416 22.956 122.088 22.956ZM129.64 24V14.55H130.918V18.726H136.876V14.55H138.154V24H136.876V19.824H130.918V24H129.64ZM151.003 24V14.55H152.281V24H151.003ZM145.765 17.88C146.953 17.892 147.859 18.156 148.483 18.672C149.107 19.188 149.419 19.932 149.419 20.904C149.419 21.912 149.083 22.686 148.411 23.226C147.739 23.766 146.779 24.03 145.531 24.018L141.787 24V14.55H143.065V17.844L145.765 17.88ZM145.441 23.046C146.329 23.058 146.995 22.884 147.439 22.524C147.895 22.152 148.123 21.612 148.123 20.904C148.123 20.196 147.901 19.68 147.457 19.356C147.013 19.02 146.341 18.846 145.441 18.834L143.065 18.798V23.01L145.441 23.046ZM159.97 24.09C158.986 24.09 158.122 23.886 157.378 23.478C156.634 23.058 156.052 22.488 155.632 21.768C155.212 21.036 155.002 20.202 155.002 19.266C155.002 18.33 155.2 17.502 155.596 16.782C156.004 16.062 156.556 15.498 157.252 15.09C157.96 14.67 158.752 14.46 159.628 14.46C160.516 14.46 161.302 14.664 161.986 15.072C162.682 15.468 163.228 16.032 163.624 16.764C164.02 17.484 164.218 18.318 164.218 19.266C164.218 19.326 164.212 19.392 164.2 19.464C164.2 19.524 164.2 19.59 164.2 19.662H155.974V18.708H163.516L163.012 19.086C163.012 18.402 162.862 17.796 162.562 17.268C162.274 16.728 161.878 16.308 161.374 16.008C160.87 15.708 160.288 15.558 159.628 15.558C158.98 15.558 158.398 15.708 157.882 16.008C157.366 16.308 156.964 16.728 156.676 17.268C156.388 17.808 156.244 18.426 156.244 19.122V19.32C156.244 20.04 156.4 20.676 156.712 21.228C157.036 21.768 157.48 22.194 158.044 22.506C158.62 22.806 159.274 22.956 160.006 22.956C160.582 22.956 161.116 22.854 161.608 22.65C162.112 22.446 162.544 22.134 162.904 21.714L163.624 22.542C163.204 23.046 162.676 23.43 162.04 23.694C161.416 23.958 160.726 24.09 159.97 24.09ZM171.757 24V14.55H173.035V18.726H178.993V14.55H180.271V24H178.993V19.824H173.035V24H171.757ZM187.792 24.09C186.88 24.09 186.058 23.886 185.326 23.478C184.606 23.058 184.036 22.488 183.616 21.768C183.196 21.036 182.986 20.202 182.986 19.266C182.986 18.318 183.196 17.484 183.616 16.764C184.036 16.044 184.606 15.48 185.326 15.072C186.046 14.664 186.868 14.46 187.792 14.46C188.728 14.46 189.556 14.664 190.276 15.072C191.008 15.48 191.578 16.044 191.986 16.764C192.406 17.484 192.616 18.318 192.616 19.266C192.616 20.202 192.406 21.036 191.986 21.768C191.578 22.488 191.008 23.058 190.276 23.478C189.544 23.886 188.716 24.09 187.792 24.09ZM187.792 22.956C188.476 22.956 189.082 22.806 189.61 22.506C190.138 22.194 190.552 21.762 190.852 21.21C191.164 20.646 191.32 19.998 191.32 19.266C191.32 18.522 191.164 17.874 190.852 17.322C190.552 16.77 190.138 16.344 189.61 16.044C189.082 15.732 188.482 15.576 187.81 15.576C187.138 15.576 186.538 15.732 186.01 16.044C185.482 16.344 185.062 16.77 184.75 17.322C184.438 17.874 184.282 18.522 184.282 19.266C184.282 19.998 184.438 20.646 184.75 21.21C185.062 21.762 185.482 22.194 186.01 22.506C186.538 22.806 187.132 22.956 187.792 22.956ZM195.347 24V14.55H199.523C200.591 14.55 201.431 14.754 202.043 15.162C202.667 15.57 202.979 16.17 202.979 16.962C202.979 17.73 202.685 18.324 202.097 18.744C201.509 19.152 200.735 19.356 199.775 19.356L200.027 18.978C201.155 18.978 201.983 19.188 202.511 19.608C203.039 20.028 203.303 20.634 203.303 21.426C203.303 22.242 203.003 22.878 202.403 23.334C201.815 23.778 200.897 24 199.649 24H195.347ZM196.589 22.992H199.595C200.399 22.992 201.005 22.866 201.413 22.614C201.833 22.35 202.043 21.93 202.043 21.354C202.043 20.778 201.857 20.358 201.485 20.094C201.113 19.83 200.525 19.698 199.721 19.698H196.589V22.992ZM196.589 18.744H199.433C200.165 18.744 200.723 18.606 201.107 18.33C201.503 18.054 201.701 17.652 201.701 17.124C201.701 16.596 201.503 16.2 201.107 15.936C200.723 15.672 200.165 15.54 199.433 15.54H196.589V18.744ZM210.186 24.09C209.274 24.09 208.452 23.886 207.72 23.478C207 23.058 206.43 22.488 206.01 21.768C205.59 21.036 205.38 20.202 205.38 19.266C205.38 18.318 205.59 17.484 206.01 16.764C206.43 16.044 207 15.48 207.72 15.072C208.44 14.664 209.262 14.46 210.186 14.46C211.122 14.46 211.95 14.664 212.67 15.072C213.402 15.48 213.972 16.044 214.38 16.764C214.8 17.484 215.01 18.318 215.01 19.266C215.01 20.202 214.8 21.036 214.38 21.768C213.972 22.488 213.402 23.058 212.67 23.478C211.938 23.886 211.11 24.09 210.186 24.09ZM210.186 22.956C210.87 22.956 211.476 22.806 212.004 22.506C212.532 22.194 212.946 21.762 213.246 21.21C213.558 20.646 213.714 19.998 213.714 19.266C213.714 18.522 213.558 17.874 213.246 17.322C212.946 16.77 212.532 16.344 212.004 16.044C211.476 15.732 210.876 15.576 210.204 15.576C209.532 15.576 208.932 15.732 208.404 16.044C207.876 16.344 207.456 16.77 207.144 17.322C206.832 17.874 206.676 18.522 206.676 19.266C206.676 19.998 206.832 20.646 207.144 21.21C207.456 21.762 207.876 22.194 208.404 22.506C208.932 22.806 209.526 22.956 210.186 22.956ZM221.702 24.09C220.766 24.09 219.926 23.886 219.182 23.478C218.45 23.058 217.874 22.488 217.454 21.768C217.034 21.036 216.824 20.202 216.824 19.266C216.824 18.318 217.034 17.484 217.454 16.764C217.874 16.044 218.45 15.48 219.182 15.072C219.926 14.664 220.766 14.46 221.702 14.46C222.506 14.46 223.232 14.616 223.88 14.928C224.528 15.24 225.038 15.708 225.41 16.332L224.456 16.98C224.132 16.5 223.73 16.146 223.25 15.918C222.77 15.69 222.248 15.576 221.684 15.576C221.012 15.576 220.406 15.732 219.866 16.044C219.326 16.344 218.9 16.77 218.588 17.322C218.276 17.874 218.12 18.522 218.12 19.266C218.12 20.01 218.276 20.658 218.588 21.21C218.9 21.762 219.326 22.194 219.866 22.506C220.406 22.806 221.012 22.956 221.684 22.956C222.248 22.956 222.77 22.842 223.25 22.614C223.73 22.386 224.132 22.038 224.456 21.57L225.41 22.218C225.038 22.83 224.528 23.298 223.88 23.622C223.232 23.934 222.506 24.09 221.702 24.09ZM229.509 24V15.324L229.833 15.666H225.927V14.55H234.369V15.666H230.463L230.787 15.324V24H229.509ZM236.216 24V14.55H237.494V22.056L243.812 14.55H244.946V24H243.668V16.476L237.368 24H236.216Z" fill="white"/>
</svg>
