<svg width="218" height="38" viewBox="0 0 218 38" fill="none" xmlns="http://www.w3.org/2000/svg">
<rect width="218" height="38" rx="19" fill="#D90000"/>
<path d="M27.6779 24.108C26.7299 24.108 25.8539 23.952 25.0499 23.64C24.2459 23.316 23.5499 22.866 22.9619 22.29C22.3739 21.714 21.9119 21.036 21.5759 20.256C21.2519 19.476 21.0899 18.624 21.0899 17.7C21.0899 16.776 21.2519 15.924 21.5759 15.144C21.9119 14.364 22.3739 13.686 22.9619 13.11C23.5619 12.534 24.2639 12.09 25.0679 11.778C25.8719 11.454 26.7479 11.292 27.6959 11.292C28.6079 11.292 29.4659 11.448 30.2699 11.76C31.0739 12.06 31.7519 12.516 32.3039 13.128L31.4579 13.974C30.9419 13.446 30.3719 13.068 29.7479 12.84C29.1239 12.6 28.4519 12.48 27.7319 12.48C26.9759 12.48 26.2739 12.612 25.6259 12.876C24.9779 13.128 24.4139 13.494 23.9339 13.974C23.4539 14.442 23.0759 14.994 22.7999 15.63C22.5359 16.254 22.4039 16.944 22.4039 17.7C22.4039 18.456 22.5359 19.152 22.7999 19.788C23.0759 20.412 23.4539 20.964 23.9339 21.444C24.4139 21.912 24.9779 22.278 25.6259 22.542C26.2739 22.794 26.9759 22.92 27.7319 22.92C28.4519 22.92 29.1239 22.8 29.7479 22.56C30.3719 22.32 30.9419 21.936 31.4579 21.408L32.3039 22.254C31.7519 22.866 31.0739 23.328 30.2699 23.64C29.4659 23.952 28.6019 24.108 27.6779 24.108ZM36.285 24V15.324L36.609 15.666H32.703V14.55H41.145V15.666H37.239L37.563 15.324V24H36.285ZM48.8608 24V21.912L48.8068 21.57V18.078C48.8068 17.274 48.5788 16.656 48.1228 16.224C47.6788 15.792 47.0128 15.576 46.1248 15.576C45.5128 15.576 44.9308 15.678 44.3788 15.882C43.8268 16.086 43.3588 16.356 42.9748 16.692L42.3988 15.738C42.8788 15.33 43.4548 15.018 44.1268 14.802C44.7988 14.574 45.5068 14.46 46.2508 14.46C47.4748 14.46 48.4168 14.766 49.0768 15.378C49.7488 15.978 50.0848 16.896 50.0848 18.132V24H48.8608ZM45.6028 24.09C44.8948 24.09 44.2768 23.976 43.7488 23.748C43.2328 23.508 42.8368 23.184 42.5608 22.776C42.2848 22.356 42.1468 21.876 42.1468 21.336C42.1468 20.844 42.2608 20.4 42.4888 20.004C42.7288 19.596 43.1128 19.272 43.6408 19.032C44.1808 18.78 44.9008 18.654 45.8008 18.654H49.0588V19.608H45.8368C44.9248 19.608 44.2888 19.77 43.9288 20.094C43.5808 20.418 43.4068 20.82 43.4068 21.3C43.4068 21.84 43.6168 22.272 44.0368 22.596C44.4568 22.92 45.0448 23.082 45.8008 23.082C46.5208 23.082 47.1388 22.92 47.6548 22.596C48.1828 22.26 48.5668 21.78 48.8068 21.156L49.0948 22.038C48.8548 22.662 48.4348 23.16 47.8348 23.532C47.2468 23.904 46.5028 24.09 45.6028 24.09ZM58.3649 24.09C57.5489 24.09 56.8109 23.904 56.1509 23.532C55.4909 23.148 54.9629 22.602 54.5669 21.894C54.1829 21.174 53.9909 20.298 53.9909 19.266C53.9909 18.234 54.1829 17.364 54.5669 16.656C54.9509 15.936 55.4729 15.39 56.1329 15.018C56.7929 14.646 57.5369 14.46 58.3649 14.46C59.2649 14.46 60.0689 14.664 60.7769 15.072C61.4969 15.468 62.0609 16.032 62.4689 16.764C62.8769 17.484 63.0809 18.318 63.0809 19.266C63.0809 20.226 62.8769 21.066 62.4689 21.786C62.0609 22.506 61.4969 23.07 60.7769 23.478C60.0689 23.886 59.2649 24.09 58.3649 24.09ZM53.4869 27.492V14.55H54.7109V17.394L54.5849 19.284L54.7649 21.192V27.492H53.4869ZM58.2749 22.956C58.9469 22.956 59.5469 22.806 60.0749 22.506C60.6029 22.194 61.0229 21.762 61.3349 21.21C61.6469 20.646 61.8029 19.998 61.8029 19.266C61.8029 18.534 61.6469 17.892 61.3349 17.34C61.0229 16.788 60.6029 16.356 60.0749 16.044C59.5469 15.732 58.9469 15.576 58.2749 15.576C57.6029 15.576 56.9969 15.732 56.4569 16.044C55.9289 16.356 55.5089 16.788 55.1969 17.34C54.8969 17.892 54.7469 18.534 54.7469 19.266C54.7469 19.998 54.8969 20.646 55.1969 21.21C55.5089 21.762 55.9289 22.194 56.4569 22.506C56.9969 22.806 57.6029 22.956 58.2749 22.956ZM65.8268 24V14.55H67.1048V22.056L73.4228 14.55H74.5568V24H73.2788V16.476L66.9788 24H65.8268ZM78.2194 24V14.55H79.4974V18.726H85.4554V14.55H86.7334V24H85.4554V19.824H79.4974V24H78.2194ZM90.3659 24V14.55H91.6439V18.726H97.6019V14.55H98.8799V24H97.6019V19.824H91.6439V24H90.3659ZM111.728 24V14.55H113.006V24H111.728ZM106.49 17.88C107.678 17.892 108.584 18.156 109.208 18.672C109.832 19.188 110.144 19.932 110.144 20.904C110.144 21.912 109.808 22.686 109.136 23.226C108.464 23.766 107.504 24.03 106.256 24.018L102.512 24V14.55H103.79V17.844L106.49 17.88ZM106.166 23.046C107.054 23.058 107.72 22.884 108.164 22.524C108.62 22.152 108.848 21.612 108.848 20.904C108.848 20.196 108.626 19.68 108.182 19.356C107.738 19.02 107.066 18.846 106.166 18.834L103.79 18.798V23.01L106.166 23.046ZM120.695 24.09C119.711 24.09 118.847 23.886 118.103 23.478C117.359 23.058 116.777 22.488 116.357 21.768C115.937 21.036 115.727 20.202 115.727 19.266C115.727 18.33 115.925 17.502 116.321 16.782C116.729 16.062 117.281 15.498 117.977 15.09C118.685 14.67 119.477 14.46 120.353 14.46C121.241 14.46 122.027 14.664 122.711 15.072C123.407 15.468 123.953 16.032 124.349 16.764C124.745 17.484 124.943 18.318 124.943 19.266C124.943 19.326 124.937 19.392 124.925 19.464C124.925 19.524 124.925 19.59 124.925 19.662H116.699V18.708H124.241L123.737 19.086C123.737 18.402 123.587 17.796 123.287 17.268C122.999 16.728 122.603 16.308 122.099 16.008C121.595 15.708 121.013 15.558 120.353 15.558C119.705 15.558 119.123 15.708 118.607 16.008C118.091 16.308 117.689 16.728 117.401 17.268C117.113 17.808 116.969 18.426 116.969 19.122V19.32C116.969 20.04 117.125 20.676 117.437 21.228C117.761 21.768 118.205 22.194 118.769 22.506C119.345 22.806 119.999 22.956 120.731 22.956C121.307 22.956 121.841 22.854 122.333 22.65C122.837 22.446 123.269 22.134 123.629 21.714L124.349 22.542C123.929 23.046 123.401 23.43 122.765 23.694C122.141 23.958 121.451 24.09 120.695 24.09ZM135.021 24.108C135.801 24.108 136.503 23.988 137.127 23.748C137.763 23.508 138.267 23.178 138.639 22.758C139.011 22.326 139.197 21.828 139.197 21.264C139.197 20.544 138.891 19.974 138.279 19.554C137.679 19.134 136.839 18.924 135.759 18.924L135.705 19.266C136.317 19.266 136.863 19.17 137.343 18.978C137.823 18.786 138.207 18.516 138.495 18.168C138.783 17.82 138.927 17.412 138.927 16.944C138.927 16.416 138.747 15.966 138.387 15.594C138.027 15.21 137.541 14.916 136.929 14.712C136.329 14.508 135.651 14.418 134.895 14.442C134.343 14.442 133.791 14.52 133.239 14.676C132.699 14.82 132.153 15.036 131.601 15.324L131.961 16.314C132.453 16.062 132.951 15.876 133.455 15.756C133.959 15.624 134.445 15.552 134.913 15.54C135.429 15.54 135.891 15.6 136.299 15.72C136.707 15.84 137.025 16.02 137.253 16.26C137.493 16.5 137.613 16.788 137.613 17.124C137.613 17.436 137.511 17.706 137.307 17.934C137.115 18.162 136.839 18.336 136.479 18.456C136.119 18.576 135.705 18.636 135.237 18.636H133.707V19.572H135.327C136.119 19.572 136.743 19.716 137.199 20.004C137.655 20.28 137.883 20.67 137.883 21.174C137.883 21.522 137.763 21.834 137.523 22.11C137.283 22.386 136.947 22.602 136.515 22.758C136.083 22.914 135.573 22.998 134.985 23.01C134.397 23.01 133.803 22.926 133.203 22.758C132.603 22.578 132.075 22.32 131.619 21.984L131.205 22.938C131.721 23.334 132.315 23.628 132.987 23.82C133.659 24.012 134.337 24.108 135.021 24.108ZM148.578 23.388V15.666H144.024L143.916 17.772C143.892 18.408 143.85 19.032 143.79 19.644C143.742 20.256 143.652 20.82 143.52 21.336C143.4 21.84 143.226 22.254 142.998 22.578C142.77 22.89 142.476 23.07 142.116 23.118L140.838 22.884C141.21 22.896 141.516 22.764 141.756 22.488C141.996 22.2 142.182 21.81 142.314 21.318C142.446 20.826 142.542 20.268 142.602 19.644C142.662 19.008 142.71 18.36 142.746 17.7L142.872 14.55H149.856V23.388H148.578ZM140.442 26.286V22.884H151.332V26.286H150.126V24H141.648V26.286H140.442ZM159.691 24V21.912L159.637 21.57V18.078C159.637 17.274 159.409 16.656 158.953 16.224C158.509 15.792 157.843 15.576 156.955 15.576C156.343 15.576 155.761 15.678 155.209 15.882C154.657 16.086 154.189 16.356 153.805 16.692L153.229 15.738C153.709 15.33 154.285 15.018 154.957 14.802C155.629 14.574 156.337 14.46 157.081 14.46C158.305 14.46 159.247 14.766 159.907 15.378C160.579 15.978 160.915 16.896 160.915 18.132V24H159.691ZM156.433 24.09C155.725 24.09 155.107 23.976 154.579 23.748C154.063 23.508 153.667 23.184 153.391 22.776C153.115 22.356 152.977 21.876 152.977 21.336C152.977 20.844 153.091 20.4 153.319 20.004C153.559 19.596 153.943 19.272 154.471 19.032C155.011 18.78 155.731 18.654 156.631 18.654H159.889V19.608H156.667C155.755 19.608 155.119 19.77 154.759 20.094C154.411 20.418 154.237 20.82 154.237 21.3C154.237 21.84 154.447 22.272 154.867 22.596C155.287 22.92 155.875 23.082 156.631 23.082C157.351 23.082 157.969 22.92 158.485 22.596C159.013 22.26 159.397 21.78 159.637 21.156L159.925 22.038C159.685 22.662 159.265 23.16 158.665 23.532C158.077 23.904 157.333 24.09 156.433 24.09ZM164.317 24V14.55H165.595V18.726H171.553V14.55H172.831V24H171.553V19.824H165.595V24H164.317ZM176.464 24V14.55H177.742V22.056L184.06 14.55H185.194V24H183.916V16.476L177.616 24H176.464ZM194.958 24V20.598L195.192 20.868H191.988C190.776 20.868 189.828 20.604 189.144 20.076C188.46 19.548 188.118 18.78 188.118 17.772C188.118 16.692 188.484 15.888 189.216 15.36C189.948 14.82 190.926 14.55 192.15 14.55H196.128V24H194.958ZM188.046 24L190.638 20.364H191.97L189.432 24H188.046ZM194.958 20.22V15.288L195.192 15.666H192.186C191.31 15.666 190.626 15.834 190.134 16.17C189.654 16.506 189.414 17.052 189.414 17.808C189.414 19.212 190.308 19.914 192.096 19.914H195.192L194.958 20.22Z" fill="white"/>
</svg>
