<svg width="32" height="34" viewBox="0 0 32 34" fill="none" xmlns="http://www.w3.org/2000/svg">
<path d="M16 0.4021C7.2 0.4021 0 7.8271 0 16.9021C0 25.9771 7.2 33.4021 16 33.4021C24.8 33.4021 32 25.9771 32 16.9021C32 7.8271 24.8 0.4021 16 0.4021ZM2.18182 16.9021C2.18182 9.0271 8.36364 2.6521 16 2.6521C23.6364 2.6521 29.8182 9.0271 29.8182 16.9021C29.8182 20.2021 28.7273 23.2771 26.8364 25.6771C25.3091 23.3521 22.9091 21.1771 19.9273 20.1271C21.0909 18.9271 21.8182 17.1271 21.8182 15.1771C21.8182 11.4271 19.2 8.42709 16 8.42709C12.8 8.42709 10.1818 11.4271 10.1818 15.1771C10.1818 17.2021 10.9818 19.0021 12.2182 20.2771C9.38182 21.3271 6.90909 23.4271 5.45455 26.0521C3.41818 23.6521 2.18182 20.4271 2.18182 16.9021ZM16 19.752C15.6364 19.752 15.3983 19.6579 15.2 19.6021C13.6 19.1521 12.3636 17.3521 12.3636 15.2521C12.3636 12.7771 13.9636 10.7521 16 10.7521C18.0364 10.7521 19.6364 12.7771 19.6364 15.2521C19.6364 17.3521 18.4727 19.0771 16.9455 19.6021C16.7866 19.6567 16.2182 19.752 16 19.752ZM7.05454 27.7771C8.43636 24.8521 11.4909 22.3771 15.0545 21.9271C15.3525 21.8895 15.7778 21.8521 16.1415 21.8521C16.5778 21.8521 17.0137 21.8282 17.2364 21.8521C20.7273 22.2271 23.7818 24.7021 25.3818 27.4021C22.9091 29.7271 19.6364 31.1521 16.0727 31.1521C12.5818 31.1521 9.45454 29.8771 7.05454 27.7771Z" fill="#D90000"/>
</svg>
