<?xml version="1.0" encoding="UTF-8" standalone="no"?>
<!-- Created with Inkscape (http://www.inkscape.org/) -->

<svg width="100%" height="100%" viewBox="0 0 450 300" version="1.1" id="svg1" xml:space="preserve"
      sodipodi:docname="fly_full.svg" inkscape:version="1.3.2 (091e20e, 2023-11-25, custom)"
      xmlns:inkscape="http://www.inkscape.org/namespaces/inkscape"
      xmlns:sodipodi="http://sodipodi.sourceforge.net/DTD/sodipodi-0.dtd" xmlns:xlink="http://www.w3.org/1999/xlink"
      xmlns="http://www.w3.org/2000/svg" xmlns:svg="http://www.w3.org/2000/svg">
      <sodipodi:namedview id="namedview1" pagecolor="#ffffff" bordercolor="#000000" borderopacity="0.25"
            inkscape:showpageshadow="2" inkscape:pageopacity="0.0" inkscape:pagecheckerboard="0"
            inkscape:deskcolor="#d1d1d1" showgrid="false" inkscape:zoom="1.1983333" inkscape:cx="400.55634"
            inkscape:cy="289.9861" inkscape:window-width="1920" inkscape:window-height="986" inkscape:window-x="-11"
            inkscape:window-y="-11" inkscape:window-maximized="1" inkscape:current-layer="svg1" />



      <style id="style1">
            #legs3 {
                  animation: legs3_tr 500ms linear infinite normal forwards
            }

            @keyframes legs3_tr {
                  0% {
                        transform-origin: 79.589916px 55.153449px;
                        animation-timing-function: cubic-bezier(0.645, 0.045, 0.355, 1);
                        transform: rotate(0deg);
                  }

                  25% {
                        transform-origin: 79.589916px 55.153449px;
                        animation-timing-function: cubic-bezier(0.645, 0.045, 0.355, 1);
                        transform: rotate(0deg);
                  }

                  50% {
                        transform-origin: 79.589916px 55.153449px;
                        animation-timing-function: cubic-bezier(0.645, 0.045, 0.355, 1);
                        transform: rotate(0deg);
                  }

                  75% {
                        transform-origin: 79.589916px 55.153449px;
                        animation-timing-function: cubic-bezier(0.645, 0.045, 0.355, 1);
                        transform: rotate(-50deg);
                  }

                  100% {
                        transform-origin: 86.793192px 57.963619px;
                        animation-timing-function: cubic-bezier(0.645, 0.045, 0.355, 1);
                        transform: rotate(0deg);
                  }
            }

            #legs2 {
                  animation: legs2_tr 500ms linear infinite normal forwards
            }

            @keyframes legs2_tr {
                  0% {
                        transform-origin: 72.920615px 57.914185px;
                        animation-timing-function: cubic-bezier(0.645, 0.045, 0.355, 1);
                        transform: rotate(0deg);
                  }

                  25% {
                        transform-origin: 72.920615px 57.914185px;
                        animation-timing-function: cubic-bezier(0.645, 0.045, 0.355, 1);
                        transform: rotate(-60deg);
                  }

                  50% {
                        transform-origin: 72.920615px 57.914185px;
                        animation-timing-function: cubic-bezier(0.645, 0.045, 0.355, 1);
                        transform: rotate(0deg);
                  }

                  75% {
                        transform-origin: 72.920615px 57.914185px;
                        animation-timing-function: cubic-bezier(0.645, 0.045, 0.355, 1);
                        transform: rotate(0deg);
                  }

                  100% {
                        transform-origin: 82.674607px 51.463363px;
                        animation-timing-function: cubic-bezier(0.645, 0.045, 0.355, 1);
                        transform: rotate(0deg);
                  }
            }



            #wingr {
                  animation: wingr_tr 1000ms linear infinite normal forwards
            }

            @keyframes wingr_tr {
                  0% {
                        transform-origin: 68.897175px 36.339214px;
                        animation-timing-function: cubic-bezier(0.645, 0.045, 0.355, 1);
                        transform: rotate(0deg);
                  }

                  33% {
                        transform-origin: 68.897175px 36.339214px;
                        animation-timing-function: cubic-bezier(0.645, 0.045, 0.355, 1);
                        transform: rotate(-30deg);
                  }

                  66% {
                        transform-origin: 68.897175px 36.339214px;
                        animation-timing-function: cubic-bezier(0.645, 0.045, 0.355, 1);
                        transform: rotate(0deg);
                  }

                  100% {
                        transform-origin: 82.674607px 51.463363px;
                        animation-timing-function: cubic-bezier(0.645, 0.045, 0.355, 1);
                        transform: rotate(0deg);
                  }
            }

            #wingl {
                  animation: wing_tr 1000ms linear infinite normal forwards
            }

            @keyframes wing_tr {
                  0% {
                        transform-origin: 82.674607px 51.463363px;
                        animation-timing-function: cubic-bezier(0.645, 0.045, 0.355, 1);
                        transform: rotate(0deg);
                  }

                  33% {
                        transform-origin: 82.674607px 51.463363px;
                        animation-timing-function: cubic-bezier(0.645, 0.045, 0.355, 1);
                        transform: rotate3d(16, -13, 0, 40deg);
                  }

                  66% {
                        transform-origin: 82.674607px 51.463363px;
                        animation-timing-function: cubic-bezier(0.645, 0.045, 0.355, 1);
                        transform: rotate(0deg);
                  }

                  100% {
                        transform-origin: 82.674607px 51.463363px;
                        animation-timing-function: cubic-bezier(0.645, 0.045, 0.355, 1);
                        transform: rotate(0deg);
                  }
            }

            #belly {
                  animation: belly_tr 1500ms linear infinite normal forwards
            }

            @keyframes belly_tr {
                  0% {
                        transform-origin: 87.722785px 40.424714px;
                        animation-timing-function: cubic-bezier(0.645, 0.045, 0.355, 1);
                        transform: rotate(0deg);
                  }

                  33% {
                        transform-origin: 87.722785px 40.424714px;
                        animation-timing-function: cubic-bezier(0.645, 0.045, 0.355, 1);
                        transform: rotate(10deg);
                  }

                  66% {
                        transform-origin: 87.722785px 40.424714px;
                        animation-timing-function: cubic-bezier(0.645, 0.045, 0.355, 1);
                        transform: rotate(-10deg);
                  }

                  100% {
                        transform-origin: 87.722785px 40.424714px;
                        animation-timing-function: cubic-bezier(0.645, 0.045, 0.355, 1);
                        transform: rotate(0deg);
                  }
            }

            #head {
                  animation: head_tr 1000ms linear infinite normal forwards
            }

            @keyframes head_tr {
                  0% {
                        transform-origin: 58.127406px 49.820757px;
                        animation-timing-function: cubic-bezier(0.645, 0.045, 0.355, 1);
                        transform: rotate(0deg);
                  }

                  70% {
                        transform-origin: 58.127406px 49.820757px;
                        animation-timing-function: cubic-bezier(0.645, 0.045, 0.355, 1);
                        transform: rotate(0deg);
                  }

                  80% {
                        transform-origin: 58.127406px 49.820757px;
                        animation-timing-function: cubic-bezier(0.645, 0.045, 0.355, 1);
                        transform: rotate(35deg);
                  }

                  90% {
                        transform-origin: 58.127406px 49.820757px;
                        animation-timing-function: cubic-bezier(0.645, 0.045, 0.355, 1);
                        transform: rotate(-35deg);
                  }

                  100% {
                        transform-origin: 58.127406px 49.820757px;
                        animation-timing-function: cubic-bezier(0.645, 0.045, 0.355, 1);
                        transform: rotate(0deg);
                  }

            }


            #legs1 {
                  animation: hand_tr 200ms linear infinite normal forwards
            }

            @keyframes hand_tr {
                  0% {
                        transform-origin: 69.948379px 52.091178px;
                        animation-timing-function: cubic-bezier(0.645, 0.045, 0.355, 1);
                        transform: rotate(0deg);

                  }

                  50% {
                        transform-origin: 69.948379px 52.091178px;
                        transform: rotate(-40deg);
                        animation-timing-function: cubic-bezier(0.645, 0.045, 0.355, 1);
                  }

                  100% {
                        transform-origin: 69.948379px 52.091178px;
                        animation-timing-function: cubic-bezier(0.645, 0.045, 0.355, 1);
                        transform: rotate(0deg);
                  }
            }

            #path30g {
                  animation: p1_tr 200ms linear infinite normal forwards
            }

            @keyframes p1_tr {
                  0% {
                        transform-origin: 64.783345px 70.33761px;
                        animation-timing-function: cubic-bezier(0.645, 0.045, 0.355, 1);
                        transform: rotate(0deg);

                  }

                  50% {
                        transform-origin: 64.783345px 70.33761px;
                        transform: rotate(50deg);
                        animation-timing-function: cubic-bezier(0.645, 0.045, 0.355, 1);
                  }

                  100% {
                        transform-origin: 64.783345px 70.33761px;
                        animation-timing-function: cubic-bezier(0.645, 0.045, 0.355, 1);
                        transform: rotate(0deg);
                  }
            }




            #legs4 {
                  animation: hand_tr2 200ms linear infinite normal forwards
            }

            @keyframes hand_tr2 {
                  0% {
                        transform-origin: 59.513359px 50.053227px;
                        animation-timing-function: cubic-bezier(0.645, 0.045, 0.355, 1);
                        transform: rotate(-20deg);

                  }

                  50% {
                        transform-origin: 59.513359px 50.053227px;
                        transform: rotate(20deg);
                        animation-timing-function: cubic-bezier(0.645, 0.045, 0.355, 1);
                  }

                  100% {
                        transform-origin: 59.513359px 50.053227px;
                        animation-timing-function: cubic-bezier(0.645, 0.045, 0.355, 1);
                        transform: rotate(-20deg);
                  }
            }

            #path29_g {
                  animation: p1_tr2 200ms linear infinite normal forwards
            }

            @keyframes p1_tr2 {
                  0% {
                        transform-origin: 50.095652px 57.927609px;
                        animation-timing-function: cubic-bezier(0.645, 0.045, 0.355, 1);
                        transform: rotate(0deg);

                  }

                  50% {
                        transform-origin: 50.095652px 57.927609px;
                        transform: rotate(-50deg);
                        animation-timing-function: cubic-bezier(0.645, 0.045, 0.355, 1);
                  }

                  100% {
                        transform-origin: 50.095652px 57.927609px;
                        animation-timing-function: cubic-bezier(0.645, 0.045, 0.355, 1);
                        transform: rotate(0deg);
                  }
            }

            #layer1 {
                  offset-path: path('M 335.46594,143.32407 A 148.33102,104.93742 0 0 1 187.13492,248.26149 148.33102,104.93742 0 0 1 38.803894,143.32407 148.33102,104.93742 0 0 1 187.13492,38.386642 148.33102,104.93742 0 0 1 335.46594,143.32407 Z');
                  /*offset-rotate: 0deg;*/
                  animation: layer1_a 8000ms linear infinite normal forwards
            }

            @keyframes layer1_a {
                  0% {
                        offset-distance: 0%;
                        animation-timing-function: cubic-bezier(0.645, 0.045, 0.355, 1);

                  }

                  80% {
                        offset-distance: -50%;
                        animation-timing-function: cubic-bezier(0.645, 0.045, 0.355, 1);

                  }

                  100% {
                        offset-distance: -100%;
                        animation-timing-function: cubic-bezier(0.645, 0.045, 0.355, 1);

                  }
            }
      </style>



      <defs id="defs1">
            <linearGradient id="linearGradient12">
                  <stop style="stop-color:#cdfbae;stop-opacity:1;" offset="0.27074561" id="stop12" />
                  <stop style="stop-color:#40af7a;stop-opacity:1;" offset="1" id="stop13" />
            </linearGradient>
            <linearGradient id="linearGradient8">
                  <stop style="stop-color:#722f20;stop-opacity:1;" offset="0.65009207" id="stop8" />
                  <stop style="stop-color:#e5b3ab;stop-opacity:1;" offset="1" id="stop9" />
            </linearGradient>
            <linearGradient id="linearGradient4">
                  <stop style="stop-color:#561100;stop-opacity:1;" offset="0.44721335" id="stop4" />
                  <stop style="stop-color:#d7bcab;stop-opacity:1;" offset="1" id="stop5" />
            </linearGradient>
            <linearGradient xlink:href="#linearGradient4" id="linearGradient5" x1="55.158489" y1="50.652431"
                  x2="67.354385" y2="48.821945" gradientUnits="userSpaceOnUse" />
            <linearGradient xlink:href="#linearGradient8" id="linearGradient9" x1="48.350391" y1="46.878757"
                  x2="55.829243" y2="37.19553" gradientUnits="userSpaceOnUse" />
            <radialGradient xlink:href="#linearGradient12" id="radialGradient13" cx="116.41676" cy="29.096401"
                  fx="116.41676" fy="29.096401" r="18.803701"
                  gradientTransform="matrix(1.0697429,-0.46993778,0.24573526,0.55937944,-55.971395,78.697977)"
                  gradientUnits="userSpaceOnUse" />
      </defs>
      <g id="mainl">
            <g id="layer1" inkscape:transform-center-x="-12.134728" inkscape:transform-center-y="15.428816"
                  transform="translate(-60.09205,-48.315072)">
                  <path style="fill:#353b21;fill-opacity:1;stroke:#151912;stroke-width:0.291042;stroke-dasharray:none;stroke-opacity:0.84058"
                        d="m 77.093559,56.889954 c 0.381451,1.06611 0.514711,3.134634 0.101048,4.805341 -0.413661,1.670705 -1.374206,2.943541 -2.171354,4.401662 -0.797148,1.458121 -1.430841,3.101402 -1.916314,4.030906 -0.485472,0.929502 -0.822673,1.145119 -0.711512,0.18029 0.111155,-0.964829 0.670665,-3.110021 1.152074,-4.724942 0.481408,-1.614921 0.884694,-2.699484 1.189232,-4.258912 0.304538,-1.559427 0.510313,-3.593613 0.92803,-4.57888 0.417716,-0.985269 1.047347,-0.921577 1.428797,0.144531 z"
                        id="legs6" inkscape:transform-center-x="3.9271144" inkscape:transform-center-y="8.5869775" />
                  <path style="fill:#353b21;fill-opacity:1;stroke:#151912;stroke-width:0.291042;stroke-dasharray:none;stroke-opacity:0.84058"
                        d="m 62.891852,60.264646 c -1.005324,1.547136 -2.107153,3.748429 -3.116844,5.417201 -1.009691,1.668772 -1.927205,2.804976 -3.002039,4.299786 -1.074833,1.494811 -2.306895,3.3481 -2.86573,4.316698 -0.558837,0.968598 -0.444382,1.052393 0.02699,0.815424 0.47137,-0.236968 1.299597,-0.794671 2.333691,-2.111592 1.034093,-1.316922 2.273954,-3.392946 3.609,-5.35527 1.335045,-1.962323 2.765194,-3.810829 3.867827,-5.354492 1.102632,-1.543663 1.877684,-2.782392 2.151435,-3.625055 0.273751,-0.842662 0.04619,-1.28922 -0.522006,-1.066007 -0.568199,0.223215 -1.476997,1.116172 -2.482321,2.663307 z"
                        id="legs5" inkscape:transform-center-x="6.906552" inkscape:transform-center-y="9.7416058" />
                  <g id="legs4" transform="rotate(0.11530038,59.513359,50.053171)"
                        inkscape:transform-center-x="13.468042" inkscape:transform-center-y="8.8314754">
                        <path style="fill:#353b21;fill-opacity:1;stroke:#151912;stroke-width:0.555625;stroke-dasharray:none;stroke-opacity:0.84058"
                              d="m 51.431691,54.961079 c 1.168349,-1.728182 2.872191,-4.503011 4.454345,-6.20686 1.582155,-1.703849 3.042561,-2.336691 3.845802,-2.117615 0.803242,0.219077 0.949282,1.290042 -0.09739,2.957395 -1.046668,1.667353 -3.285959,3.930985 -4.916789,5.67135 -1.63083,1.740365 -2.653116,2.95737 -3.505044,3.334644 -0.851928,0.377275 -1.53345,-0.08519 -1.557784,-0.657198 -0.02434,-0.572011 0.608507,-1.253533 1.776856,-2.981716 z"
                              id="path28" />
                        <g id="path29_g" inkscape:transform-center-x="9.8044878" inkscape:transform-center-y="7.4575613"
                              transform="rotate(-0.98546254,50.095652,57.927609)">
                              <path style="fill:#353b21;fill-opacity:1;stroke:#151912;stroke-width:0.555625;stroke-dasharray:none;stroke-opacity:0.84058"
                                    d="m 49.448599,59.22342 c -0.572515,1.113569 -1.717546,3.340706 -2.590696,5.077571 -0.87315,1.736866 -1.474393,2.983408 -1.808176,3.873495 -0.333784,0.890088 -0.400091,1.423674 -1.172437,1.580852 -0.772344,0.157177 -2.250669,-0.06206 -3.563154,-0.141884 -1.312486,-0.07982 -2.459058,-0.02023 -3.646973,0.184131 -1.187913,0.204359 -2.417097,0.553467 -3.432709,0.702621 -1.015613,0.149155 -1.817596,0.09835 -2.308559,0.216102 -0.490964,0.117756 -0.67088,0.40406 -0.938759,0.772713 -0.267879,0.368655 -0.623701,0.81963 -0.322007,0.902641 0.301695,0.08301 1.260874,-0.201945 2.57404,-0.511764 1.313166,-0.30982 2.980236,-0.644485 4.434547,-0.803522 1.45431,-0.159036 2.695784,-0.142439 3.973386,-0.112474 1.277601,0.02996 2.591252,0.0733 3.478403,0.126911 0.887151,0.05362 1.347758,0.117516 1.880304,-0.522484 0.532546,-0.640001 1.137001,-1.983852 1.858974,-3.567409 0.721972,-1.583556 1.561416,-3.406724 2.124051,-4.959 0.562634,-1.552278 0.848432,-2.833579 0.807671,-3.443768 -0.04076,-0.610189 -0.408073,-0.549245 -0.591731,-0.518772 -0.18366,0.03047 -0.18366,0.03047 -0.756175,1.144037 z"
                                    id="path29" inkscape:transform-center-x="10.328681"
                                    inkscape:transform-center-y="6.8186424" />
                        </g>
                  </g>
                  <g id="wingr" transform="rotate(1.3153263,68.897175,36.339214)"
                        inkscape:transform-center-x="-14.382083" inkscape:transform-center-y="-11.255382">
                        <path style="fill:#685c64;fill-opacity:0.584783;stroke:#151912;stroke-width:0.555625;stroke-dasharray:none;stroke-opacity:0.84058"
                              d="m 69.826668,37.004519 c -3.872565,-0.860571 -3.184109,-3.545549 -1.876024,-6.28219 1.308086,-2.73664 3.235726,-5.524833 5.146211,-7.968873 1.910484,-2.444041 3.803701,-4.54379 6.24775,-6.23052 2.44405,-1.686731 5.438774,-2.960349 8.089353,-3.493901 2.65058,-0.533551 4.956861,-0.327019 6.626378,0.585202 1.669516,0.912221 2.702179,2.53006 3.270157,4.922477 0.567978,2.392417 0.671244,5.559252 0.240949,8.10656 -0.430295,2.547308 -1.394114,4.474946 -2.650562,5.920713 -1.256448,1.445768 -2.805442,2.409586 -7.796835,3.373435 -4.991392,0.963848 -13.424811,1.927668 -17.297377,1.067097 z"
                              id="wing2" />
                        <path style="fill:#685c64;fill-opacity:0.584783;stroke:#151912;stroke-width:0.555625;stroke-dasharray:none;stroke-opacity:0.84058"
                              d="m 67.537551,34.594924 c 1.755564,-2.203061 3.511126,-4.40612 5.869119,-6.746896 2.357992,-2.340777 5.318294,-4.81917 8.175415,-6.591955 2.857121,-1.772785 5.610891,-2.839871 7.314826,-3.425059 1.703935,-0.585188 2.357956,-0.688455 3.01199,-0.791723"
                              id="path23" />
                        <path style="fill:#685c64;fill-opacity:0.584783;stroke:#151912;stroke-width:0.555625;stroke-dasharray:none;stroke-opacity:0.84058"
                              d="m 74.043462,34.594924 c 3.786511,-3.442282 7.573018,-6.884562 10.929271,-9.018785 3.356253,-2.134223 6.282134,-2.960354 9.208071,-3.786501"
                              id="path24" />
                  </g>
                  <g id="belly" transform="rotate(-1.9567407,87.722785,40.424714)"
                        inkscape:transform-center-x="-11.008218" inkscape:transform-center-y="2.3727672">
                        <path style="fill:#59664c;fill-opacity:1;stroke:#151912;stroke-width:0.555625;stroke-dasharray:none;stroke-opacity:0.84058"
                              d="m 83.69906,31.479659 c 1.669505,-2.151425 3.18411,-2.151425 4.922482,-1.996519 1.738372,0.154905 3.700432,0.464704 6.04121,1.032688 2.340778,0.567985 5.060126,1.394116 7.538588,2.684989 2.47847,1.290873 4.71591,3.046402 6.4887,4.922464 1.77278,1.876062 3.08082,3.872545 3.90697,6.264958 0.82615,2.392414 1.17037,5.180607 0.0688,7.280412 -1.10156,2.099806 -3.64879,3.511111 -6.14447,4.406109 -2.49568,0.894997 -4.93965,1.27364 -7.005036,1.428542 -2.065386,0.154901 -3.75207,0.08606 -5.352745,-0.344235 -1.600675,-0.430293 -3.115248,-1.222001 -4.698715,-2.289122 -1.583466,-1.067121 -3.235729,-2.409584 -5.09458,-4.561039 -1.858852,-2.151455 -3.924179,-5.111759 -4.04464,-8.743408 -0.120461,-3.631649 1.703911,-7.934413 3.373416,-10.085839 z"
                              id="belly1" />
                        <path style="fill:none;fill-opacity:1;stroke:#151912;stroke-width:0.555625;stroke-dasharray:none;stroke-opacity:0.84058"
                              d="m 95.006953,30.567455 c 1.411335,2.099792 2.82267,4.199583 3.700454,7.314888 0.877785,3.115304 1.222006,7.245961 1.015462,10.447304 -0.206545,3.201342 -0.963831,5.473203 -1.772775,6.867332 -0.808944,1.39413 -1.669498,1.910462 -2.530066,2.426804"
                              id="belly2" />
                        <path style="fill:none;fill-opacity:1;stroke:#151912;stroke-width:0.555625;stroke-dasharray:none;stroke-opacity:0.84058"
                              d="m 102.54555,33.355703 c 1.41133,2.478441 2.82267,4.956885 3.63161,7.779587 0.80893,2.822701 1.01547,5.989536 1.01547,8.295879 0,2.306343 -0.20654,3.75207 -1.08434,4.956878 -0.87779,1.204807 -2.42679,2.16863 -3.97581,3.132467"
                              id="belly3" transform="matrix(1.0008038,0,0,0.97877991,-0.08418227,0.70707393)" />
                  </g>
                  <g id="bust">
                        <path style="fill:url(#radialGradient13);stroke:#151912;stroke-width:0.264583;stroke-dasharray:none;stroke-opacity:0.84058"
                              d="m 57.210708,39.96488 c 0,0 1.479969,-2.686927 2.581709,-3.717663 1.612308,-1.508399 3.685458,-2.460483 5.679768,-3.407857 2.38018,-1.130676 4.90817,-1.938547 7.43533,-2.684978 2.33833,-0.690658 4.69222,-1.497875 7.12552,-1.652297 2.38257,-0.151203 4.86419,-0.04255 7.12552,0.722879 1.49311,0.505394 2.87179,1.406435 4.02747,2.478442 0.90361,0.838189 1.70929,1.85107 2.16863,2.994784 0.75112,1.870228 0.82615,5.989569 0.82615,5.989569 0,0 0.75706,6.317761 -0.10327,9.294159 -0.72953,2.523884 -1.9736,5.212783 -4.13073,6.712447 -3.63065,2.524072 -8.59949,2.292235 -13.01183,2.581712 -2.65044,0.173885 -5.3074,-0.265448 -7.95166,-0.516343 -0.82886,-0.07864 -2.47845,-0.309806 -2.47845,-0.309806 0,0 1.70365,-4.992964 1.44576,-7.538593 -0.23646,-2.334113 -1.24396,-4.654569 -2.68498,-6.505911 -1.02758,-1.320182 -2.55295,-2.204469 -4.02747,-2.994784 -1.257176,-0.673822 -4.027467,-1.44576 -4.027467,-1.44576 z"
                              id="bust1" />
                        <path style="fill:none;fill-opacity:1;stroke:#151912;stroke-width:0.555625;stroke-dasharray:none;stroke-opacity:0.84058"
                              d="m 63.923155,33.45897 c 1.58771,-0.430922 3.308254,-0.357707 4.853617,0.206536 1.689124,0.616733 3.133422,1.792506 4.285829,3.172889 1.152408,1.380382 2.033288,2.965007 2.839694,4.572243 1.508985,3.007537 2.781564,6.129242 3.9242,9.294159 0.434081,1.202335 0.852125,2.421705 1.01768,3.689232 0.165554,1.267528 0.06413,2.599678 -0.501339,3.746096 -0.563986,1.143399 -1.586611,2.0524 -2.788247,2.478443"
                              id="bust2" transform="matrix(0.99493488,0,0,0.92563688,0.41897016,3.0739615)" />
                        <path style="fill:none;fill-opacity:1;stroke:#151912;stroke-width:0.555625;stroke-dasharray:none;stroke-opacity:0.84058"
                              d="m 72.287899,30.360919 c 2.030947,0.03442 4.061891,0.06884 6.196128,0.757313 2.134237,0.688469 4.371674,2.030932 6.02398,3.42507 1.652306,1.394139 2.719392,2.839869 3.40785,4.561029 0.688459,1.72116 0.998258,3.717642 0.94662,6.471502 -0.05164,2.75386 -0.464704,6.264918 -1.118747,8.554045 -0.654042,2.289128 -1.549017,3.356214 -2.444009,4.42332"
                              id="bust3" />
                  </g>
                  <g id="legs3" inkscape:transform-center-x="-19.783936" inkscape:transform-center-y="17.697672">
                        <path style="fill:#353b21;fill-opacity:1;stroke:#151912;stroke-width:0.555625;stroke-dasharray:none;stroke-opacity:0.84058"
                              d="m 81.297611,57.589864 c 0.632856,0.900603 2.458398,1.922906 5.135901,2.872199 2.677503,0.949293 6.206819,1.825537 9.091202,2.239327 2.884383,0.413789 5.123676,0.365109 6.377216,0.19472 1.25355,-0.170389 1.52129,-0.462469 1.52128,-0.888433 0,-0.425964 -0.26774,-0.985788 -2.05681,-1.484775 -1.789064,-0.498988 -5.099319,-0.937109 -7.947193,-1.460438 -2.847875,-0.523329 -5.233207,-1.131833 -7.095276,-1.801206 -1.862069,-0.669374 -3.200776,-1.399577 -4.150065,-1.375228 -0.949289,0.02435 -1.509111,0.803232 -0.876255,1.703834 z"
                              id="path27" />
                        <path style="fill:#353b21;fill-opacity:1;stroke:#151912;stroke-width:0.555625;stroke-dasharray:none;stroke-opacity:0.84058"
                              d="m 102.84028,61.607123 c 0.21164,-0.08655 0.59932,-0.04213 1.04484,0.297765 0.44551,0.339893 0.94885,0.975234 1.16722,1.937093 0.21838,0.961859 0.15176,2.250164 0.0902,3.441273 -0.0616,1.191107 -0.11815,2.284952 -0.15296,3.4287 -0.0348,1.14375 -0.0478,2.33734 0.14506,3.322242 0.19281,0.984903 0.59138,1.761064 1.1159,2.458452 0.52453,0.697388 1.17499,1.31597 1.67394,2.036411 0.49896,0.720442 0.8464,1.542705 1.44156,2.524042 0.59515,0.981337 1.43798,2.121688 2.2345,2.979378 0.79653,0.85769 1.54673,1.432684 2.26948,2.067204 0.72277,0.634522 1.41806,1.328534 1.83257,2.032424 0.41451,0.70389 0.54821,1.41761 0.65425,1.959309 0.10605,0.5417 0.18443,0.911334 -0.0905,1.043355 -0.27493,0.132021 -0.90316,0.02642 -1.20744,-0.452413 -0.30427,-0.478831 -0.28458,-1.330856 -0.83342,-2.029501 -0.54883,-0.698645 -1.66616,-1.243875 -2.60853,-2.109116 -0.94238,-0.865239 -1.70976,-2.050431 -2.35164,-3.070743 -0.64188,-1.020311 -1.15822,-1.875677 -1.80828,-2.737985 -0.65005,-0.862306 -1.43378,-1.731505 -1.94364,-2.476882 -0.50985,-0.745377 -0.74581,-1.366894 -1.0962,-1.896852 -0.35038,-0.529959 -0.81516,-0.968327 -0.90717,-2.252694 -0.092,-1.284367 0.18878,-3.414642 0.28431,-5.262075 0.0955,-1.847431 0.006,-3.411919 -0.2312,-4.484412 -0.23702,-1.072493 -0.62134,-1.652936 -0.7957,-2.051922 -0.17436,-0.398985 -0.13874,-0.616506 0.0729,-0.703052 z"
                              id="path32" inkscape:transform-center-x="-6.217787"
                              inkscape:transform-center-y="14.532071" />
                  </g>
                  <g id="legs2" inkscape:transform-center-x="-8.7260008" inkscape:transform-center-y="17.725203">
                        <path style="fill:#353b21;fill-opacity:1;stroke:#151912;stroke-width:0.555625;stroke-dasharray:none;stroke-opacity:0.84058"
                              d="m 73.240872,59.48843 c 1.168348,0.632856 3.505045,1.898566 5.330604,2.884368 1.825559,0.985802 3.139924,1.691665 4.576034,2.275844 1.436111,0.584179 2.99388,1.046642 4.077043,1.290048 1.083163,0.243406 1.691665,0.267745 2.397551,0.255574 0.705886,-0.01217 1.509108,-0.06085 1.886387,-0.365113 0.377279,-0.304263 0.3286,-0.864087 -0.876283,-1.667338 -1.204883,-0.803251 -3.565874,-1.849875 -5.841744,-2.872191 -2.275869,-1.022315 -4.466479,-2.020259 -6.145992,-2.811334 -1.679512,-0.791074 -2.847838,-1.375237 -3.882323,-1.716007 -1.034484,-0.34077 -1.935069,-0.438131 -2.361029,-0.04867 -0.425959,0.389459 -0.377279,1.265704 -0.352938,1.703834 0.02434,0.43813 0.02434,0.438132 1.19269,1.070987 z"
                              id="path26" />
                        <path style="fill:#353b21;fill-opacity:1;stroke:#151912;stroke-width:0.555625;stroke-dasharray:none;stroke-opacity:0.84058"
                              d="m 89.583429,65.957386 c -0.0127,-0.267722 -0.03809,-0.803166 0.338808,-0.998634 0.376903,-0.195467 1.156073,-0.05096 1.570679,0.362016 0.414607,0.41298 0.464631,1.094406 -0.385529,1.996699 -0.850159,0.902293 -2.600436,2.025393 -4.715352,3.416998 -2.114916,1.391606 -4.594338,3.051629 -5.906928,3.966994 -1.312591,0.915365 -1.458295,1.086033 -1.592193,1.074125 -0.1339,-0.01191 -0.255984,-0.206387 -0.655906,0.658514 -0.399921,0.864901 -1.07765,2.789112 -1.671068,4.275071 -0.593419,1.48596 -1.102497,2.533592 -1.380949,3.276536 -0.278453,0.742944 -0.326268,1.18116 -0.652759,2.25281 -0.326491,1.07165 -0.931631,2.776655 -1.537845,3.946208 -0.606215,1.169554 -1.213469,1.803597 -1.431188,2.485572 -0.217719,0.681975 -0.0459,1.41184 -0.11861,1.570194 -0.07272,0.158355 -0.389951,-0.254803 -0.792031,-0.485247 -0.402079,-0.230443 -0.888976,-0.278164 -0.901599,-0.509378 -0.01263,-0.231215 0.449023,-0.645908 1.201094,-1.913126 0.75207,-1.267219 1.794517,-3.386871 2.436542,-4.909438 0.642027,-1.522566 0.883603,-2.447969 0.979668,-3.10536 0.09606,-0.657391 0.04662,-1.046737 0.640259,-2.423178 0.593643,-1.376441 1.83033,-3.739876 2.326764,-5.030912 0.496434,-1.291036 0.2526,-1.509616 0.604851,-1.863255 0.352252,-0.353639 1.300553,-0.842313 2.187983,-1.355223 0.887431,-0.51291 1.713936,-1.050024 2.041836,-1.403613 0.327901,-0.353588 0.157183,-0.523633 0.728527,-0.865534 0.571343,-0.3419 1.884697,-0.855634 3.07634,-1.393485 1.191642,-0.537851 2.261499,-1.099785 2.844762,-1.563412 0.583263,-0.463627 0.679903,-0.82892 0.728224,-1.01157 0.04832,-0.18265 0.04832,-0.18265 0.03562,-0.450372 z"
                              id="path31" inkscape:transform-center-x="9.4929176"
                              inkscape:transform-center-y="14.061352" />
                  </g>
                  <g id="legs1" transform="rotate(0.27766157,69.948379,52.091178)"
                        inkscape:transform-center-x="18.786401" inkscape:transform-center-y="9.4619314">
                        <path style="fill:#353b21;fill-opacity:1;stroke:#151912;stroke-width:0.555625;stroke-dasharray:none;stroke-opacity:0.84058"
                              d="m 63.772377,70.173955 c -0.194725,-0.82758 0.292087,-1.728184 0.851927,-3.115617 0.55984,-1.387433 1.192682,-3.261622 1.74035,-4.916797 0.547669,-1.655175 1.010132,-3.091241 1.375244,-4.296111 0.365112,-1.20487 0.632852,-2.178473 1.046648,-2.799162 0.413796,-0.620688 0.973619,-0.888429 1.33873,-0.219046 0.365111,0.669383 0.535491,2.27583 0.340761,4.137906 -0.194731,1.862077 -0.754553,3.979667 -1.387416,5.987786 -0.632863,2.008119 -1.338726,3.906649 -1.910735,5.148025 -0.572008,1.241376 -1.01013,1.82554 -1.667335,1.740339 -0.657206,-0.0852 -1.533449,-0.839742 -1.728174,-1.667323 z"
                              id="path25" />
                        <g id="path30g" inkscape:transform-center-x="15.881136" inkscape:transform-center-y="3.602018"
                              transform="rotate(-0.25408448,64.783345,70.33761)">
                              <path style="fill:#353b21;fill-opacity:1;stroke:#151912;stroke-width:0.555625;stroke-dasharray:none;stroke-opacity:0.84058"
                                    d="m 62.1694,70.623481 c -1.230979,0.05364 -3.692944,0.160916 -5.820198,0.303785 -2.127251,0.142873 -3.919722,0.321318 -5.252702,0.447755 -1.332982,0.126428 -2.206402,0.200822 -3.548286,0.573227 -1.341885,0.372401 -3.152146,1.042782 -4.687285,1.547294 -1.53514,0.504513 -2.795066,0.84313 -3.860172,1.171944 -1.065106,0.328815 -1.935326,0.647803 -2.883611,0.926645 -0.948285,0.278841 -1.974573,0.517519 -2.608431,0.760761 -0.633857,0.243242 -0.875254,0.491036 -0.764582,0.71122 0.11067,0.220184 0.573393,0.41275 1.179423,0.356381 0.606028,-0.05637 1.355321,-0.361669 2.558705,-0.767379 1.203383,-0.405711 2.860777,-0.91181 5.01929,-1.535896 2.158513,-0.624088 4.818009,-1.366126 7.622023,-1.806082 2.804014,-0.439958 5.752377,-0.577814 8.382067,-0.826564 2.629689,-0.248744 4.94055,-0.608374 6.208491,-0.984652 1.267943,-0.376276 1.492909,-0.769184 1.327248,-0.934146 -0.16566,-0.164964 -0.721927,-0.101982 -1.060534,-0.06364 -0.338606,0.03834 -0.459535,0.05203 -0.52,0.05887 -0.06046,0.0069 -0.06046,0.0069 -1.291447,0.06047 z"
                                    id="path30" inkscape:transform-center-x="16.723091"
                                    inkscape:transform-center-y="3.4479652" />
                        </g>
                  </g>
                  <g id="head" inkscape:transform-center-x="-0.61260694" inkscape:transform-center-y="-0.99251271">
                        <path style="fill:#a4a0ba;fill-opacity:1;stroke:#151912;stroke-width:0.264583;stroke-dasharray:none;stroke-opacity:0.84058"
                              d="m 57.3484,38.940803 c 0.240958,0.111874 0.722877,0.335623 1.273649,0.714279 0.550772,0.378657 1.17037,0.9122 2.056769,1.652299 0.886399,0.7401 2.039539,1.686708 2.84848,2.332139 0.808941,0.645431 1.27364,0.989652 1.729746,1.583454 0.456107,0.593802 0.903595,1.437143 1.247826,2.314934 0.34423,0.877791 0.585185,1.789976 0.731483,2.728008 0.146297,0.938031 0.197931,1.901852 0.111871,2.891518 -0.08606,0.989666 -0.309803,2.005118 -0.895001,3.055025 -0.585198,1.049906 -1.531805,2.134203 -2.2719,2.848479 -0.740095,0.714277 -1.273639,1.058499 -2.254703,1.531818 -0.981064,0.47332 -2.409584,1.075707 -3.769297,1.385511 -1.359714,0.309804 -2.650542,0.327014 -3.605782,0.206531 -0.95524,-0.120483 -1.574838,-0.378649 -2.228878,-0.894998 -0.654039,-0.516349 -1.342483,-1.290847 -1.858828,-2.203062 -0.516346,-0.912215 -0.860567,-1.96209 -1.041286,-2.986178 -0.180719,-1.024088 -0.197929,-2.022332 -0.275381,-3.072238 -0.07745,-1.049907 -0.215141,-2.151415 -0.27538,-3.579979 -0.06024,-1.428563 -0.04303,-3.184092 0.266786,-4.801979 0.309812,-1.617887 0.912199,-3.098038 1.781386,-4.10491 0.869187,-1.006872 2.005117,-1.540415 2.796846,-1.850221 0.791728,-0.309806 1.239215,-0.395862 1.746958,-0.33562 0.507744,0.06024 1.075708,0.266774 1.359696,0.370043 0.283989,0.103269 0.283981,0.103273 0.52494,0.215147 z"
                              id="head1" transform="translate(0.10326851,-0.41307368)" />
                        <path style="fill:url(#linearGradient5);stroke:#151912;stroke-width:0.264583;stroke-dasharray:none;stroke-opacity:0.84058"
                              d="m 56.832057,43.820236 c 0.585188,-0.86057 1.153166,-1.428547 1.712541,-1.781382 0.559376,-0.352835 1.11013,-0.490524 1.712536,-0.361434 0.602406,0.12909 1.256426,0.524944 1.970707,1.084322 0.714281,0.559379 1.488778,1.282241 2.134211,2.073975 0.645434,0.791735 1.161765,1.652287 1.557629,2.771041 0.395865,1.118755 0.671242,2.495641 0.77451,3.777902 0.103268,1.282261 0.03442,2.469824 -0.361445,3.631606 -0.39587,1.161782 -1.118734,2.297711 -1.84162,3.123864 -0.722887,0.826152 -1.445752,1.342484 -2.142821,1.488778 -0.697069,0.146295 -1.368298,-0.07745 -1.970702,-0.430287 -0.602405,-0.352838 -1.135948,-0.834748 -1.798595,-1.712543 -0.662648,-0.877795 -1.454356,-2.151411 -1.996518,-3.037804 -0.542163,-0.886393 -0.834751,-1.385513 -1.049895,-2.564514 -0.215144,-1.179 -0.352832,-3.037793 -0.120472,-4.543803 0.232359,-1.506009 0.834747,-2.659152 1.419934,-3.519721 z"
                              id="head2" />
                        <path style="fill:url(#linearGradient9);stroke:#151912;stroke-width:0.264583;stroke-dasharray:none;stroke-opacity:0.84058"
                              d="m 49.104137,50.085188 c 0,0 -1.018325,-2.005125 -1.187588,-3.098054 -0.269147,-1.73788 -0.378405,-3.648347 0.309806,-5.26669 0.476654,-1.120862 1.496138,-1.964832 2.478442,-2.684978 1.043185,-0.764779 2.233695,-1.449098 3.511127,-1.652294 0.822239,-0.13079 1.745114,-0.08442 2.478442,0.309803 0.279531,0.150272 0.619611,0.722879 0.619611,0.722879 0,0 -0.52057,1.620144 -0.981051,2.323542 -0.780171,1.191733 -1.95496,2.072196 -2.943148,3.098051 -0.717729,0.745087 -1.565626,1.379639 -2.168639,2.220272 -0.619153,0.863133 -0.943338,1.903973 -1.445757,2.839881 -0.215075,0.400641 -0.671245,1.187588 -0.671245,1.187588 z"
                              id="head3" />
                        <path style="fill:#807c80;fill-opacity:1;stroke:#151912;stroke-width:0.264583;stroke-dasharray:none;stroke-opacity:0.84058"
                              d="m 52.76156,51.178111 c 0.283989,0.404469 0.765907,1.127346 1.135955,2.022351 0.370048,0.895005 0.628213,1.96209 0.71427,2.85709 0.08606,0.894999 1e-6,1.617865 -0.103268,2.203057 -0.10327,0.585192 -0.223747,1.032679 -0.352834,1.531815 -0.129087,0.499137 -0.266775,1.049891 -0.740097,1.325274 -0.473322,0.275382 -1.282243,0.275382 -1.841616,-0.08606 -0.559373,-0.361448 -0.869172,-1.084312 -1.204798,-1.893256 -0.335626,-0.808945 -0.697058,-1.70392 -0.920808,-2.796857 -0.223749,-1.092938 -0.309804,-2.383766 -0.180715,-3.3304 0.129089,-0.946634 0.47331,-1.54902 1.015478,-1.893249 0.542167,-0.34423 1.28224,-0.430284 1.695315,-0.430283 0.413076,10e-7 0.49913,0.08606 0.783118,0.490523 z"
                              id="head4" />
                        <path style="fill:#494925;fill-opacity:1;stroke:#151912;stroke-width:0.264583;stroke-dasharray:none;stroke-opacity:0.84058"
                              d="m 53.864748,46.278837 c 0.212358,0.632157 0.0013,1.833338 -0.567128,2.804279 -0.568415,0.970942 -1.494139,1.711619 -2.430207,2.546812 -0.936068,0.835193 -1.882421,1.764848 -2.609181,2.448891 -0.72676,0.684042 -1.233888,1.122437 -1.558364,0.97885 -0.324475,-0.143587 -0.466284,-0.869132 0.05973,-1.875275 0.526019,-1.006143 1.719821,-2.292817 2.768004,-3.616593 1.048185,-1.323776 1.950691,-2.68457 2.719851,-3.333414 0.769161,-0.648842 1.404934,-0.585707 1.617291,0.04645 z"
                              id="head5" inkscape:transform-center-x="2.9493711"
                              inkscape:transform-center-y="3.9189973" />
                  </g>
                  <g id="wingl" transform="rotate(1.9709132,82.674607,51.463363)"
                        inkscape:transform-center-x="-29.713879" inkscape:transform-center-y="-3.627534">
                        <path style="fill:#685c64;fill-opacity:0.584783;stroke:#151912;stroke-width:0.555625;stroke-dasharray:none;stroke-opacity:0.84058"
                              d="m 83.010604,51.995654 c 1.22201,0.636822 3.769297,1.118741 6.110069,1.204795 2.340773,0.08605 4.474944,-0.223746 8.244296,-0.03441 3.769351,0.189332 9.173621,0.877775 14.715751,1.531815 5.54213,0.65404 11.22178,1.273638 15.09437,1.617867 3.87259,0.344229 5.93791,0.413073 8.10657,0.309801 2.16866,-0.103271 4.44052,-0.378648 5.67975,-0.946632 1.23922,-0.567985 1.44575,-1.428539 0.60238,-2.392388 -0.84338,-0.963849 -2.7366,-2.030937 -5.61094,-3.44229 -2.87435,-1.411354 -6.72962,-3.166878 -10.37848,-4.492166 -3.64885,-1.325288 -7.09106,-2.220263 -10.34404,-3.252959 -3.25299,-1.032695 -6.31656,-2.203048 -8.77781,-3.115258 -2.46125,-0.912211 -4.32004,-1.56623 -6.24774,-2.048153 -1.927699,-0.481923 -3.924184,-0.791722 -5.197833,-0.757296 -1.273648,0.03443 -1.824402,0.41307 -2.753832,1.514618 -0.929429,1.101548 -2.23747,2.92592 -4.010267,5.060159 -1.772797,2.134239 -4.010234,4.578209 -5.180611,6.196088 -1.170376,1.61788 -1.273643,2.40959 -0.05163,3.046413 z"
                              id="wing1" transform="matrix(1.0118237,0,0,1.0396173,-0.9640617,-1.4260615)" />
                        <path style="fill:#685c64;fill-opacity:0.584783;stroke:#151912;stroke-width:0.555625;stroke-dasharray:none;stroke-opacity:0.84058"
                              d="m 89.740263,51.427676 c 2.030947,-0.137691 4.061891,-0.275382 6.41988,-0.327016 2.357989,-0.05163 5.042917,-0.01721 7.555807,0.223753 2.51289,0.240965 4.85359,0.688451 6.81571,1.187587 1.96211,0.499136 3.54553,1.049891 5.00851,1.703931 1.46298,0.65404 2.80545,1.411329 4.14794,2.168631"
                              id="path19" />
                        <path style="fill:#685c64;fill-opacity:0.584783;stroke:#151912;stroke-width:0.555625;stroke-dasharray:none;stroke-opacity:0.84058"
                              d="m 83.853964,48.123088 c 2.581708,0.344227 5.16342,0.688455 8.76065,0.619604 3.59723,-0.06885 8.209796,-0.550761 11.824216,-0.981049 3.61442,-0.430289 6.2305,-0.808932 8.12376,-1.101528 1.89327,-0.292595 3.06362,-0.499128 4.234,-0.705666"
                              id="path20" />
                        <path style="fill:#685c64;fill-opacity:0.584783;stroke:#151912;stroke-width:0.555625;stroke-dasharray:none;stroke-opacity:0.84058"
                              d="m 83.337621,49.568846 c 4.371697,0.206536 8.743394,0.413073 13.424947,0.654035 4.681552,0.240962 9.672762,0.51634 14.233822,0.654031 4.56106,0.137691 8.69172,0.137691 11.73816,0.03442 3.04643,-0.103271 5.00849,-0.309803 6.97059,-0.516339"
                              id="path21" />
                        <path style="fill:#685c64;fill-opacity:0.584783;stroke:#151912;stroke-width:0.555625;stroke-dasharray:none;stroke-opacity:0.84058"
                              d="m 113.59527,51.427676 c 3.40786,0.654035 6.81572,1.308069 10.77438,1.910473 3.95867,0.602405 8.46797,1.153158 12.97736,1.703923"
                              id="path22" />
                  </g>
                  <path style="fill:none;fill-opacity:1;stroke:none;stroke-width:0.555625;stroke-dasharray:none;stroke-opacity:0.84058"
                        d="M 69.954891,57.103052 54.182179,46.003736" id="legsAxis" />
                  <path style="fill:none;fill-opacity:1;stroke:none;stroke-width:0.555625;stroke-dasharray:none;stroke-opacity:0.84058"
                        d="M 83.829032,51.553395 67.764236,38.117383" id="wingAxis" />
            </g>

      </g>
      <path id="move_path" style="fill:none;stroke:none;stroke-width:0.55"
            d="M 335.46594,143.32407 A 148.33102,104.93742 0 0 1 187.13492,248.26149 148.33102,104.93742 0 0 1 38.803894,143.32407 148.33102,104.93742 0 0 1 187.13492,38.386642 148.33102,104.93742 0 0 1 335.46594,143.32407 Z" />
</svg>