<svg width="288" height="43" viewBox="0 0 288 43" fill="none" xmlns="http://www.w3.org/2000/svg">
<path d="M3.43945 26.6719C3.43945 26.4505 3.44922 26.2096 3.46875 25.9492C3.49479 25.6823 3.52409 25.4056 3.55664 25.1191C3.5957 24.8262 3.64128 24.5332 3.69336 24.2402C3.74544 23.9408 3.80078 23.6478 3.85938 23.3613L1.41797 24.7969C1.35286 24.8424 1.28125 24.8652 1.20312 24.8652C1.125 24.8652 1.0599 24.8392 1.00781 24.7871C0.949219 24.735 0.919922 24.6699 0.919922 24.5918C0.919922 24.5007 0.958984 24.4062 1.03711 24.3086C1.10872 24.2044 1.23568 24.097 1.41797 23.9863L3.95703 22.3945C4.0612 22.0951 4.21094 21.6914 4.40625 21.1836C4.60156 20.6758 4.84245 20.1126 5.12891 19.4941C5.41536 18.8757 5.7474 18.2214 6.125 17.5312C6.5026 16.8411 6.92904 16.1576 7.4043 15.4805C7.87956 14.8034 8.40039 14.1589 8.9668 13.5469C9.5332 12.9284 10.1452 12.3848 10.8027 11.916C11.4668 11.4473 12.1764 11.0762 12.9316 10.8027C13.6934 10.5228 14.5039 10.3828 15.3633 10.3828C16.0924 10.3828 16.7272 10.4349 17.2676 10.5391C17.8079 10.6367 18.2539 10.7767 18.6055 10.959C18.957 11.1413 19.2174 11.3561 19.3867 11.6035C19.5625 11.8444 19.6504 12.1081 19.6504 12.3945C19.6504 12.8438 19.4551 13.3158 19.0645 13.8105C18.6803 14.2988 18.1042 14.7773 17.3359 15.2461L6.22266 22.0918L5.63672 25.8516C5.96875 25.6497 6.30078 25.4479 6.63281 25.2461C6.96484 25.0378 7.27734 24.8392 7.57031 24.6504C7.86979 24.4616 8.13997 24.2891 8.38086 24.1328C8.62826 23.9701 8.82682 23.8333 8.97656 23.7227C9.04818 23.6576 9.14258 23.5827 9.25977 23.498C9.38346 23.4134 9.52018 23.3353 9.66992 23.2637C9.82617 23.1921 9.99219 23.1302 10.168 23.0781C10.3438 23.026 10.526 23 10.7148 23C10.8516 23 10.9883 23.0163 11.125 23.0488C11.2617 23.0749 11.3822 23.14 11.4863 23.2441C11.597 23.3483 11.6849 23.498 11.75 23.6934C11.8216 23.8887 11.8574 24.1523 11.8574 24.4844V27.0039C11.9225 26.9648 12.043 26.8932 12.2188 26.7891C12.401 26.6784 12.6191 26.5482 12.873 26.3984C13.127 26.2487 13.4036 26.0859 13.7031 25.9102C14.0091 25.7344 14.3151 25.5586 14.6211 25.3828L16.9844 23.9863C17.1211 23.9082 17.2383 23.8691 17.3359 23.8691C17.4857 23.8691 17.5605 23.944 17.5605 24.0938C17.5605 24.1979 17.515 24.3118 17.4238 24.4355C17.3392 24.5527 17.1927 24.6732 16.9844 24.7969C16.2682 25.2201 15.5814 25.6237 14.9238 26.0078C14.2728 26.3919 13.6803 26.7337 13.1465 27.0332C12.6191 27.3327 12.1699 27.5768 11.7988 27.7656C11.4277 27.9479 11.1673 28.0521 11.0176 28.0781C10.946 28.0911 10.8711 28.1009 10.793 28.1074C10.7148 28.1139 10.6367 28.1172 10.5586 28.1172C10.3242 28.1172 10.1322 28.0846 9.98242 28.0195C9.83919 27.9609 9.72526 27.8796 9.64062 27.7754C9.5625 27.6647 9.50716 27.541 9.47461 27.4043C9.44857 27.2676 9.43555 27.1211 9.43555 26.9648C9.43555 26.8151 9.46159 26.6589 9.51367 26.4961C9.57227 26.3268 9.61458 26.1413 9.64062 25.9395L9.91406 23.8008C8.93099 24.4909 8.03255 25.1029 7.21875 25.6367C6.93229 25.8646 6.64909 26.0827 6.36914 26.291C6.08919 26.4993 5.83203 26.6849 5.59766 26.8477C5.36979 27.0104 5.17122 27.1406 5.00195 27.2383C4.83268 27.3294 4.71875 27.375 4.66016 27.375C4.53646 27.375 4.40299 27.3685 4.25977 27.3555C4.11654 27.3424 3.98307 27.3132 3.85938 27.2676C3.74219 27.2155 3.64128 27.1439 3.55664 27.0527C3.47852 26.9551 3.43945 26.8281 3.43945 26.6719ZM6.39844 20.8418C7.21875 20.2884 8.07161 19.7188 8.95703 19.1328C9.84245 18.5404 10.7376 17.9544 11.6426 17.375C12.554 16.7956 13.459 16.2292 14.3574 15.6758C15.2624 15.1159 16.1413 14.5918 16.9941 14.1035C17.4889 13.7324 17.8698 13.3874 18.1367 13.0684C18.4036 12.7493 18.5371 12.4629 18.5371 12.209C18.5371 11.8835 18.2897 11.6263 17.7949 11.4375C17.3001 11.2422 16.5156 11.1445 15.4414 11.1445C14.9401 11.1445 14.4388 11.2422 13.9375 11.4375C13.4362 11.6263 12.9414 11.8867 12.4531 12.2188C11.9714 12.5508 11.5026 12.9414 11.0469 13.3906C10.5911 13.8333 10.1582 14.3086 9.74805 14.8164C9.33789 15.3242 8.95378 15.8516 8.5957 16.3984C8.23763 16.9388 7.91211 17.4727 7.61914 18C7.33268 18.5273 7.08529 19.0352 6.87695 19.5234C6.66862 20.0117 6.50911 20.4512 6.39844 20.8418ZM28.1543 20.0605C28.5254 20.0605 28.8542 20.1354 29.1406 20.2852C29.4336 20.4349 29.6777 20.64 29.873 20.9004C30.0749 21.1543 30.2279 21.4538 30.332 21.7988C30.4362 22.1439 30.4883 22.5117 30.4883 22.9023C30.4883 23.1302 30.4622 23.3809 30.4102 23.6543C30.3581 23.9277 30.2832 24.2109 30.1855 24.5039C30.0879 24.7904 29.9674 25.0768 29.8242 25.3633C29.6875 25.6497 29.5345 25.9134 29.3652 26.1543C29.4889 26.0892 29.6387 26.0078 29.8145 25.9102C29.9902 25.8125 30.1758 25.7083 30.3711 25.5977C30.5729 25.4805 30.7812 25.36 30.9961 25.2363C31.2174 25.1126 31.4323 24.9922 31.6406 24.875L33.1543 23.9863C33.1999 23.9603 33.2617 23.9473 33.3398 23.9473C33.4896 23.9473 33.5645 24.0254 33.5645 24.1816C33.5645 24.3965 33.4277 24.6016 33.1543 24.7969C32.9199 24.9531 32.6139 25.1484 32.2363 25.3828C31.8587 25.6172 31.4486 25.8483 31.0059 26.0762C30.5697 26.2975 30.1237 26.4961 29.668 26.6719C29.2188 26.8411 28.7988 26.9388 28.4082 26.9648C27.9004 27.3424 27.3047 27.6484 26.6211 27.8828C25.9375 28.1107 25.14 28.2246 24.2285 28.2246C23.7793 28.2246 23.3984 28.1855 23.0859 28.1074C22.7799 28.0293 22.5326 27.9154 22.3438 27.7656C22.1549 27.6159 22.0182 27.4336 21.9336 27.2188C21.849 26.9974 21.8066 26.7435 21.8066 26.457C21.8066 26.0404 21.8913 25.5944 22.0605 25.1191C22.2298 24.6439 22.4382 24.1816 22.6855 23.7324C22.9395 23.2767 23.2096 22.8535 23.4961 22.4629C23.7826 22.0723 24.043 21.75 24.2773 21.4961C24.069 21.6784 23.7728 21.8965 23.3887 22.1504C23.0111 22.4043 22.5814 22.6777 22.0996 22.9707C21.6243 23.2572 21.1165 23.5566 20.5762 23.8691C20.0423 24.1816 19.5117 24.4909 18.9844 24.7969C18.9062 24.8294 18.8346 24.8457 18.7695 24.8457C18.6849 24.8457 18.6198 24.8229 18.5742 24.7773C18.5286 24.7253 18.5059 24.6602 18.5059 24.582C18.5059 24.4909 18.5449 24.3965 18.623 24.2988C18.6947 24.1947 18.8151 24.0905 18.9844 23.9863C19.974 23.4069 20.8171 22.9089 21.5137 22.4922C22.2103 22.069 22.8125 21.7109 23.3203 21.418C23.8281 21.125 24.2708 20.8906 24.6484 20.7148C25.026 20.5391 25.3874 20.4023 25.7324 20.3047C26.084 20.207 26.4486 20.1419 26.8262 20.1094C27.2038 20.0768 27.6465 20.0605 28.1543 20.0605ZM24.248 27.3848C24.6582 27.3848 25.0586 27.3001 25.4492 27.1309C25.8398 26.9616 26.2207 26.7305 26.5918 26.4375C26.5072 26.3398 26.4486 26.2292 26.416 26.1055C26.3835 25.9818 26.3672 25.8548 26.3672 25.7246C26.3672 25.4967 26.4421 25.3275 26.5918 25.2168C26.7415 25.0996 26.9206 25.041 27.1289 25.041C27.3503 25.041 27.5651 25.1061 27.7734 25.2363C27.9818 25.0866 28.1803 24.9076 28.3691 24.6992C28.5579 24.4909 28.7207 24.2695 28.8574 24.0352C29.0007 23.8008 29.1113 23.5599 29.1895 23.3125C29.2741 23.0651 29.3164 22.8242 29.3164 22.5898C29.3164 22.388 29.2773 22.196 29.1992 22.0137C29.1276 21.8249 29.0072 21.6621 28.8379 21.5254C28.6751 21.3887 28.457 21.2812 28.1836 21.2031C27.9167 21.1185 27.5911 21.0762 27.207 21.0762C26.888 21.0762 26.569 21.1608 26.25 21.3301C25.9375 21.4993 25.6348 21.7272 25.3418 22.0137C25.0553 22.2936 24.7852 22.6159 24.5312 22.9805C24.2839 23.3385 24.069 23.7096 23.8867 24.0938C23.7044 24.4779 23.5612 24.8555 23.457 25.2266C23.3529 25.5977 23.3008 25.9362 23.3008 26.2422C23.3008 26.5807 23.3757 26.8574 23.5254 27.0723C23.6751 27.2806 23.916 27.3848 24.248 27.3848ZM46.2676 23.9863C46.3132 23.9603 46.362 23.9473 46.4141 23.9473C46.4922 23.9473 46.5638 23.9733 46.6289 24.0254C46.694 24.0775 46.7266 24.1491 46.7266 24.2402C46.7266 24.3184 46.6908 24.4062 46.6191 24.5039C46.554 24.6016 46.4368 24.6992 46.2676 24.7969C45.9355 24.9857 45.571 25.1973 45.1738 25.4316C44.7832 25.6595 44.3796 25.8939 43.9629 26.1348C43.5527 26.3757 43.1426 26.6133 42.7324 26.8477C42.3223 27.082 41.9316 27.2969 41.5605 27.4922C41.196 27.6875 40.8639 27.8568 40.5645 28C40.265 28.1367 40.0208 28.2311 39.832 28.2832C39.7279 28.3158 39.6302 28.3353 39.5391 28.3418C39.4544 28.3548 39.3763 28.3613 39.3047 28.3613C39.0312 28.3613 38.8066 28.293 38.6309 28.1562C38.4551 28.0195 38.3151 27.8372 38.2109 27.6094C38.1133 27.375 38.0449 27.1048 38.0059 26.7988C37.9668 26.4863 37.9473 26.1576 37.9473 25.8125C37.9473 25.3438 37.9701 24.8685 38.0156 24.3867C38.0612 23.8984 38.1035 23.4492 38.1426 23.0391L36.0234 24.2891L35.1641 24.7969C35.1185 24.8229 35.0664 24.8359 35.0078 24.8359C34.9297 24.8359 34.8613 24.8099 34.8027 24.7578C34.7441 24.7057 34.7148 24.6341 34.7148 24.543C34.7148 24.4648 34.7474 24.3802 34.8125 24.2891C34.8776 24.1914 34.9948 24.0905 35.1641 23.9863L38.2012 22.1992C38.5137 21.1185 38.8359 20.1257 39.168 19.2207C39.5 18.3158 39.8613 17.4987 40.252 16.7695C40.6426 16.0404 41.069 15.3991 41.5312 14.8457C41.9935 14.2923 42.5111 13.8333 43.084 13.4688C43.6569 13.0977 44.2917 12.821 44.9883 12.6387C45.6914 12.4499 46.4727 12.3555 47.332 12.3555C47.7617 12.3555 48.123 12.3945 48.416 12.4727C48.709 12.5443 48.9466 12.6517 49.1289 12.7949C49.3177 12.9316 49.4512 13.0977 49.5293 13.293C49.6139 13.4883 49.6562 13.7031 49.6562 13.9375C49.6562 14.2305 49.5586 14.5462 49.3633 14.8848C49.168 15.2168 48.9043 15.5618 48.5723 15.9199C48.2402 16.278 47.8561 16.6426 47.4199 17.0137C46.9837 17.3783 46.5247 17.7396 46.043 18.0977C45.5612 18.4557 45.0697 18.8008 44.5684 19.1328C44.0736 19.4648 43.5983 19.7741 43.1426 20.0605C42.6934 20.347 42.2767 20.6042 41.8926 20.832C41.515 21.0599 41.2057 21.2454 40.9648 21.3887C40.8477 21.7988 40.7305 22.2285 40.6133 22.6777C40.4961 23.127 40.3887 23.5794 40.291 24.0352C40.1999 24.4909 40.125 24.9434 40.0664 25.3926C40.0078 25.8353 39.9785 26.252 39.9785 26.6426C39.9785 26.7988 39.9915 26.9323 40.0176 27.043C40.0501 27.1536 40.1022 27.209 40.1738 27.209C40.2975 27.209 40.4798 27.1634 40.7207 27.0723C40.9681 26.9746 41.2513 26.8444 41.5703 26.6816C41.8893 26.5189 42.2376 26.3333 42.6152 26.125C42.9993 25.9102 43.3965 25.6823 43.8066 25.4414C44.2168 25.2005 44.6302 24.9564 45.0469 24.709C45.4635 24.4616 45.8704 24.2207 46.2676 23.9863ZM41.1016 20.4902C41.4922 20.2819 41.9544 20.0085 42.4883 19.6699C43.0286 19.3314 43.5853 18.9603 44.1582 18.5566C44.7376 18.1465 45.3073 17.7168 45.8672 17.2676C46.4271 16.8184 46.9284 16.3789 47.3711 15.9492C47.8203 15.5195 48.1816 15.1126 48.4551 14.7285C48.7285 14.3379 48.8652 13.9993 48.8652 13.7129C48.8652 13.472 48.7383 13.2799 48.4844 13.1367C48.237 12.987 47.8301 12.9121 47.2637 12.9121C46.3717 12.9121 45.6003 13.0716 44.9492 13.3906C44.2982 13.7096 43.7318 14.1849 43.25 14.8164C42.7747 15.4479 42.3646 16.2389 42.0195 17.1895C41.681 18.1335 41.375 19.2337 41.1016 20.4902ZM57.4473 20.0605C57.8184 20.0605 58.1471 20.1354 58.4336 20.2852C58.7266 20.4349 58.9707 20.64 59.166 20.9004C59.3678 21.1543 59.5208 21.4538 59.625 21.7988C59.7292 22.1439 59.7812 22.5117 59.7812 22.9023C59.7812 23.1302 59.7552 23.3809 59.7031 23.6543C59.651 23.9277 59.5762 24.2109 59.4785 24.5039C59.3809 24.7904 59.2604 25.0768 59.1172 25.3633C58.9805 25.6497 58.8275 25.9134 58.6582 26.1543C58.7819 26.0892 58.9316 26.0078 59.1074 25.9102C59.2832 25.8125 59.4688 25.7083 59.6641 25.5977C59.8659 25.4805 60.0742 25.36 60.2891 25.2363C60.5104 25.1126 60.7253 24.9922 60.9336 24.875L62.4473 23.9863C62.4928 23.9603 62.5547 23.9473 62.6328 23.9473C62.7826 23.9473 62.8574 24.0254 62.8574 24.1816C62.8574 24.3965 62.7207 24.6016 62.4473 24.7969C62.2129 24.9531 61.9069 25.1484 61.5293 25.3828C61.1517 25.6172 60.7415 25.8483 60.2988 26.0762C59.8626 26.2975 59.4167 26.4961 58.9609 26.6719C58.5117 26.8411 58.0918 26.9388 57.7012 26.9648C57.1934 27.3424 56.5977 27.6484 55.9141 27.8828C55.2305 28.1107 54.4329 28.2246 53.5215 28.2246C53.0723 28.2246 52.6914 28.1855 52.3789 28.1074C52.0729 28.0293 51.8255 27.9154 51.6367 27.7656C51.4479 27.6159 51.3112 27.4336 51.2266 27.2188C51.1419 26.9974 51.0996 26.7435 51.0996 26.457C51.0996 26.0404 51.1842 25.5944 51.3535 25.1191C51.5228 24.6439 51.7311 24.1816 51.9785 23.7324C52.2324 23.2767 52.5026 22.8535 52.7891 22.4629C53.0755 22.0723 53.3359 21.75 53.5703 21.4961C53.362 21.6784 53.0658 21.8965 52.6816 22.1504C52.304 22.4043 51.8743 22.6777 51.3926 22.9707C50.9173 23.2572 50.4095 23.5566 49.8691 23.8691C49.3353 24.1816 48.8047 24.4909 48.2773 24.7969C48.1992 24.8294 48.1276 24.8457 48.0625 24.8457C47.9779 24.8457 47.9128 24.8229 47.8672 24.7773C47.8216 24.7253 47.7988 24.6602 47.7988 24.582C47.7988 24.4909 47.8379 24.3965 47.916 24.2988C47.9876 24.1947 48.1081 24.0905 48.2773 23.9863C49.2669 23.4069 50.11 22.9089 50.8066 22.4922C51.5033 22.069 52.1055 21.7109 52.6133 21.418C53.1211 21.125 53.5638 20.8906 53.9414 20.7148C54.319 20.5391 54.6803 20.4023 55.0254 20.3047C55.377 20.207 55.7415 20.1419 56.1191 20.1094C56.4967 20.0768 56.9395 20.0605 57.4473 20.0605ZM53.541 27.3848C53.9512 27.3848 54.3516 27.3001 54.7422 27.1309C55.1328 26.9616 55.5137 26.7305 55.8848 26.4375C55.8001 26.3398 55.7415 26.2292 55.709 26.1055C55.6764 25.9818 55.6602 25.8548 55.6602 25.7246C55.6602 25.4967 55.735 25.3275 55.8848 25.2168C56.0345 25.0996 56.2135 25.041 56.4219 25.041C56.6432 25.041 56.8581 25.1061 57.0664 25.2363C57.2747 25.0866 57.4733 24.9076 57.6621 24.6992C57.8509 24.4909 58.0137 24.2695 58.1504 24.0352C58.2936 23.8008 58.4043 23.5599 58.4824 23.3125C58.5671 23.0651 58.6094 22.8242 58.6094 22.5898C58.6094 22.388 58.5703 22.196 58.4922 22.0137C58.4206 21.8249 58.3001 21.6621 58.1309 21.5254C57.9681 21.3887 57.75 21.2812 57.4766 21.2031C57.2096 21.1185 56.8841 21.0762 56.5 21.0762C56.181 21.0762 55.862 21.1608 55.543 21.3301C55.2305 21.4993 54.9277 21.7272 54.6348 22.0137C54.3483 22.2936 54.0781 22.6159 53.8242 22.9805C53.5768 23.3385 53.362 23.7096 53.1797 24.0938C52.9974 24.4779 52.8542 24.8555 52.75 25.2266C52.6458 25.5977 52.5938 25.9362 52.5938 26.2422C52.5938 26.5807 52.6686 26.8574 52.8184 27.0723C52.9681 27.2806 53.209 27.3848 53.541 27.3848ZM66.8203 25.6172C66.8203 25.3763 66.8919 25.0866 67.0352 24.748C67.1849 24.4095 67.377 24.0645 67.6113 23.7129C67.8522 23.3613 68.1224 23.026 68.4219 22.707C68.7214 22.3815 69.0208 22.1178 69.3203 21.916L64.457 24.7969C64.431 24.8099 64.4082 24.8197 64.3887 24.8262C64.3626 24.8262 64.3398 24.8262 64.3203 24.8262C64.2487 24.8262 64.1934 24.8001 64.1543 24.748C64.1152 24.696 64.0957 24.6309 64.0957 24.5527C64.0957 24.4616 64.125 24.3639 64.1836 24.2598C64.2422 24.1491 64.3333 24.0579 64.457 23.9863L67.1426 22.3555C67.5072 22.1341 67.9206 21.8997 68.3828 21.6523C68.8451 21.3984 69.3236 21.1673 69.8184 20.959C70.3197 20.7507 70.8242 20.5781 71.332 20.4414C71.8398 20.2982 72.3216 20.2266 72.7773 20.2266C73.2005 20.2266 73.5749 20.2917 73.9004 20.4219L76.4492 15.2754C76.5143 15.1387 76.5827 14.9922 76.6543 14.8359C76.7324 14.6732 76.8301 14.5234 76.9473 14.3867C77.071 14.25 77.224 14.1361 77.4062 14.0449C77.5951 13.9473 77.8359 13.8984 78.1289 13.8984C78.2201 13.8984 78.2754 13.931 78.2949 13.9961C78.321 14.0547 78.334 14.1328 78.334 14.2305C78.321 14.3216 78.2982 14.4258 78.2656 14.543C78.2331 14.6536 78.1973 14.7643 78.1582 14.875C78.1257 14.9857 78.0931 15.0866 78.0605 15.1777C78.028 15.2689 78.002 15.3372 77.9824 15.3828L75.0723 21.7109C74.929 22.1341 74.75 22.5736 74.5352 23.0293C74.3268 23.4785 74.1217 23.918 73.9199 24.3477C73.7246 24.7708 73.5553 25.168 73.4121 25.5391C73.2754 25.9102 73.207 26.2259 73.207 26.4863C73.207 26.5775 73.2168 26.6654 73.2363 26.75C73.2624 26.8346 73.3079 26.877 73.373 26.877C73.4577 26.877 73.5846 26.8444 73.7539 26.7793C73.9297 26.7142 74.1283 26.623 74.3496 26.5059C74.571 26.3887 74.8086 26.252 75.0625 26.0957C75.3229 25.9329 75.5801 25.7604 75.834 25.5781L78.373 23.9863C78.4251 23.9603 78.4642 23.9473 78.4902 23.9473C78.5423 23.9473 78.5814 23.9733 78.6074 24.0254C78.64 24.0775 78.6562 24.1393 78.6562 24.2109C78.6562 24.3216 78.6302 24.4323 78.5781 24.543C78.5326 24.6471 78.4642 24.7318 78.373 24.7969C78.002 25.0443 77.6178 25.3014 77.2207 25.5684C76.8301 25.8288 76.4362 26.0892 76.0391 26.3496C75.6419 26.6035 75.2513 26.8477 74.8672 27.082C74.4896 27.3164 74.125 27.5312 73.7734 27.7266C73.2721 28.0065 72.8229 28.1465 72.4258 28.1465C72.1654 28.1465 71.9896 28.0749 71.8984 27.9316C71.8073 27.7884 71.7617 27.6029 71.7617 27.375C71.7617 27.2383 71.7715 27.0983 71.791 26.9551C71.8171 26.8053 71.8529 26.6458 71.8984 26.4766C71.7227 26.7305 71.5208 26.9583 71.293 27.1602C71.0651 27.362 70.821 27.5345 70.5605 27.6777C70.3066 27.821 70.0397 27.9284 69.7598 28C69.4863 28.0781 69.2194 28.1172 68.959 28.1172C68.6725 28.1172 68.3991 28.0716 68.1387 27.9805C67.8783 27.8828 67.6504 27.7331 67.4551 27.5312C67.2598 27.3229 67.1035 27.0625 66.9863 26.75C66.8757 26.4375 66.8203 26.0599 66.8203 25.6172ZM73.1875 22.2188C73.2135 22.1471 73.2461 22.0592 73.2852 21.9551C73.3307 21.8509 73.373 21.75 73.4121 21.6523C73.4577 21.5547 73.4935 21.4668 73.5195 21.3887C73.5521 21.304 73.5684 21.2454 73.5684 21.2129C73.5684 21.1738 73.4935 21.1445 73.3438 21.125C73.194 21.1055 72.9954 21.0957 72.748 21.0957C72.4225 21.0957 72.0905 21.1836 71.752 21.3594C71.4199 21.5286 71.0944 21.7533 70.7754 22.0332C70.4629 22.3132 70.1667 22.6354 69.8867 23C69.6133 23.3581 69.3724 23.7292 69.1641 24.1133C68.9622 24.4909 68.7995 24.8652 68.6758 25.2363C68.5586 25.6074 68.5 25.9427 68.5 26.2422C68.5 26.6458 68.5684 26.9355 68.7051 27.1113C68.8418 27.2806 69.0208 27.3652 69.2422 27.3652C69.5417 27.3652 69.8639 27.2383 70.209 26.9844C70.5605 26.7305 70.9121 26.3789 71.2637 25.9297C71.6152 25.474 71.957 24.9303 72.2891 24.2988C72.6211 23.6673 72.9206 22.974 73.1875 22.2188ZM92.1895 21.6719C91.9421 21.6719 91.6328 21.7435 91.2617 21.8867C90.8906 22.0234 90.4837 22.2155 90.041 22.4629C89.5983 22.7038 89.1361 22.9902 88.6543 23.3223C88.179 23.6543 87.7103 24.0156 87.248 24.4062C86.7923 24.7969 86.3561 25.2103 85.9395 25.6465C85.5293 26.0762 85.1712 26.5091 84.8652 26.9453C84.8327 26.9779 84.8164 27.0527 84.8164 27.1699C84.8164 27.2806 84.7969 27.3978 84.7578 27.5215C84.7253 27.6452 84.6569 27.7559 84.5527 27.8535C84.4486 27.9512 84.276 28 84.0352 28C83.8659 28 83.7324 27.9805 83.6348 27.9414C83.5436 27.9023 83.472 27.8503 83.4199 27.7852C83.3743 27.7135 83.3451 27.6322 83.332 27.541C83.319 27.4434 83.3125 27.3359 83.3125 27.2188C83.3125 27.1016 83.3451 26.929 83.4102 26.7012C83.4753 26.4733 83.5599 26.2096 83.6641 25.9102C83.7682 25.6107 83.8854 25.2884 84.0156 24.9434C84.1458 24.5983 84.276 24.2533 84.4062 23.9082C84.543 23.5632 84.6699 23.2279 84.7871 22.9023C84.9108 22.5768 85.015 22.2839 85.0996 22.0234L80.3828 24.7969C80.3503 24.8034 80.3242 24.8099 80.3047 24.8164C80.2786 24.8164 80.2591 24.8164 80.2461 24.8164C80.1549 24.8164 80.0898 24.7936 80.0508 24.748C80.0052 24.696 79.9824 24.6341 79.9824 24.5625C79.9824 24.4714 80.0182 24.3737 80.0898 24.2695C80.1549 24.1589 80.2526 24.0645 80.3828 23.9863C81.3594 23.4069 82.1634 22.9316 82.7949 22.5605C83.4329 22.1829 83.944 21.8802 84.3281 21.6523C84.7122 21.4245 84.9987 21.2552 85.1875 21.1445C85.3828 21.0339 85.5293 20.9525 85.627 20.9004C85.7181 20.8483 85.7995 20.8125 85.8711 20.793C85.9492 20.7734 86.0339 20.7637 86.125 20.7637C86.3138 20.7637 86.4668 20.819 86.584 20.9297C86.7077 21.0404 86.7695 21.1641 86.7695 21.3008C86.7695 21.4375 86.7272 21.6263 86.6426 21.8672C86.5579 22.1016 86.4538 22.3587 86.3301 22.6387C86.2064 22.9186 86.0794 23.2051 85.9492 23.498C85.819 23.7845 85.7083 24.0514 85.6172 24.2988C85.5781 24.3965 85.5456 24.4779 85.5195 24.543C85.5 24.6016 85.474 24.6699 85.4414 24.748C85.4154 24.8262 85.3763 24.9271 85.3242 25.0508C85.2721 25.168 85.1973 25.334 85.0996 25.5488C85.373 25.1973 85.6921 24.8294 86.0566 24.4453C86.4277 24.0612 86.8281 23.6868 87.2578 23.3223C87.694 22.9512 88.1562 22.5996 88.6445 22.2676C89.1393 21.9355 89.6471 21.6458 90.168 21.3984C90.6953 21.1445 91.2324 20.946 91.7793 20.8027C92.3262 20.653 92.8698 20.5781 93.4102 20.5781C93.7422 20.5781 93.9701 20.6497 94.0938 20.793C94.224 20.9297 94.2891 21.1185 94.2891 21.3594C94.2891 21.5547 94.2533 21.7923 94.1816 22.0723C94.11 22.3522 94.0124 22.6582 93.8887 22.9902C93.765 23.3158 93.625 23.6673 93.4688 24.0449C93.3125 24.416 93.1465 24.7936 92.9707 25.1777C92.8014 25.5553 92.6289 25.9362 92.4531 26.3203C92.2839 26.7044 92.1243 27.0723 91.9746 27.4238C92.3457 27.2741 92.7331 27.0788 93.1367 26.8379C93.5404 26.597 93.9701 26.3268 94.4258 26.0273C94.888 25.7279 95.373 25.4056 95.8809 25.0605C96.3952 24.709 96.9453 24.3509 97.5312 23.9863C97.5768 23.9603 97.6387 23.9473 97.7168 23.9473C97.873 23.9473 97.9512 24.0352 97.9512 24.2109C97.9512 24.3021 97.9154 24.403 97.8438 24.5137C97.7721 24.6178 97.668 24.7122 97.5312 24.7969C96.7565 25.2786 96.0566 25.7376 95.4316 26.1738C94.8066 26.61 94.2337 26.9974 93.7129 27.3359C93.1986 27.6745 92.7266 27.9414 92.2969 28.1367C91.8737 28.3385 91.4798 28.4395 91.1152 28.4395C90.8939 28.4395 90.7051 28.4102 90.5488 28.3516C90.3926 28.2995 90.2624 28.2279 90.1582 28.1367C90.0605 28.0456 89.9857 27.9382 89.9336 27.8145C89.888 27.6842 89.8652 27.5508 89.8652 27.4141C89.8652 27.2643 89.8945 27.1178 89.9531 26.9746C90.0182 26.8249 90.1061 26.6654 90.2168 26.4961C90.4186 26.0534 90.6432 25.5911 90.8906 25.1094C91.138 24.6211 91.3659 24.1589 91.5742 23.7227C91.7826 23.2865 91.9583 22.8991 92.1016 22.5605C92.2448 22.222 92.3164 21.9779 92.3164 21.8281C92.3164 21.724 92.2741 21.6719 92.1895 21.6719ZM99.5312 24.7969C99.4857 24.8229 99.4434 24.8359 99.4043 24.8359C99.3392 24.8359 99.2904 24.8099 99.2578 24.7578C99.2253 24.6992 99.209 24.6276 99.209 24.543C99.209 24.4518 99.2318 24.3542 99.2773 24.25C99.3229 24.1458 99.4076 24.0579 99.5312 23.9863L103.145 21.8574C103.594 21.597 104.072 21.3724 104.58 21.1836C105.088 20.9948 105.602 20.8418 106.123 20.7246C106.65 20.6009 107.171 20.513 107.686 20.4609C108.2 20.4023 108.685 20.373 109.141 20.373C109.401 20.373 109.645 20.3926 109.873 20.4316C110.101 20.4642 110.296 20.5163 110.459 20.5879C110.628 20.653 110.758 20.7344 110.85 20.832C110.947 20.9297 110.996 21.0404 110.996 21.1641C110.996 21.2552 110.964 21.3203 110.898 21.3594C110.833 21.3984 110.755 21.4277 110.664 21.4473C110.579 21.4603 110.488 21.4701 110.391 21.4766C110.299 21.4831 110.228 21.4993 110.176 21.5254C110.137 21.6491 110.075 21.8411 109.99 22.1016C109.906 22.3555 109.821 22.6191 109.736 22.8926C109.652 23.1595 109.574 23.4004 109.502 23.6152C109.437 23.8236 109.401 23.944 109.395 23.9766C109.31 24.25 109.193 24.5983 109.043 25.0215C108.9 25.4382 108.74 25.998 108.564 26.7012C108.571 26.7012 108.643 26.6654 108.779 26.5938C108.923 26.5156 109.105 26.4147 109.326 26.291C109.554 26.1673 109.811 26.0241 110.098 25.8613C110.384 25.6986 110.68 25.5326 110.986 25.3633L113.32 23.9863C113.411 23.9342 113.49 23.9082 113.555 23.9082C113.626 23.9082 113.682 23.9342 113.721 23.9863C113.76 24.0319 113.779 24.0905 113.779 24.1621C113.779 24.2533 113.743 24.3607 113.672 24.4844C113.6 24.6016 113.483 24.7057 113.32 24.7969L108.125 27.8438C107.995 27.9219 107.874 27.9772 107.764 28.0098C107.653 28.0423 107.552 28.0586 107.461 28.0586C107.331 28.0586 107.22 28.0293 107.129 27.9707C107.038 27.9121 106.963 27.8307 106.904 27.7266C106.846 27.6224 106.8 27.5052 106.768 27.375C106.742 27.2383 106.729 27.0951 106.729 26.9453C106.729 26.7826 106.745 26.6198 106.777 26.457C106.81 26.2943 106.852 26.138 106.904 25.9883C106.715 26.3594 106.494 26.6816 106.24 26.9551C105.993 27.2285 105.726 27.4596 105.439 27.6484C105.16 27.8307 104.87 27.9674 104.57 28.0586C104.271 28.1497 103.978 28.1953 103.691 28.1953C103.405 28.1953 103.135 28.1497 102.881 28.0586C102.627 27.9674 102.402 27.834 102.207 27.6582C102.018 27.4759 101.868 27.2513 101.758 26.9844C101.647 26.7174 101.592 26.4082 101.592 26.0566C101.592 25.8483 101.611 25.6172 101.65 25.3633C101.696 25.1094 101.755 24.8522 101.826 24.5918C101.898 24.3314 101.979 24.0775 102.07 23.8301C102.161 23.5762 102.256 23.3451 102.354 23.1367L99.5312 24.7969ZM108.408 21.2031C107.887 21.2031 107.389 21.291 106.914 21.4668C106.439 21.6426 105.996 21.8737 105.586 22.1602C105.182 22.4466 104.814 22.7754 104.482 23.1465C104.157 23.5111 103.877 23.8887 103.643 24.2793C103.415 24.6634 103.236 25.0443 103.105 25.4219C102.982 25.7995 102.92 26.138 102.92 26.4375C102.92 26.7695 102.992 27.0397 103.135 27.248C103.285 27.4499 103.525 27.5508 103.857 27.5508C104.053 27.5508 104.264 27.4922 104.492 27.375C104.727 27.2513 104.961 27.0918 105.195 26.8965C105.436 26.6947 105.671 26.4701 105.898 26.2227C106.133 25.9688 106.348 25.7148 106.543 25.4609C106.738 25.2005 106.908 24.9499 107.051 24.709C107.201 24.4616 107.308 24.2467 107.373 24.0645L108.408 21.2031ZM132.186 24.7969C131.821 25.0117 131.466 25.2233 131.121 25.4316C130.783 25.6335 130.441 25.8483 130.096 26.0762C129.751 26.304 129.396 26.5482 129.031 26.8086C128.673 27.069 128.296 27.362 127.898 27.6875C127.573 28.5339 127.218 29.4095 126.834 30.3145C126.456 31.2194 126.056 32.1016 125.633 32.9609C125.216 33.8268 124.78 34.6439 124.324 35.4121C123.868 36.1868 123.4 36.8639 122.918 37.4434C122.443 38.0228 121.958 38.4818 121.463 38.8203C120.975 39.1654 120.486 39.3379 119.998 39.3379C119.751 39.3379 119.539 39.3086 119.363 39.25C119.188 39.1914 119.041 39.1133 118.924 39.0156C118.807 38.918 118.719 38.8073 118.66 38.6836C118.608 38.5664 118.582 38.446 118.582 38.3223C118.582 38.1335 118.637 37.8568 118.748 37.4922C118.859 37.1341 119.038 36.7109 119.285 36.2227C119.533 35.7344 119.852 35.1875 120.242 34.582C120.639 33.9766 121.118 33.3288 121.678 32.6387C122.238 31.9551 122.885 31.2389 123.621 30.4902C124.363 29.7415 125.206 28.9766 126.15 28.1953C126.528 27.3164 126.85 26.5775 127.117 25.9785C127.384 25.3796 127.605 24.8815 127.781 24.4844C127.964 24.0872 128.107 23.7715 128.211 23.5371C128.315 23.2962 128.396 23.0977 128.455 22.9414C128.182 23.293 127.856 23.6738 127.479 24.084C127.101 24.4941 126.684 24.9043 126.229 25.3145C125.779 25.7246 125.298 26.1185 124.783 26.4961C124.275 26.8737 123.751 27.209 123.211 27.502C122.671 27.7884 122.12 28.0195 121.561 28.1953C121.007 28.3711 120.46 28.459 119.92 28.459C119.607 28.459 119.393 28.3743 119.275 28.2051C119.158 28.0423 119.1 27.821 119.1 27.541C119.1 27.2871 119.142 26.9876 119.227 26.6426C119.318 26.291 119.432 25.9199 119.568 25.5293C119.705 25.1322 119.858 24.7285 120.027 24.3184C120.203 23.9017 120.376 23.5013 120.545 23.1172C120.714 22.7331 120.87 22.3783 121.014 22.0527C121.163 21.7272 121.284 21.4538 121.375 21.2324C121.082 21.4212 120.711 21.6491 120.262 21.916C119.819 22.1764 119.331 22.4629 118.797 22.7754C118.263 23.0814 117.697 23.4069 117.098 23.752C116.505 24.097 115.913 24.4453 115.32 24.7969C115.229 24.849 115.148 24.875 115.076 24.875C114.998 24.875 114.936 24.8522 114.891 24.8066C114.839 24.7546 114.812 24.6895 114.812 24.6113C114.812 24.5202 114.852 24.4225 114.93 24.3184C115.001 24.2077 115.132 24.097 115.32 23.9863C116.173 23.485 116.919 23.0456 117.557 22.668C118.201 22.2839 118.761 21.9518 119.236 21.6719C119.712 21.3919 120.115 21.1576 120.447 20.9688C120.779 20.7799 121.062 20.6302 121.297 20.5195C121.531 20.4089 121.727 20.3307 121.883 20.2852C122.039 20.2331 122.182 20.207 122.312 20.207C122.508 20.207 122.667 20.2493 122.791 20.334C122.915 20.4121 123.012 20.5163 123.084 20.6465C123.162 20.7702 123.214 20.9069 123.24 21.0566C123.266 21.1999 123.279 21.3398 123.279 21.4766C123.279 21.7565 123.208 22.082 123.064 22.4531C122.928 22.8177 122.755 23.1986 122.547 23.5957C122.339 23.9928 122.114 24.3932 121.873 24.7969C121.632 25.2005 121.408 25.5814 121.199 25.9395C120.991 26.2975 120.815 26.6165 120.672 26.8965C120.535 27.1764 120.467 27.3913 120.467 27.541C120.467 27.6908 120.542 27.7656 120.691 27.7656C120.926 27.7656 121.229 27.6875 121.6 27.5312C121.977 27.3685 122.394 27.1504 122.85 26.877C123.305 26.597 123.787 26.2715 124.295 25.9004C124.803 25.5228 125.307 25.1191 125.809 24.6895C126.31 24.2598 126.792 23.8138 127.254 23.3516C127.723 22.8893 128.146 22.4271 128.523 21.9648C128.549 21.9258 128.566 21.8574 128.572 21.7598C128.585 21.6556 128.611 21.5514 128.65 21.4473C128.696 21.3366 128.764 21.2422 128.855 21.1641C128.953 21.0794 129.1 21.0371 129.295 21.0371C129.458 21.0371 129.588 21.0566 129.686 21.0957C129.783 21.1348 129.855 21.1901 129.9 21.2617C129.952 21.3268 129.985 21.4082 129.998 21.5059C130.011 21.597 130.018 21.7012 130.018 21.8184C130.018 21.8053 130.014 21.7988 130.008 21.7988C129.995 21.7988 129.946 21.9193 129.861 22.1602C129.777 22.3945 129.663 22.7233 129.52 23.1465C129.383 23.5632 129.214 24.0579 129.012 24.6309C128.816 25.2038 128.595 25.8255 128.348 26.4961C128.94 26.0664 129.549 25.6465 130.174 25.2363C130.805 24.8197 131.476 24.403 132.186 23.9863C132.225 23.9668 132.264 23.957 132.303 23.957C132.374 23.957 132.439 23.9863 132.498 24.0449C132.563 24.1035 132.596 24.1784 132.596 24.2695C132.596 24.3477 132.563 24.4323 132.498 24.5234C132.439 24.6146 132.335 24.7057 132.186 24.7969ZM123.426 31.8574C123.204 32.0918 122.973 32.3913 122.732 32.7559C122.492 33.1204 122.254 33.5111 122.02 33.9277C121.785 34.3509 121.561 34.7806 121.346 35.2168C121.131 35.6595 120.942 36.0729 120.779 36.457C120.623 36.8411 120.496 37.1797 120.398 37.4727C120.307 37.7721 120.262 37.987 120.262 38.1172C120.262 38.2669 120.333 38.3418 120.477 38.3418C120.646 38.3418 120.825 38.2604 121.014 38.0977C121.209 37.9414 121.408 37.7266 121.609 37.4531C121.818 37.1862 122.029 36.8737 122.244 36.5156C122.459 36.1641 122.674 35.7897 122.889 35.3926C123.104 34.9954 123.315 34.5885 123.523 34.1719C123.738 33.7617 123.943 33.3678 124.139 32.9902C124.386 32.3978 124.614 31.8444 124.822 31.3301C125.037 30.8158 125.242 30.3307 125.438 29.875C124.826 30.4479 124.155 31.1087 123.426 31.8574ZM134.195 24.7969C134.15 24.8229 134.107 24.8359 134.068 24.8359C134.003 24.8359 133.954 24.8099 133.922 24.7578C133.889 24.6992 133.873 24.6276 133.873 24.543C133.873 24.4518 133.896 24.3542 133.941 24.25C133.987 24.1458 134.072 24.0579 134.195 23.9863L137.809 21.8574C138.258 21.597 138.736 21.3724 139.244 21.1836C139.752 20.9948 140.266 20.8418 140.787 20.7246C141.314 20.6009 141.835 20.513 142.35 20.4609C142.864 20.4023 143.349 20.373 143.805 20.373C144.065 20.373 144.309 20.3926 144.537 20.4316C144.765 20.4642 144.96 20.5163 145.123 20.5879C145.292 20.653 145.423 20.7344 145.514 20.832C145.611 20.9297 145.66 21.0404 145.66 21.1641C145.66 21.2552 145.628 21.3203 145.562 21.3594C145.497 21.3984 145.419 21.4277 145.328 21.4473C145.243 21.4603 145.152 21.4701 145.055 21.4766C144.964 21.4831 144.892 21.4993 144.84 21.5254C144.801 21.6491 144.739 21.8411 144.654 22.1016C144.57 22.3555 144.485 22.6191 144.4 22.8926C144.316 23.1595 144.238 23.4004 144.166 23.6152C144.101 23.8236 144.065 23.944 144.059 23.9766C143.974 24.25 143.857 24.5983 143.707 25.0215C143.564 25.4382 143.404 25.998 143.229 26.7012C143.235 26.7012 143.307 26.6654 143.443 26.5938C143.587 26.5156 143.769 26.4147 143.99 26.291C144.218 26.1673 144.475 26.0241 144.762 25.8613C145.048 25.6986 145.344 25.5326 145.65 25.3633L147.984 23.9863C148.076 23.9342 148.154 23.9082 148.219 23.9082C148.29 23.9082 148.346 23.9342 148.385 23.9863C148.424 24.0319 148.443 24.0905 148.443 24.1621C148.443 24.2533 148.408 24.3607 148.336 24.4844C148.264 24.6016 148.147 24.7057 147.984 24.7969L142.789 27.8438C142.659 27.9219 142.538 27.9772 142.428 28.0098C142.317 28.0423 142.216 28.0586 142.125 28.0586C141.995 28.0586 141.884 28.0293 141.793 27.9707C141.702 27.9121 141.627 27.8307 141.568 27.7266C141.51 27.6224 141.464 27.5052 141.432 27.375C141.406 27.2383 141.393 27.0951 141.393 26.9453C141.393 26.7826 141.409 26.6198 141.441 26.457C141.474 26.2943 141.516 26.138 141.568 25.9883C141.38 26.3594 141.158 26.6816 140.904 26.9551C140.657 27.2285 140.39 27.4596 140.104 27.6484C139.824 27.8307 139.534 27.9674 139.234 28.0586C138.935 28.1497 138.642 28.1953 138.355 28.1953C138.069 28.1953 137.799 28.1497 137.545 28.0586C137.291 27.9674 137.066 27.834 136.871 27.6582C136.682 27.4759 136.533 27.2513 136.422 26.9844C136.311 26.7174 136.256 26.4082 136.256 26.0566C136.256 25.8483 136.275 25.6172 136.314 25.3633C136.36 25.1094 136.419 24.8522 136.49 24.5918C136.562 24.3314 136.643 24.0775 136.734 23.8301C136.826 23.5762 136.92 23.3451 137.018 23.1367L134.195 24.7969ZM143.072 21.2031C142.551 21.2031 142.053 21.291 141.578 21.4668C141.103 21.6426 140.66 21.8737 140.25 22.1602C139.846 22.4466 139.479 22.7754 139.146 23.1465C138.821 23.5111 138.541 23.8887 138.307 24.2793C138.079 24.6634 137.9 25.0443 137.77 25.4219C137.646 25.7995 137.584 26.138 137.584 26.4375C137.584 26.7695 137.656 27.0397 137.799 27.248C137.949 27.4499 138.189 27.5508 138.521 27.5508C138.717 27.5508 138.928 27.4922 139.156 27.375C139.391 27.2513 139.625 27.0918 139.859 26.8965C140.1 26.6947 140.335 26.4701 140.562 26.2227C140.797 25.9688 141.012 25.7148 141.207 25.4609C141.402 25.2005 141.572 24.9499 141.715 24.709C141.865 24.4616 141.972 24.2467 142.037 24.0645L143.072 21.2031ZM168.82 24.7969C167.811 25.3763 166.955 25.8809 166.252 26.3105C165.549 26.7337 164.95 27.0853 164.455 27.3652C163.96 27.6387 163.54 27.8438 163.195 27.9805C162.857 28.1107 162.548 28.1758 162.268 28.1758C161.994 28.1758 161.76 28.1432 161.564 28.0781C161.376 28.013 161.219 27.9251 161.096 27.8145C160.972 27.7038 160.881 27.5703 160.822 27.4141C160.77 27.2578 160.744 27.0885 160.744 26.9062C160.744 26.7695 160.773 26.6296 160.832 26.4863C160.891 26.3431 160.962 26.1966 161.047 26.0469C161.138 25.8971 161.232 25.7409 161.33 25.5781C161.428 25.4089 161.519 25.2298 161.604 25.041L163.088 21.7207L157.844 24.7969C157.759 24.8294 157.701 24.8457 157.668 24.8457C157.59 24.8457 157.521 24.8197 157.463 24.7676C157.398 24.7155 157.365 24.6471 157.365 24.5625C157.365 24.4844 157.401 24.3965 157.473 24.2988C157.538 24.2012 157.661 24.097 157.844 23.9863L160.373 22.5117C160.705 22.3164 161.04 22.1211 161.379 21.9258C161.717 21.7305 162.033 21.5482 162.326 21.3789C162.626 21.2096 162.893 21.0599 163.127 20.9297C163.368 20.793 163.553 20.6888 163.684 20.6172H164.943C164.969 20.6367 164.992 20.6693 165.012 20.7148C165.031 20.7604 165.041 20.8288 165.041 20.9199C165.041 21.0892 164.992 21.3301 164.895 21.6426C164.797 21.9486 164.673 22.2936 164.523 22.6777C164.38 23.0618 164.217 23.4655 164.035 23.8887C163.859 24.3053 163.693 24.7025 163.537 25.0801C163.381 25.4512 163.218 25.8223 163.049 26.1934C162.88 26.5645 162.71 26.9453 162.541 27.3359C162.717 27.3359 162.993 27.248 163.371 27.0723C163.755 26.8965 164.217 26.6589 164.758 26.3594C165.305 26.0534 165.92 25.6986 166.604 25.2949C167.294 24.8848 168.033 24.4486 168.82 23.9863C168.846 23.9603 168.895 23.9473 168.967 23.9473C169.045 23.9473 169.117 23.9733 169.182 24.0254C169.253 24.0775 169.289 24.1491 169.289 24.2402C169.289 24.3184 169.253 24.4062 169.182 24.5039C169.117 24.5951 168.996 24.6927 168.82 24.7969ZM166.125 17.1992C166.164 17.1992 166.236 17.2025 166.34 17.209C166.451 17.209 166.574 17.2155 166.711 17.2285C166.848 17.2415 166.991 17.2643 167.141 17.2969C167.29 17.3229 167.427 17.3652 167.551 17.4238C167.674 17.4759 167.779 17.5443 167.863 17.6289C167.948 17.7135 167.993 17.8177 168 17.9414L166.584 19.0156L165.939 19.3184C165.822 19.3184 165.731 19.2858 165.666 19.2207C165.601 19.1556 165.552 19.0872 165.52 19.0156L166.125 17.1992ZM182.627 21.6719C182.38 21.6719 182.07 21.7435 181.699 21.8867C181.328 22.0234 180.921 22.2155 180.479 22.4629C180.036 22.7038 179.574 22.9902 179.092 23.3223C178.617 23.6543 178.148 24.0156 177.686 24.4062C177.23 24.7969 176.794 25.2103 176.377 25.6465C175.967 26.0762 175.609 26.5091 175.303 26.9453C175.27 26.9779 175.254 27.0527 175.254 27.1699C175.254 27.2806 175.234 27.3978 175.195 27.5215C175.163 27.6452 175.094 27.7559 174.99 27.8535C174.886 27.9512 174.714 28 174.473 28C174.303 28 174.17 27.9805 174.072 27.9414C173.981 27.9023 173.91 27.8503 173.857 27.7852C173.812 27.7135 173.783 27.6322 173.77 27.541C173.757 27.4434 173.75 27.3359 173.75 27.2188C173.75 27.1016 173.783 26.929 173.848 26.7012C173.913 26.4733 173.997 26.2096 174.102 25.9102C174.206 25.6107 174.323 25.2884 174.453 24.9434C174.583 24.5983 174.714 24.2533 174.844 23.9082C174.98 23.5632 175.107 23.2279 175.225 22.9023C175.348 22.5768 175.452 22.2839 175.537 22.0234L170.82 24.7969C170.788 24.8034 170.762 24.8099 170.742 24.8164C170.716 24.8164 170.697 24.8164 170.684 24.8164C170.592 24.8164 170.527 24.7936 170.488 24.748C170.443 24.696 170.42 24.6341 170.42 24.5625C170.42 24.4714 170.456 24.3737 170.527 24.2695C170.592 24.1589 170.69 24.0645 170.82 23.9863C171.797 23.4069 172.601 22.9316 173.232 22.5605C173.87 22.1829 174.382 21.8802 174.766 21.6523C175.15 21.4245 175.436 21.2552 175.625 21.1445C175.82 21.0339 175.967 20.9525 176.064 20.9004C176.156 20.8483 176.237 20.8125 176.309 20.793C176.387 20.7734 176.471 20.7637 176.562 20.7637C176.751 20.7637 176.904 20.819 177.021 20.9297C177.145 21.0404 177.207 21.1641 177.207 21.3008C177.207 21.4375 177.165 21.6263 177.08 21.8672C176.995 22.1016 176.891 22.3587 176.768 22.6387C176.644 22.9186 176.517 23.2051 176.387 23.498C176.257 23.7845 176.146 24.0514 176.055 24.2988C176.016 24.3965 175.983 24.4779 175.957 24.543C175.938 24.6016 175.911 24.6699 175.879 24.748C175.853 24.8262 175.814 24.9271 175.762 25.0508C175.71 25.168 175.635 25.334 175.537 25.5488C175.811 25.1973 176.13 24.8294 176.494 24.4453C176.865 24.0612 177.266 23.6868 177.695 23.3223C178.132 22.9512 178.594 22.5996 179.082 22.2676C179.577 21.9355 180.085 21.6458 180.605 21.3984C181.133 21.1445 181.67 20.946 182.217 20.8027C182.764 20.653 183.307 20.5781 183.848 20.5781C184.18 20.5781 184.408 20.6497 184.531 20.793C184.661 20.9297 184.727 21.1185 184.727 21.3594C184.727 21.5547 184.691 21.7923 184.619 22.0723C184.548 22.3522 184.45 22.6582 184.326 22.9902C184.202 23.3158 184.062 23.6673 183.906 24.0449C183.75 24.416 183.584 24.7936 183.408 25.1777C183.239 25.5553 183.066 25.9362 182.891 26.3203C182.721 26.7044 182.562 27.0723 182.412 27.4238C182.783 27.2741 183.171 27.0788 183.574 26.8379C183.978 26.597 184.408 26.3268 184.863 26.0273C185.326 25.7279 185.811 25.4056 186.318 25.0605C186.833 24.709 187.383 24.3509 187.969 23.9863C188.014 23.9603 188.076 23.9473 188.154 23.9473C188.311 23.9473 188.389 24.0352 188.389 24.2109C188.389 24.3021 188.353 24.403 188.281 24.5137C188.21 24.6178 188.105 24.7122 187.969 24.7969C187.194 25.2786 186.494 25.7376 185.869 26.1738C185.244 26.61 184.671 26.9974 184.15 27.3359C183.636 27.6745 183.164 27.9414 182.734 28.1367C182.311 28.3385 181.917 28.4395 181.553 28.4395C181.331 28.4395 181.143 28.4102 180.986 28.3516C180.83 28.2995 180.7 28.2279 180.596 28.1367C180.498 28.0456 180.423 27.9382 180.371 27.8145C180.326 27.6842 180.303 27.5508 180.303 27.4141C180.303 27.2643 180.332 27.1178 180.391 26.9746C180.456 26.8249 180.544 26.6654 180.654 26.4961C180.856 26.0534 181.081 25.5911 181.328 25.1094C181.576 24.6211 181.803 24.1589 182.012 23.7227C182.22 23.2865 182.396 22.8991 182.539 22.5605C182.682 22.222 182.754 21.9779 182.754 21.8281C182.754 21.724 182.712 21.6719 182.627 21.6719ZM200.545 14.377C200.174 14.377 199.822 14.4551 199.49 14.6113C199.158 14.7676 198.842 14.9824 198.543 15.2559C198.25 15.5293 197.973 15.8548 197.713 16.2324C197.452 16.61 197.208 17.0169 196.98 17.4531C196.753 17.8893 196.541 18.3483 196.346 18.8301C196.157 19.3118 195.984 19.7969 195.828 20.2852C196.707 19.6536 197.479 19.0547 198.143 18.4883C198.807 17.9219 199.363 17.4043 199.812 16.9355C200.262 16.4668 200.597 16.0534 200.818 15.6953C201.046 15.3307 201.16 15.0345 201.16 14.8066C201.16 14.6764 201.118 14.5723 201.033 14.4941C200.955 14.416 200.792 14.377 200.545 14.377ZM201.531 20.1387C201.688 20.2168 201.766 20.3112 201.766 20.4219C201.766 20.5911 201.701 20.7474 201.57 20.8906C201.447 21.0339 201.281 21.1641 201.072 21.2812C200.87 21.3919 200.639 21.4896 200.379 21.5742C200.125 21.6589 199.868 21.7305 199.607 21.7891C199.354 21.8477 199.109 21.8932 198.875 21.9258C198.615 21.9583 198.419 21.9714 198.289 21.9648C197.781 21.9518 197.28 21.9421 196.785 21.9355L195.35 21.916C195.154 22.6452 195.001 23.2702 194.891 23.791C194.78 24.3053 194.695 24.7546 194.637 25.1387C194.585 25.5163 194.552 25.8451 194.539 26.125C194.526 26.4049 194.52 26.6751 194.52 26.9355C194.52 27.0788 194.539 27.1927 194.578 27.2773C194.617 27.362 194.682 27.4043 194.773 27.4043C195.092 27.4043 195.444 27.2969 195.828 27.082C196.219 26.8672 196.655 26.5938 197.137 26.2617L198.758 25.1582C199.643 24.5527 200.307 24.1621 200.75 23.9863C200.783 23.9733 200.848 23.944 200.945 23.8984C200.997 23.8789 201.046 23.8691 201.092 23.8691C201.235 23.8691 201.307 23.944 201.307 24.0938C201.307 24.1914 201.264 24.3053 201.18 24.4355C201.089 24.5592 200.945 24.6797 200.75 24.7969C199.754 25.3958 199.018 25.8646 198.543 26.2031L196.873 27.4141C196.378 27.7656 195.926 28.0456 195.516 28.2539C195.099 28.4622 194.679 28.5664 194.256 28.5664C193.891 28.5664 193.608 28.4688 193.406 28.2734C193.211 28.0781 193.064 27.8405 192.967 27.5605C192.876 27.2741 192.82 26.9681 192.801 26.6426C192.781 26.3171 192.771 26.0273 192.771 25.7734C192.771 25.2786 192.798 24.7871 192.85 24.2988C192.908 23.8105 192.983 23.3418 193.074 22.8926L191.541 23.8594L189.969 24.7969C189.936 24.8164 189.9 24.8262 189.861 24.8262C189.79 24.8262 189.721 24.7969 189.656 24.7383C189.591 24.6732 189.559 24.5951 189.559 24.5039C189.559 24.4323 189.588 24.3509 189.646 24.2598C189.705 24.1686 189.812 24.0775 189.969 23.9863L191.697 23C192.244 22.6745 192.771 22.3457 193.279 22.0137L193.299 21.9258L192.049 21.9551C191.984 21.9551 191.922 21.9583 191.863 21.9648C191.805 21.9714 191.749 21.9746 191.697 21.9746C191.587 21.9746 191.495 21.9421 191.424 21.877C191.359 21.8053 191.32 21.7272 191.307 21.6426C191.307 21.571 191.362 21.5026 191.473 21.4375C191.583 21.3724 191.74 21.3138 191.941 21.2617C192.143 21.2031 192.384 21.151 192.664 21.1055C192.944 21.0534 193.253 21.0078 193.592 20.9688C193.982 19.7448 194.406 18.6836 194.861 17.7852C195.317 16.8867 195.828 16.1445 196.395 15.5586C196.967 14.9727 197.605 14.5365 198.309 14.25C199.012 13.9635 199.806 13.8203 200.691 13.8203C201.102 13.8203 201.398 13.8854 201.58 14.0156C201.769 14.1393 201.863 14.3151 201.863 14.543C201.863 14.8555 201.723 15.2331 201.443 15.6758C201.17 16.1185 200.783 16.61 200.281 17.1504C199.786 17.6842 199.191 18.2539 198.494 18.8594C197.804 19.4583 197.039 20.0736 196.199 20.7051C196.616 20.666 197.039 20.6302 197.469 20.5977L198.738 20.4902C199.155 20.4577 199.562 20.4219 199.959 20.3828C200.363 20.3438 200.747 20.3014 201.111 20.2559C201.183 20.2363 201.235 20.2103 201.268 20.1777C201.3 20.1387 201.355 20.1191 201.434 20.1191C201.46 20.1191 201.492 20.1257 201.531 20.1387ZM202.75 24.7969C202.685 24.8424 202.61 24.8652 202.525 24.8652C202.441 24.8652 202.372 24.8424 202.32 24.7969C202.268 24.7448 202.242 24.6797 202.242 24.6016C202.242 24.5169 202.281 24.4225 202.359 24.3184C202.431 24.2077 202.561 24.097 202.75 23.9863L205.221 22.5312C205.403 22.0169 205.637 21.5742 205.924 21.2031C206.217 20.8255 206.536 20.5163 206.881 20.2754C207.232 20.028 207.597 19.8457 207.975 19.7285C208.359 19.6048 208.73 19.543 209.088 19.543C209.452 19.543 209.752 19.6406 209.986 19.8359C210.227 20.0247 210.348 20.321 210.348 20.7246C210.348 20.972 210.257 21.2324 210.074 21.5059C209.898 21.7728 209.654 22.0397 209.342 22.3066C209.036 22.5671 208.674 22.8112 208.258 23.0391C207.841 23.2669 207.398 23.459 206.93 23.6152C206.93 23.9277 206.923 24.224 206.91 24.5039C206.904 24.7839 206.9 25.0475 206.9 25.2949C206.9 25.5033 206.907 25.6953 206.92 25.8711C206.933 26.0404 206.959 26.1868 206.998 26.3105C207.044 26.4277 207.102 26.5221 207.174 26.5938C207.252 26.6589 207.35 26.6914 207.467 26.6914C207.649 26.6914 207.867 26.6198 208.121 26.4766C208.382 26.3268 208.707 26.138 209.098 25.9102C209.449 25.7018 209.898 25.4414 210.445 25.1289C210.992 24.8164 211.66 24.4355 212.447 23.9863C212.473 23.9668 212.509 23.957 212.555 23.957C212.626 23.957 212.688 23.9896 212.74 24.0547C212.799 24.1133 212.828 24.1882 212.828 24.2793C212.828 24.3574 212.799 24.4421 212.74 24.5332C212.688 24.6243 212.59 24.7122 212.447 24.7969C211.803 25.181 211.178 25.5716 210.572 25.9688C209.967 26.3594 209.394 26.7174 208.854 27.043C208.32 27.362 207.825 27.6257 207.369 27.834C206.913 28.0358 206.516 28.1367 206.178 28.1367C205.95 28.1367 205.748 28.0879 205.572 27.9902C205.403 27.8926 205.257 27.7363 205.133 27.5215C205.016 27.3066 204.924 27.0267 204.859 26.6816C204.801 26.3301 204.771 25.9036 204.771 25.4023C204.771 25.3242 204.775 25.2005 204.781 25.0312C204.794 24.8555 204.811 24.6699 204.83 24.4746C204.856 24.2728 204.885 24.0775 204.918 23.8887C204.951 23.6999 204.99 23.5534 205.035 23.4492C204.99 23.4753 204.921 23.5143 204.83 23.5664C204.745 23.6185 204.645 23.6803 204.527 23.752C204.41 23.8171 204.286 23.8887 204.156 23.9668C204.026 24.0449 203.896 24.123 203.766 24.2012L202.75 24.7969ZM209.293 20.8027C209.306 20.7637 209.312 20.7214 209.312 20.6758C209.312 20.513 209.283 20.3926 209.225 20.3145C209.173 20.2363 209.081 20.1973 208.951 20.1973C208.801 20.1973 208.629 20.2559 208.434 20.373C208.238 20.4837 208.046 20.6497 207.857 20.8711C207.675 21.0924 207.509 21.3691 207.359 21.7012C207.216 22.0332 207.118 22.4141 207.066 22.8438C207.333 22.707 207.594 22.5508 207.848 22.375C208.102 22.1927 208.329 22.0104 208.531 21.8281C208.74 21.6393 208.909 21.457 209.039 21.2812C209.176 21.099 209.26 20.9395 209.293 20.8027ZM225.404 20.959C225.404 21.1217 225.375 21.3138 225.316 21.5352C225.258 21.75 225.183 21.9811 225.092 22.2285C225.001 22.4694 224.903 22.7168 224.799 22.9707C224.695 23.2246 224.597 23.472 224.506 23.7129C224.415 23.9473 224.34 24.1686 224.281 24.377C224.223 24.5853 224.193 24.7611 224.193 24.9043C224.193 25.028 224.219 25.1257 224.271 25.1973C224.33 25.2689 224.421 25.3047 224.545 25.3047C224.636 25.3047 224.763 25.2721 224.926 25.207C225.095 25.1354 225.29 25.041 225.512 24.9238C225.74 24.8001 225.987 24.6602 226.254 24.5039C226.527 24.3411 226.814 24.1686 227.113 23.9863C227.178 23.9473 227.243 23.9277 227.309 23.9277C227.38 23.9277 227.442 23.9538 227.494 24.0059C227.553 24.0579 227.582 24.123 227.582 24.2012C227.582 24.2858 227.546 24.377 227.475 24.4746C227.403 24.5658 227.283 24.6732 227.113 24.7969C226.267 25.4284 225.492 25.9167 224.789 26.2617C224.092 26.6068 223.536 26.7793 223.119 26.7793C222.781 26.7793 222.514 26.7272 222.318 26.623C222.123 26.5189 222.025 26.3561 222.025 26.1348C222.025 25.9264 222.113 25.6628 222.289 25.3438C222.471 25.0247 222.768 24.6471 223.178 24.2109C223.334 23.9505 223.458 23.6673 223.549 23.3613C223.64 23.0488 223.705 22.7461 223.744 22.4531C223.79 22.1536 223.819 21.8802 223.832 21.6328C223.845 21.3789 223.852 21.1771 223.852 21.0273C223.852 20.7799 223.809 20.5911 223.725 20.4609C223.646 20.3242 223.513 20.2559 223.324 20.2559C223.116 20.2559 222.911 20.3503 222.709 20.5391C222.514 20.7214 222.315 20.9753 222.113 21.3008C221.918 21.6263 221.723 22.0104 221.527 22.4531C221.332 22.8958 221.13 23.3743 220.922 23.8887C220.72 24.403 220.512 24.9401 220.297 25.5C220.082 26.0599 219.857 26.623 219.623 27.1895C219.584 27.3001 219.535 27.4141 219.477 27.5312C219.418 27.6484 219.35 27.7591 219.271 27.8633C219.2 27.9609 219.115 28.0423 219.018 28.1074C218.926 28.1725 218.829 28.2051 218.725 28.2051C218.477 28.2051 218.292 28.1497 218.168 28.0391C218.044 27.9284 217.982 27.7461 217.982 27.4922C217.982 27.4206 217.986 27.3457 217.992 27.2676C218.005 27.1895 218.038 27.0983 218.09 26.9941L219.975 23.2148C220.222 22.5768 220.486 22.0495 220.766 21.6328C221.052 21.2161 221.309 20.8809 221.537 20.627C221.003 20.946 220.469 21.265 219.936 21.584C219.402 21.903 218.887 22.2122 218.393 22.5117C217.898 22.8047 217.429 23.0846 216.986 23.3516C216.55 23.612 216.16 23.8431 215.814 24.0449C215.469 24.2467 215.18 24.4128 214.945 24.543C214.711 24.6732 214.548 24.7578 214.457 24.7969C214.405 24.8294 214.35 24.8457 214.291 24.8457C214.219 24.8457 214.161 24.8197 214.115 24.7676C214.063 24.7155 214.037 24.6471 214.037 24.5625C214.037 24.4714 214.07 24.3737 214.135 24.2695C214.193 24.1589 214.301 24.0579 214.457 23.9668L217.064 22.4434C217.403 22.2415 217.745 22.0397 218.09 21.8379C218.435 21.6296 218.757 21.4375 219.057 21.2617C219.363 21.0859 219.633 20.9297 219.867 20.793C220.102 20.6562 220.281 20.5521 220.404 20.4805C220.717 20.2982 221.02 20.1419 221.312 20.0117C221.612 19.8815 221.908 19.7741 222.201 19.6895C222.494 19.6048 222.79 19.5397 223.09 19.4941C223.396 19.4486 223.715 19.416 224.047 19.3965C224.19 19.3965 224.34 19.4421 224.496 19.5332C224.659 19.6178 224.805 19.735 224.936 19.8848C225.072 20.028 225.183 20.194 225.268 20.3828C225.359 20.5651 225.404 20.7572 225.404 20.959ZM240.061 20.959C240.061 21.1217 240.031 21.3138 239.973 21.5352C239.914 21.75 239.839 21.9811 239.748 22.2285C239.657 22.4694 239.559 22.7168 239.455 22.9707C239.351 23.2246 239.253 23.472 239.162 23.7129C239.071 23.9473 238.996 24.1686 238.938 24.377C238.879 24.5853 238.85 24.7611 238.85 24.9043C238.85 25.028 238.876 25.1257 238.928 25.1973C238.986 25.2689 239.077 25.3047 239.201 25.3047C239.292 25.3047 239.419 25.2721 239.582 25.207C239.751 25.1354 239.947 25.041 240.168 24.9238C240.396 24.8001 240.643 24.6602 240.91 24.5039C241.184 24.3411 241.47 24.1686 241.77 23.9863C241.835 23.9473 241.9 23.9277 241.965 23.9277C242.036 23.9277 242.098 23.9538 242.15 24.0059C242.209 24.0579 242.238 24.123 242.238 24.2012C242.238 24.2858 242.202 24.377 242.131 24.4746C242.059 24.5658 241.939 24.6732 241.77 24.7969C240.923 25.4284 240.148 25.9167 239.445 26.2617C238.749 26.6068 238.192 26.7793 237.775 26.7793C237.437 26.7793 237.17 26.7272 236.975 26.623C236.779 26.5189 236.682 26.3561 236.682 26.1348C236.682 25.9264 236.77 25.6628 236.945 25.3438C237.128 25.0247 237.424 24.6471 237.834 24.2109C237.99 23.9505 238.114 23.6673 238.205 23.3613C238.296 23.0488 238.361 22.7461 238.4 22.4531C238.446 22.1536 238.475 21.8802 238.488 21.6328C238.501 21.3789 238.508 21.1771 238.508 21.0273C238.508 20.7799 238.465 20.5911 238.381 20.4609C238.303 20.3242 238.169 20.2559 237.98 20.2559C237.772 20.2559 237.567 20.3503 237.365 20.5391C237.17 20.7214 236.971 20.9753 236.77 21.3008C236.574 21.6263 236.379 22.0104 236.184 22.4531C235.988 22.8958 235.786 23.3743 235.578 23.8887C235.376 24.403 235.168 24.9401 234.953 25.5C234.738 26.0599 234.514 26.623 234.279 27.1895C234.24 27.3001 234.191 27.4141 234.133 27.5312C234.074 27.6484 234.006 27.7591 233.928 27.8633C233.856 27.9609 233.771 28.0423 233.674 28.1074C233.583 28.1725 233.485 28.2051 233.381 28.2051C233.133 28.2051 232.948 28.1497 232.824 28.0391C232.701 27.9284 232.639 27.7461 232.639 27.4922C232.639 27.4206 232.642 27.3457 232.648 27.2676C232.661 27.1895 232.694 27.0983 232.746 26.9941L234.631 23.2148C234.878 22.5768 235.142 22.0495 235.422 21.6328C235.708 21.2161 235.965 20.8809 236.193 20.627C235.66 20.946 235.126 21.265 234.592 21.584C234.058 21.903 233.544 22.2122 233.049 22.5117C232.554 22.8047 232.085 23.0846 231.643 23.3516C231.206 23.612 230.816 23.8431 230.471 24.0449C230.126 24.2467 229.836 24.4128 229.602 24.543C229.367 24.6732 229.204 24.7578 229.113 24.7969C229.061 24.8294 229.006 24.8457 228.947 24.8457C228.876 24.8457 228.817 24.8197 228.771 24.7676C228.719 24.7155 228.693 24.6471 228.693 24.5625C228.693 24.4714 228.726 24.3737 228.791 24.2695C228.85 24.1589 228.957 24.0579 229.113 23.9668L231.721 22.4434C232.059 22.2415 232.401 22.0397 232.746 21.8379C233.091 21.6296 233.413 21.4375 233.713 21.2617C234.019 21.0859 234.289 20.9297 234.523 20.793C234.758 20.6562 234.937 20.5521 235.061 20.4805C235.373 20.2982 235.676 20.1419 235.969 20.0117C236.268 19.8815 236.564 19.7741 236.857 19.6895C237.15 19.6048 237.447 19.5397 237.746 19.4941C238.052 19.4486 238.371 19.416 238.703 19.3965C238.846 19.3965 238.996 19.4421 239.152 19.5332C239.315 19.6178 239.462 19.735 239.592 19.8848C239.729 20.028 239.839 20.194 239.924 20.3828C240.015 20.5651 240.061 20.7572 240.061 20.959ZM254.746 24.7969C253.737 25.3763 252.881 25.8809 252.178 26.3105C251.475 26.7337 250.876 27.0853 250.381 27.3652C249.886 27.6387 249.466 27.8438 249.121 27.9805C248.783 28.1107 248.473 28.1758 248.193 28.1758C247.92 28.1758 247.686 28.1432 247.49 28.0781C247.301 28.013 247.145 27.9251 247.021 27.8145C246.898 27.7038 246.807 27.5703 246.748 27.4141C246.696 27.2578 246.67 27.0885 246.67 26.9062C246.67 26.7695 246.699 26.6296 246.758 26.4863C246.816 26.3431 246.888 26.1966 246.973 26.0469C247.064 25.8971 247.158 25.7409 247.256 25.5781C247.354 25.4089 247.445 25.2298 247.529 25.041L249.014 21.7207L243.77 24.7969C243.685 24.8294 243.626 24.8457 243.594 24.8457C243.516 24.8457 243.447 24.8197 243.389 24.7676C243.324 24.7155 243.291 24.6471 243.291 24.5625C243.291 24.4844 243.327 24.3965 243.398 24.2988C243.464 24.2012 243.587 24.097 243.77 23.9863L246.299 22.5117C246.631 22.3164 246.966 22.1211 247.305 21.9258C247.643 21.7305 247.959 21.5482 248.252 21.3789C248.551 21.2096 248.818 21.0599 249.053 20.9297C249.294 20.793 249.479 20.6888 249.609 20.6172H250.869C250.895 20.6367 250.918 20.6693 250.938 20.7148C250.957 20.7604 250.967 20.8288 250.967 20.9199C250.967 21.0892 250.918 21.3301 250.82 21.6426C250.723 21.9486 250.599 22.2936 250.449 22.6777C250.306 23.0618 250.143 23.4655 249.961 23.8887C249.785 24.3053 249.619 24.7025 249.463 25.0801C249.307 25.4512 249.144 25.8223 248.975 26.1934C248.805 26.5645 248.636 26.9453 248.467 27.3359C248.643 27.3359 248.919 27.248 249.297 27.0723C249.681 26.8965 250.143 26.6589 250.684 26.3594C251.23 26.0534 251.846 25.6986 252.529 25.2949C253.219 24.8848 253.958 24.4486 254.746 23.9863C254.772 23.9603 254.821 23.9473 254.893 23.9473C254.971 23.9473 255.042 23.9733 255.107 24.0254C255.179 24.0775 255.215 24.1491 255.215 24.2402C255.215 24.3184 255.179 24.4062 255.107 24.5039C255.042 24.5951 254.922 24.6927 254.746 24.7969ZM252.051 17.1992C252.09 17.1992 252.161 17.2025 252.266 17.209C252.376 17.209 252.5 17.2155 252.637 17.2285C252.773 17.2415 252.917 17.2643 253.066 17.2969C253.216 17.3229 253.353 17.3652 253.477 17.4238C253.6 17.4759 253.704 17.5443 253.789 17.6289C253.874 17.7135 253.919 17.8177 253.926 17.9414L252.51 19.0156L251.865 19.3184C251.748 19.3184 251.657 19.2858 251.592 19.2207C251.527 19.1556 251.478 19.0872 251.445 19.0156L252.051 17.1992ZM265.916 20.0605C266.287 20.0605 266.616 20.1354 266.902 20.2852C267.195 20.4349 267.439 20.64 267.635 20.9004C267.837 21.1543 267.99 21.4538 268.094 21.7988C268.198 22.1439 268.25 22.5117 268.25 22.9023C268.25 23.1302 268.224 23.3809 268.172 23.6543C268.12 23.9277 268.045 24.2109 267.947 24.5039C267.85 24.7904 267.729 25.0768 267.586 25.3633C267.449 25.6497 267.296 25.9134 267.127 26.1543C267.251 26.0892 267.4 26.0078 267.576 25.9102C267.752 25.8125 267.938 25.7083 268.133 25.5977C268.335 25.4805 268.543 25.36 268.758 25.2363C268.979 25.1126 269.194 24.9922 269.402 24.875L270.916 23.9863C270.962 23.9603 271.023 23.9473 271.102 23.9473C271.251 23.9473 271.326 24.0254 271.326 24.1816C271.326 24.3965 271.189 24.6016 270.916 24.7969C270.682 24.9531 270.376 25.1484 269.998 25.3828C269.62 25.6172 269.21 25.8483 268.768 26.0762C268.331 26.2975 267.885 26.4961 267.43 26.6719C266.98 26.8411 266.561 26.9388 266.17 26.9648C265.662 27.3424 265.066 27.6484 264.383 27.8828C263.699 28.1107 262.902 28.2246 261.99 28.2246C261.541 28.2246 261.16 28.1855 260.848 28.1074C260.542 28.0293 260.294 27.9154 260.105 27.7656C259.917 27.6159 259.78 27.4336 259.695 27.2188C259.611 26.9974 259.568 26.7435 259.568 26.457C259.568 26.0404 259.653 25.5944 259.822 25.1191C259.992 24.6439 260.2 24.1816 260.447 23.7324C260.701 23.2767 260.971 22.8535 261.258 22.4629C261.544 22.0723 261.805 21.75 262.039 21.4961C261.831 21.6784 261.535 21.8965 261.15 22.1504C260.773 22.4043 260.343 22.6777 259.861 22.9707C259.386 23.2572 258.878 23.5566 258.338 23.8691C257.804 24.1816 257.273 24.4909 256.746 24.7969C256.668 24.8294 256.596 24.8457 256.531 24.8457C256.447 24.8457 256.382 24.8229 256.336 24.7773C256.29 24.7253 256.268 24.6602 256.268 24.582C256.268 24.4909 256.307 24.3965 256.385 24.2988C256.456 24.1947 256.577 24.0905 256.746 23.9863C257.736 23.4069 258.579 22.9089 259.275 22.4922C259.972 22.069 260.574 21.7109 261.082 21.418C261.59 21.125 262.033 20.8906 262.41 20.7148C262.788 20.5391 263.149 20.4023 263.494 20.3047C263.846 20.207 264.21 20.1419 264.588 20.1094C264.965 20.0768 265.408 20.0605 265.916 20.0605ZM262.01 27.3848C262.42 27.3848 262.82 27.3001 263.211 27.1309C263.602 26.9616 263.982 26.7305 264.354 26.4375C264.269 26.3398 264.21 26.2292 264.178 26.1055C264.145 25.9818 264.129 25.8548 264.129 25.7246C264.129 25.4967 264.204 25.3275 264.354 25.2168C264.503 25.0996 264.682 25.041 264.891 25.041C265.112 25.041 265.327 25.1061 265.535 25.2363C265.743 25.0866 265.942 24.9076 266.131 24.6992C266.32 24.4909 266.482 24.2695 266.619 24.0352C266.762 23.8008 266.873 23.5599 266.951 23.3125C267.036 23.0651 267.078 22.8242 267.078 22.5898C267.078 22.388 267.039 22.196 266.961 22.0137C266.889 21.8249 266.769 21.6621 266.6 21.5254C266.437 21.3887 266.219 21.2812 265.945 21.2031C265.678 21.1185 265.353 21.0762 264.969 21.0762C264.65 21.0762 264.331 21.1608 264.012 21.3301C263.699 21.4993 263.396 21.7272 263.104 22.0137C262.817 22.2936 262.547 22.6159 262.293 22.9805C262.046 23.3385 261.831 23.7096 261.648 24.0938C261.466 24.4779 261.323 24.8555 261.219 25.2266C261.115 25.5977 261.062 25.9362 261.062 26.2422C261.062 26.5807 261.137 26.8574 261.287 27.0723C261.437 27.2806 261.678 27.3848 262.01 27.3848ZM283.873 20.959C283.873 21.1217 283.844 21.3138 283.785 21.5352C283.727 21.75 283.652 21.9811 283.561 22.2285C283.469 22.4694 283.372 22.7168 283.268 22.9707C283.163 23.2246 283.066 23.472 282.975 23.7129C282.883 23.9473 282.809 24.1686 282.75 24.377C282.691 24.5853 282.662 24.7611 282.662 24.9043C282.662 25.028 282.688 25.1257 282.74 25.1973C282.799 25.2689 282.89 25.3047 283.014 25.3047C283.105 25.3047 283.232 25.2721 283.395 25.207C283.564 25.1354 283.759 25.041 283.98 24.9238C284.208 24.8001 284.456 24.6602 284.723 24.5039C284.996 24.3411 285.283 24.1686 285.582 23.9863C285.647 23.9473 285.712 23.9277 285.777 23.9277C285.849 23.9277 285.911 23.9538 285.963 24.0059C286.021 24.0579 286.051 24.123 286.051 24.2012C286.051 24.2858 286.015 24.377 285.943 24.4746C285.872 24.5658 285.751 24.6732 285.582 24.7969C284.736 25.4284 283.961 25.9167 283.258 26.2617C282.561 26.6068 282.005 26.7793 281.588 26.7793C281.249 26.7793 280.982 26.7272 280.787 26.623C280.592 26.5189 280.494 26.3561 280.494 26.1348C280.494 25.9264 280.582 25.6628 280.758 25.3438C280.94 25.0247 281.236 24.6471 281.646 24.2109C281.803 23.9505 281.926 23.6673 282.018 23.3613C282.109 23.0488 282.174 22.7461 282.213 22.4531C282.258 22.1536 282.288 21.8802 282.301 21.6328C282.314 21.3789 282.32 21.1771 282.32 21.0273C282.32 20.7799 282.278 20.5911 282.193 20.4609C282.115 20.3242 281.982 20.2559 281.793 20.2559C281.585 20.2559 281.38 20.3503 281.178 20.5391C280.982 20.7214 280.784 20.9753 280.582 21.3008C280.387 21.6263 280.191 22.0104 279.996 22.4531C279.801 22.8958 279.599 23.3743 279.391 23.8887C279.189 24.403 278.98 24.9401 278.766 25.5C278.551 26.0599 278.326 26.623 278.092 27.1895C278.053 27.3001 278.004 27.4141 277.945 27.5312C277.887 27.6484 277.818 27.7591 277.74 27.8633C277.669 27.9609 277.584 28.0423 277.486 28.1074C277.395 28.1725 277.298 28.2051 277.193 28.2051C276.946 28.2051 276.76 28.1497 276.637 28.0391C276.513 27.9284 276.451 27.7461 276.451 27.4922C276.451 27.4206 276.454 27.3457 276.461 27.2676C276.474 27.1895 276.507 27.0983 276.559 26.9941L278.443 23.2148C278.691 22.5768 278.954 22.0495 279.234 21.6328C279.521 21.2161 279.778 20.8809 280.006 20.627C279.472 20.946 278.938 21.265 278.404 21.584C277.87 21.903 277.356 22.2122 276.861 22.5117C276.367 22.8047 275.898 23.0846 275.455 23.3516C275.019 23.612 274.628 23.8431 274.283 24.0449C273.938 24.2467 273.648 24.4128 273.414 24.543C273.18 24.6732 273.017 24.7578 272.926 24.7969C272.874 24.8294 272.818 24.8457 272.76 24.8457C272.688 24.8457 272.63 24.8197 272.584 24.7676C272.532 24.7155 272.506 24.6471 272.506 24.5625C272.506 24.4714 272.538 24.3737 272.604 24.2695C272.662 24.1589 272.77 24.0579 272.926 23.9668L275.533 22.4434C275.872 22.2415 276.214 22.0397 276.559 21.8379C276.904 21.6296 277.226 21.4375 277.525 21.2617C277.831 21.0859 278.102 20.9297 278.336 20.793C278.57 20.6562 278.749 20.5521 278.873 20.4805C279.186 20.2982 279.488 20.1419 279.781 20.0117C280.081 19.8815 280.377 19.7741 280.67 19.6895C280.963 19.6048 281.259 19.5397 281.559 19.4941C281.865 19.4486 282.184 19.416 282.516 19.3965C282.659 19.3965 282.809 19.4421 282.965 19.5332C283.128 19.6178 283.274 19.735 283.404 19.8848C283.541 20.028 283.652 20.194 283.736 20.3828C283.827 20.5651 283.873 20.7572 283.873 20.959Z" fill="#C8B091"/>
</svg>
