<svg width="22" height="13" viewBox="0 0 22 13" fill="none" xmlns="http://www.w3.org/2000/svg">
<path fill-rule="evenodd" clip-rule="evenodd" d="M18.9341 7.91603C19.6639 8.62852 20.4342 9.29887 21.0887 10.0832C21.3778 10.4318 21.6515 10.7914 21.8609 11.1959C22.1577 11.7709 21.8889 12.4037 21.3733 12.438L18.1683 12.4366C17.3417 12.5052 16.6822 12.1724 16.1278 11.6072C15.684 11.1552 15.2731 10.6742 14.8464 10.207C14.6715 10.016 14.4884 9.83629 14.2697 9.69426C13.8321 9.41026 13.4524 9.49722 13.2023 9.95354C12.9477 10.4177 12.8899 10.9316 12.8649 11.4489C12.8306 12.2036 12.6024 12.402 11.8443 12.4365C10.2242 12.5129 8.6866 12.2678 7.25822 11.4505C5.99891 10.73 5.02236 9.71283 4.17239 8.5613C2.51748 6.31901 1.25014 3.85511 0.111107 1.32217C-0.14528 0.751497 0.0422219 0.445163 0.671878 0.43432C1.71745 0.414009 2.76288 0.415455 3.80968 0.432875C4.23463 0.439091 4.51595 0.682828 4.68003 1.08429C5.24572 2.47523 5.9379 3.79858 6.80674 5.02522C7.03812 5.35179 7.27405 5.67837 7.61002 5.90823C7.9817 6.16273 8.26468 6.07838 8.43954 5.66435C8.55049 5.40181 8.59906 5.11904 8.62407 4.83786C8.70691 3.8705 8.71782 2.9048 8.57254 1.94084C8.48334 1.33923 8.14448 0.949769 7.54417 0.835924C7.23783 0.777881 7.28344 0.663891 7.43177 0.489039C7.68938 0.187475 7.93168 -0.000244141 8.41467 -0.000244141H12.0368C12.6071 0.1123 12.7337 0.368471 12.8118 0.942252L12.8149 4.96573C12.8087 5.18786 12.9258 5.847 13.3259 5.99403C13.6461 6.09869 13.8572 5.84252 14.0493 5.63948C14.9166 4.71903 15.5355 3.63125 16.0885 2.50486C16.3339 2.00958 16.5449 1.49522 16.7494 0.981285C16.9009 0.59992 17.1386 0.412274 17.5682 0.420586L21.0543 0.423695C21.1577 0.423695 21.2623 0.425213 21.3624 0.442344C21.9498 0.542455 22.1108 0.795156 21.9294 1.36879C21.6435 2.26879 21.0873 3.01879 20.5434 3.77227C19.9621 4.5767 19.3403 5.3536 18.7638 6.16281C18.2341 6.90175 18.2761 7.27423 18.9341 7.91603Z" fill="#C8B091"/>
</svg>
