<svg width="16" height="16" viewBox="0 0 16 16" fill="none" xmlns="http://www.w3.org/2000/svg">
<path d="M14.2516 6.75023H4.76408L8.88908 2.63773C9.12446 2.40235 9.25669 2.08311 9.25669 1.75023C9.25669 1.41735 9.12446 1.09811 8.88908 0.862732C8.6537 0.627352 8.33446 0.495117 8.00158 0.495117C7.6687 0.495117 7.34946 0.627352 7.11408 0.862732L0.864079 7.11273C0.750279 7.23161 0.661072 7.37179 0.601579 7.52523C0.476557 7.82956 0.476557 8.17091 0.601579 8.47523C0.661072 8.62867 0.750279 8.76885 0.864079 8.88773L7.11408 15.1377C7.23028 15.2549 7.36853 15.3479 7.52086 15.4113C7.67318 15.4748 7.83656 15.5075 8.00158 15.5075C8.16659 15.5075 8.32998 15.4748 8.4823 15.4113C8.63462 15.3479 8.77288 15.2549 8.88908 15.1377C9.00624 15.0215 9.09923 14.8833 9.16269 14.731C9.22615 14.5786 9.25883 14.4152 9.25883 14.2502C9.25883 14.0852 9.22615 13.9218 9.16269 13.7695C9.09923 13.6172 9.00624 13.4789 8.88908 13.3627L4.76408 9.25023H14.2516C14.5831 9.25023 14.901 9.11854 15.1355 8.88412C15.3699 8.64969 15.5016 8.33175 15.5016 8.00023C15.5016 7.66871 15.3699 7.35077 15.1355 7.11635C14.901 6.88193 14.5831 6.75023 14.2516 6.75023Z" fill="#4A8AB8"/>
</svg>
