<svg width="100%" height="100%" viewBox="0 0 450 300" version="1.1" id="prefix__svg1" xml:space="preserve"
    xmlns:xlink="http://www.w3.org/1999/xlink" xmlns="http://www.w3.org/2000/svg">
    <style id="style1">
        @keyframes legs3_tr {

            0%,
            25%,
            50% {
                transform-origin: 79.589916px 55.153449px;
                animation-timing-function: cubic-bezier(.645, .045, .355, 1);
                transform: rotate(0deg)
            }

            75% {
                transform-origin: 79.589916px 55.153449px;
                animation-timing-function: cubic-bezier(.645, .045, .355, 1);
                transform: rotate(-50deg)
            }

            to {
                transform-origin: 86.793192px 57.963619px;
                animation-timing-function: cubic-bezier(.645, .045, .355, 1);
                transform: rotate(0deg)
            }
        }

        @keyframes legs2_tr {

            0%,
            50%,
            75% {
                transform-origin: 72.920615px 57.914185px;
                animation-timing-function: cubic-bezier(.645, .045, .355, 1);
                transform: rotate(0deg)
            }

            25% {
                transform-origin: 72.920615px 57.914185px;
                animation-timing-function: cubic-bezier(.645, .045, .355, 1);
                transform: rotate(-60deg)
            }

            to {
                transform-origin: 82.674607px 51.463363px;
                animation-timing-function: cubic-bezier(.645, .045, .355, 1);
                transform: rotate(0deg)
            }
        }

        @keyframes wingr_tr {

            0%,
            66% {
                transform-origin: 68.897175px 36.339214px;
                animation-timing-function: cubic-bezier(.645, .045, .355, 1);
                transform: rotate(0deg)
            }

            33% {
                transform-origin: 68.897175px 36.339214px;
                animation-timing-function: cubic-bezier(.645, .045, .355, 1);
                transform: rotate(-30deg)
            }

            to {
                transform-origin: 82.674607px 51.463363px;
                animation-timing-function: cubic-bezier(.645, .045, .355, 1);
                transform: rotate(0deg)
            }
        }

        @keyframes wing_tr {

            0%,
            66%,
            to {
                transform-origin: 82.674607px 51.463363px;
                animation-timing-function: cubic-bezier(.645, .045, .355, 1);
                transform: rotate(0deg)
            }

            33% {
                transform-origin: 82.674607px 51.463363px;
                animation-timing-function: cubic-bezier(.645, .045, .355, 1);
                transform: rotate3d(16, -13, 0, 40deg)
            }
        }

        @keyframes belly_tr {

            0%,
            to {
                transform-origin: 87.722785px 40.424714px;
                animation-timing-function: cubic-bezier(.645, .045, .355, 1);
                transform: rotate(0deg)
            }

            33% {
                transform-origin: 87.722785px 40.424714px;
                animation-timing-function: cubic-bezier(.645, .045, .355, 1);
                transform: rotate(10deg)
            }

            66% {
                transform-origin: 87.722785px 40.424714px;
                animation-timing-function: cubic-bezier(.645, .045, .355, 1);
                transform: rotate(-10deg)
            }
        }

        @keyframes head_tr {

            0%,
            70%,
            to {
                transform-origin: 58.127406px 49.820757px;
                animation-timing-function: cubic-bezier(.645, .045, .355, 1);
                transform: rotate(0deg)
            }

            80% {
                transform-origin: 58.127406px 49.820757px;
                animation-timing-function: cubic-bezier(.645, .045, .355, 1);
                transform: rotate(35deg)
            }

            90% {
                transform-origin: 58.127406px 49.820757px;
                animation-timing-function: cubic-bezier(.645, .045, .355, 1);
                transform: rotate(-35deg)
            }
        }

        @keyframes hand_tr {

            0%,
            to {
                transform-origin: 69.948379px 52.091178px;
                animation-timing-function: cubic-bezier(.645, .045, .355, 1);
                transform: rotate(0deg)
            }

            50% {
                transform-origin: 69.948379px 52.091178px;
                transform: rotate(-40deg);
                animation-timing-function: cubic-bezier(.645, .045, .355, 1)
            }
        }

        @keyframes p1_tr {

            0%,
            to {
                transform-origin: 64.783345px 70.33761px;
                animation-timing-function: cubic-bezier(.645, .045, .355, 1);
                transform: rotate(0deg)
            }

            50% {
                transform-origin: 64.783345px 70.33761px;
                transform: rotate(50deg);
                animation-timing-function: cubic-bezier(.645, .045, .355, 1)
            }
        }

        @keyframes hand_tr2 {

            0%,
            to {
                transform-origin: 59.513359px 50.053227px;
                animation-timing-function: cubic-bezier(.645, .045, .355, 1);
                transform: rotate(-20deg)
            }

            50% {
                transform-origin: 59.513359px 50.053227px;
                transform: rotate(20deg);
                animation-timing-function: cubic-bezier(.645, .045, .355, 1)
            }
        }

        @keyframes p1_tr2 {

            0%,
            to {
                transform-origin: 50.095652px 57.927609px;
                animation-timing-function: cubic-bezier(.645, .045, .355, 1);
                transform: rotate(0deg)
            }

            50% {
                transform-origin: 50.095652px 57.927609px;
                transform: rotate(-50deg);
                animation-timing-function: cubic-bezier(.645, .045, .355, 1)
            }
        }

        @keyframes layer1_a {
            0% {
                offset-distance: 0;
                animation-timing-function: cubic-bezier(.645, .045, .355, 1)
            }

            80% {
                offset-distance: -50%;
                animation-timing-function: cubic-bezier(.645, .045, .355, 1)
            }

            to {
                offset-distance: -100%;
                animation-timing-function: cubic-bezier(.645, .045, .355, 1)
            }
        }
    </style>
    <defs id="prefix__defs1">
        <linearGradient id="prefix__linearGradient12">
            <stop offset=".271" id="prefix__stop12" stop-color="#cdfbae" stop-opacity="1" />
            <stop offset="1" id="prefix__stop13" stop-color="#40af7a" stop-opacity="1" />
        </linearGradient>
        <linearGradient id="prefix__linearGradient8">
            <stop offset=".65" id="prefix__stop8" stop-color="#722f20" stop-opacity="1" />
            <stop offset="1" id="prefix__stop9" stop-color="#e5b3ab" stop-opacity="1" />
        </linearGradient>
        <linearGradient id="prefix__linearGradient4">
            <stop offset=".447" id="prefix__stop4" stop-color="#561100" stop-opacity="1" />
            <stop offset="1" id="prefix__stop5" stop-color="#d7bcab" stop-opacity="1" />
        </linearGradient>
        <linearGradient xlink:href="#prefix__linearGradient4" id="prefix__linearGradient5" x1="55.158" y1="50.652"
            x2="67.354" y2="48.822" gradientUnits="userSpaceOnUse" />
        <linearGradient xlink:href="#prefix__linearGradient8" id="prefix__linearGradient9" x1="48.35" y1="46.879"
            x2="55.829" y2="37.196" gradientUnits="userSpaceOnUse" />
        <radialGradient xlink:href="#prefix__linearGradient12" id="prefix__radialGradient13" cx="116.417" cy="29.096"
            fx="116.417" fy="29.096" r="18.804" gradientTransform="matrix(1.06974 -.46994 .24574 .55938 -55.971 78.698)"
            gradientUnits="userSpaceOnUse" />
    </defs>
    <g transform="translate(-60.092 -48.315)"
        style="offset-path:path('M 335.46594,143.32407 A 148.33102,104.93742 0 0 1 187.13492,248.26149 148.33102,104.93742 0 0 1 38.803894,143.32407 148.33102,104.93742 0 0 1 187.13492,38.386642 148.33102,104.93742 0 0 1 335.46594,143.32407 Z');offset-rotate:0deg;animation:layer1_a 8000ms linear infinite normal forwards"
        id="prefix__mainl">
        <path
            d="M77.094 56.89c.381 1.066.514 3.135.1 4.805-.413 1.671-1.374 2.944-2.17 4.402-.798 1.458-1.432 3.101-1.917 4.03-.486.93-.823 1.146-.712.181.112-.965.671-3.11 1.153-4.725.48-1.615.884-2.7 1.189-4.259.304-1.56.51-3.593.928-4.579.417-.985 1.047-.921 1.429.145z"
            id="prefix__legs6" fill="#353b21" fill-opacity="1" stroke="#151912" stroke-width=".291"
            stroke-dasharray="none" stroke-opacity=".841" />
        <path
            d="M62.892 60.265c-1.005 1.547-2.107 3.748-3.117 5.417-1.01 1.669-1.927 2.805-3.002 4.3-1.075 1.494-2.307 3.348-2.866 4.316-.559.969-.444 1.053.027.816.472-.237 1.3-.795 2.334-2.112 1.034-1.317 2.274-3.393 3.609-5.355 1.335-1.962 2.765-3.81 3.868-5.355 1.102-1.543 1.877-2.782 2.151-3.625.274-.842.046-1.289-.522-1.066-.568.224-1.477 1.117-2.482 2.664z"
            id="prefix__legs5" fill="#353b21" fill-opacity="1" stroke="#151912" stroke-width=".291"
            stroke-dasharray="none" stroke-opacity=".841" />
        <g transform="rotate(.115 59.513 50.053)" style="animation:hand_tr2 200ms linear infinite normal forwards">
            <path
                d="M51.432 54.961c1.168-1.728 2.872-4.503 4.454-6.207 1.582-1.704 3.043-2.336 3.846-2.117.803.219.95 1.29-.098 2.957-1.046 1.667-3.286 3.931-4.916 5.671-1.631 1.74-2.653 2.958-3.505 3.335-.852.377-1.534-.085-1.558-.657-.025-.572.608-1.254 1.777-2.982z"
                id="prefix__path28" fill="#353b21" fill-opacity="1" stroke="#151912" stroke-width=".556"
                stroke-dasharray="none" stroke-opacity=".841" />
            <g transform="rotate(-.985 50.096 57.928)" style="animation:p1_tr2 200ms linear infinite normal forwards">
                <path
                    d="M49.449 59.223c-.573 1.114-1.718 3.341-2.591 5.078-.873 1.737-1.474 2.983-1.808 3.873-.334.89-.4 1.424-1.173 1.581-.772.158-2.25-.062-3.563-.142-1.312-.08-2.459-.02-3.647.185-1.188.204-2.417.553-3.433.702-1.015.15-1.817.099-2.308.216-.491.118-.671.404-.939.773-.268.369-.624.82-.322.903.302.083 1.261-.202 2.574-.512s2.98-.645 4.435-.804c1.454-.159 2.695-.142 3.973-.112 1.278.03 2.591.073 3.479.127.887.053 1.347.117 1.88-.523.532-.64 1.137-1.984 1.859-3.567.722-1.584 1.561-3.407 2.124-4.96.562-1.551.848-2.833.808-3.443-.041-.61-.409-.55-.592-.519-.184.03-.184.03-.756 1.144z"
                    id="prefix__path29" fill="#353b21" fill-opacity="1" stroke="#151912" stroke-width=".556"
                    stroke-dasharray="none" stroke-opacity=".841" />
            </g>
        </g>
        <g transform="rotate(1.315 68.897 36.34)" style="animation:wingr_tr 1000ms linear infinite normal forwards"
            fill="#685c64" fill-opacity=".585" stroke="#151912" stroke-width=".556" stroke-dasharray="none"
            stroke-opacity=".841">
            <path
                d="M69.827 37.005c-3.873-.861-3.184-3.546-1.876-6.283 1.308-2.736 3.235-5.525 5.146-7.969 1.91-2.444 3.804-4.543 6.248-6.23 2.444-1.687 5.438-2.96 8.089-3.494 2.65-.534 4.957-.327 6.626.585 1.67.912 2.703 2.53 3.27 4.923.568 2.392.672 5.559.241 8.106-.43 2.548-1.394 4.475-2.65 5.921-1.257 1.446-2.806 2.41-7.797 3.373-4.991.964-13.425 1.928-17.297 1.068z"
                id="prefix__wing2" />
            <path
                d="M67.538 34.595c1.755-2.203 3.51-4.406 5.869-6.747 2.358-2.34 5.318-4.82 8.175-6.592 2.857-1.773 5.611-2.84 7.315-3.425 1.704-.585 2.358-.688 3.012-.792"
                id="prefix__path23" />
            <path d="M74.043 34.595c3.787-3.442 7.573-6.885 10.93-9.019 3.356-2.134 6.282-2.96 9.208-3.786"
                id="prefix__path24" />
        </g>
        <g transform="rotate(-1.957 87.723 40.425)" style="animation:belly_tr 1500ms linear infinite normal forwards"
            fill-opacity="1" stroke="#151912" stroke-width=".556" stroke-dasharray="none" stroke-opacity=".841">
            <path
                d="M83.7 31.48c1.669-2.152 3.183-2.152 4.922-1.997 1.738.155 3.7.465 6.04 1.033 2.342.568 5.06 1.394 7.54 2.685 2.478 1.29 4.715 3.046 6.488 4.922 1.773 1.876 3.08 3.873 3.907 6.265.826 2.393 1.17 5.18.069 7.28-1.102 2.1-3.649 3.512-6.145 4.407-2.495.895-4.94 1.273-7.005 1.428-2.065.155-3.752.086-5.352-.344-1.601-.43-3.116-1.222-4.7-2.29-1.583-1.066-3.235-2.409-5.094-4.56-1.859-2.152-3.924-5.112-4.044-8.744-.12-3.631 1.704-7.934 3.373-10.085z"
                id="prefix__belly1" fill="#59664c" />
            <path
                d="M95.007 30.567c1.411 2.1 2.823 4.2 3.7 7.315.878 3.116 1.222 7.246 1.016 10.448-.207 3.201-.964 5.473-1.773 6.867-.809 1.394-1.67 1.91-2.53 2.427"
                id="prefix__belly2" fill="none" />
            <path
                d="M102.546 33.356c1.41 2.478 2.822 4.957 3.631 7.78.81 2.822 1.016 5.989 1.016 8.295 0 2.307-.207 3.752-1.085 4.957s-2.427 2.169-3.976 3.133"
                id="prefix__belly3" transform="matrix(1.0008 0 0 .97878 -.084 .707)" fill="none" />
        </g>
        <g id="prefix__bust" stroke="#151912" stroke-dasharray="none" stroke-opacity=".841">
            <path
                d="M57.21 39.965s1.48-2.687 2.582-3.718c1.613-1.508 3.686-2.46 5.68-3.408 2.38-1.13 4.908-1.938 7.436-2.685 2.338-.69 4.692-1.497 7.125-1.652 2.383-.151 4.864-.042 7.126.723 1.493.505 2.871 1.406 4.027 2.478.904.839 1.71 1.851 2.169 2.995.75 1.87.826 5.99.826 5.99s.757 6.318-.103 9.294c-.73 2.524-1.974 5.213-4.131 6.712-3.63 2.524-8.6 2.293-13.012 2.582-2.65.174-5.307-.265-7.952-.516a78.703 78.703 0 01-2.478-.31s1.704-4.993 1.446-7.539c-.237-2.334-1.244-4.654-2.685-6.506-1.028-1.32-2.553-2.204-4.028-2.994-1.257-.674-4.027-1.446-4.027-1.446z"
                id="prefix__bust1" fill="url(#prefix__radialGradient13)" stroke-width=".265" />
            <path
                d="M63.923 33.459a8.085 8.085 0 014.854.207c1.689.616 3.133 1.792 4.286 3.172 1.152 1.38 2.033 2.965 2.84 4.573 1.508 3.007 2.78 6.129 3.923 9.294.435 1.202.853 2.422 1.018 3.689.166 1.268.064 2.6-.501 3.746a5.013 5.013 0 01-2.788 2.479"
                id="prefix__bust2" transform="matrix(.99493 0 0 .92564 .419 3.074)" fill="none" fill-opacity="1"
                stroke-width=".556" />
            <path
                d="M72.288 30.36c2.03.035 4.062.07 6.196.758 2.134.689 4.372 2.031 6.024 3.425 1.652 1.394 2.72 2.84 3.408 4.561.688 1.721.998 3.718.946 6.472-.051 2.754-.464 6.265-1.118 8.554-.654 2.289-1.55 3.356-2.444 4.423"
                id="prefix__bust3" fill="none" fill-opacity="1" stroke-width=".556" />
        </g>
        <g style="animation:legs3_tr 500ms linear infinite normal forwards" fill="#353b21" fill-opacity="1"
            stroke="#151912" stroke-width=".556" stroke-dasharray="none" stroke-opacity=".841">
            <path
                d="M81.298 57.59c.632.9 2.458 1.923 5.136 2.872 2.677.95 6.206 1.826 9.09 2.24 2.885.413 5.124.364 6.378.194 1.253-.17 1.521-.462 1.521-.888s-.268-.986-2.057-1.485c-1.789-.5-5.099-.937-7.947-1.46-2.848-.524-5.233-1.132-7.095-1.802-1.862-.67-3.2-1.4-4.15-1.375-.95.024-1.51.803-.876 1.704z"
                id="prefix__path27" />
            <path
                d="M102.84 61.607c.212-.086.6-.042 1.045.298.446.34.949.975 1.167 1.937.219.962.152 2.25.09 3.441a159.258 159.258 0 00-.152 3.429c-.035 1.144-.048 2.337.145 3.322.192.985.591 1.761 1.116 2.459.524.697 1.175 1.316 1.673 2.036.5.72.847 1.543 1.442 2.524a19.693 19.693 0 002.235 2.98c.796.857 1.546 1.432 2.269 2.067.723.634 1.418 1.328 1.833 2.032.414.704.548 1.418.654 1.96.106.541.184.91-.09 1.043-.276.132-.904.026-1.208-.453-.304-.478-.285-1.33-.834-2.03-.548-.698-1.666-1.243-2.608-2.108-.942-.865-1.71-2.05-2.352-3.071-.642-1.02-1.158-1.876-1.808-2.738-.65-.862-1.434-1.731-1.944-2.477-.51-.745-.745-1.367-1.096-1.897-.35-.53-.815-.968-.907-2.252-.092-1.285.189-3.415.284-5.262.096-1.848.006-3.412-.23-4.485-.238-1.072-.622-1.653-.797-2.052-.174-.399-.138-.616.073-.703z"
                id="prefix__path32" />
        </g>
        <g style="animation:legs2_tr 500ms linear infinite normal forwards" fill="#353b21" fill-opacity="1"
            stroke="#151912" stroke-width=".556" stroke-dasharray="none" stroke-opacity=".841">
            <path
                d="M73.24 59.488c1.17.633 3.506 1.899 5.331 2.885 1.826.986 3.14 1.691 4.577 2.276a27.783 27.783 0 004.077 1.29c1.083.243 1.691.267 2.397.255.706-.012 1.51-.06 1.886-.365.378-.304.33-.864-.876-1.667-1.205-.803-3.566-1.85-5.842-2.872a400.956 400.956 0 01-6.146-2.812c-1.679-.79-2.847-1.375-3.882-1.716-1.034-.34-1.935-.438-2.36-.048-.427.39-.378 1.265-.354 1.703.025.439.025.439 1.193 1.071z"
                id="prefix__path26" />
            <path
                d="M89.583 65.957c-.012-.267-.038-.803.34-.998.376-.196 1.155-.051 1.57.362.415.413.465 1.094-.386 1.996-.85.903-2.6 2.026-4.715 3.417-2.115 1.392-4.594 3.052-5.907 3.967-1.312.916-1.458 1.086-1.592 1.075-.134-.012-.256-.207-.656.658s-1.078 2.79-1.671 4.275c-.593 1.486-1.103 2.534-1.381 3.277-.278.743-.326 1.18-.653 2.253-.326 1.071-.931 2.776-1.538 3.946-.606 1.17-1.213 1.803-1.43 2.485-.219.682-.047 1.412-.12 1.57-.072.159-.39-.254-.791-.485-.403-.23-.89-.278-.902-.51-.013-.23.449-.645 1.201-1.912s1.795-3.387 2.437-4.91c.642-1.522.883-2.448.98-3.105.095-.657.046-1.047.64-2.423.593-1.377 1.83-3.74 2.326-5.031.497-1.291.253-1.51.605-1.863.352-.354 1.3-.843 2.188-1.356.888-.513 1.714-1.05 2.042-1.403.328-.354.157-.524.728-.866.572-.342 1.885-.855 3.077-1.393 1.191-.538 2.261-1.1 2.845-1.564.583-.463.68-.829.728-1.011.048-.183.048-.183.035-.45z"
                id="prefix__path31" />
        </g>
        <g transform="rotate(.278 69.948 52.091)" style="animation:hand_tr 200ms linear infinite normal forwards">
            <path
                d="M63.772 70.174c-.194-.828.292-1.728.852-3.116.56-1.387 1.193-3.261 1.74-4.916.548-1.656 1.01-3.092 1.376-4.297.365-1.204.633-2.178 1.047-2.799.413-.62.973-.888 1.338-.219.365.67.536 2.276.341 4.138s-.755 3.98-1.387 5.988c-.633 2.008-1.34 3.907-1.911 5.148-.572 1.241-1.01 1.825-1.667 1.74-.658-.085-1.534-.84-1.729-1.667z"
                id="prefix__path25" fill="#353b21" fill-opacity="1" stroke="#151912" stroke-width=".556"
                stroke-dasharray="none" stroke-opacity=".841" />
            <g transform="rotate(-.254 64.783 70.338)" style="animation:p1_tr 200ms linear infinite normal forwards">
                <path
                    d="M62.17 70.623c-1.232.054-3.694.161-5.82.304-2.128.143-3.92.322-5.253.448-1.333.126-2.207.2-3.549.573-1.342.373-3.152 1.043-4.687 1.548-1.535.504-2.795.843-3.86 1.171-1.065.33-1.936.648-2.884.927s-1.974.518-2.608.76c-.634.244-.876.492-.765.712.11.22.574.413 1.18.356.606-.056 1.355-.361 2.558-.767 1.204-.406 2.861-.912 5.02-1.536 2.158-.624 4.818-1.366 7.622-1.806 2.804-.44 5.752-.578 8.382-.826 2.63-.25 4.94-.609 6.208-.985 1.268-.376 1.493-.77 1.327-.934-.165-.165-.722-.102-1.06-.064l-.52.059c-.06.007-.06.007-1.292.06z"
                    id="prefix__path30" fill="#353b21" fill-opacity="1" stroke="#151912" stroke-width=".556"
                    stroke-dasharray="none" stroke-opacity=".841" />
            </g>
        </g>
        <g style="animation:head_tr 1000ms linear infinite normal forwards" stroke="#151912" stroke-width=".265"
            stroke-dasharray="none" stroke-opacity=".841">
            <path
                d="M57.348 38.94c.241.113.723.336 1.274.715.55.379 1.17.912 2.057 1.652.886.74 2.04 1.687 2.848 2.333.81.645 1.274.99 1.73 1.583.456.594.904 1.437 1.248 2.315.344.878.585 1.79.731 2.728.147.938.198 1.902.112 2.891-.086.99-.31 2.006-.895 3.055-.585 1.05-1.532 2.135-2.272 2.849-.74.714-1.273 1.058-2.254 1.532-.981.473-2.41 1.075-3.77 1.385-1.36.31-2.65.327-3.605.207-.956-.12-1.575-.379-2.23-.895-.653-.517-1.342-1.291-1.858-2.203-.517-.912-.86-1.962-1.041-2.986-.181-1.025-.198-2.023-.276-3.073-.077-1.05-.215-2.151-.275-3.58-.06-1.428-.043-3.184.267-4.802.31-1.618.912-3.098 1.781-4.105.87-1.006 2.005-1.54 2.797-1.85.792-.31 1.239-.396 1.747-.335.508.06 1.075.266 1.36.37.283.103.283.103.524.215z"
                id="prefix__head1" transform="translate(.103 -.413)" fill="#a4a0ba" fill-opacity="1" />
            <path
                d="M56.832 43.82c.585-.86 1.153-1.428 1.713-1.781.559-.353 1.11-.49 1.712-.362.603.13 1.257.525 1.97 1.085.715.56 1.49 1.282 2.135 2.074a8.974 8.974 0 011.558 2.77c.396 1.12.67 2.496.774 3.779.103 1.282.035 2.47-.361 3.631-.396 1.162-1.119 2.298-1.842 3.124-.723.826-1.446 1.343-2.143 1.489-.697.146-1.368-.078-1.97-.43-.603-.353-1.136-.835-1.799-1.713-.663-.878-1.454-2.151-1.997-3.038-.542-.886-.834-1.385-1.05-2.564-.215-1.18-.352-3.038-.12-4.544.232-1.506.835-2.66 1.42-3.52z"
                id="prefix__head2" fill="url(#prefix__linearGradient5)" />
            <path
                d="M49.104 50.085s-1.018-2.005-1.187-3.098c-.27-1.738-.379-3.648.31-5.267.476-1.12 1.495-1.964 2.478-2.685 1.043-.764 2.233-1.449 3.51-1.652.823-.13 1.746-.084 2.48.31.279.15.619.723.619.723s-.52 1.62-.981 2.323c-.78 1.192-1.955 2.073-2.943 3.098-.718.746-1.566 1.38-2.169 2.22-.619.864-.943 1.905-1.446 2.84-.215.401-.67 1.188-.67 1.188z"
                id="prefix__head3" fill="url(#prefix__linearGradient9)" />
            <path
                d="M52.762 51.178c.284.405.765 1.127 1.136 2.022.37.895.628 1.963.714 2.858.086.895 0 1.617-.103 2.203-.104.585-.224 1.032-.353 1.531-.13.5-.267 1.05-.74 1.326-.474.275-1.283.275-1.842-.086-.56-.362-.87-1.085-1.205-1.894-.335-.809-.697-1.704-.92-2.796-.224-1.093-.31-2.384-.181-3.33.129-.948.473-1.55 1.015-1.894.542-.344 1.282-.43 1.695-.43.414 0 .5.086.784.49z"
                id="prefix__head4" fill="#807c80" fill-opacity="1" />
            <path
                d="M53.865 46.279c.212.632.001 1.833-.567 2.804-.569.971-1.495 1.712-2.43 2.547-.937.835-1.883 1.765-2.61 2.449-.727.684-1.234 1.122-1.558.979-.325-.144-.466-.87.06-1.876.526-1.006 1.72-2.292 2.768-3.616 1.048-1.324 1.95-2.685 2.72-3.334.769-.648 1.404-.585 1.617.047z"
                id="prefix__head5" fill="#494925" fill-opacity="1" />
        </g>
        <g transform="rotate(1.97 82.675 51.463)" style="animation:wing_tr 1000ms linear infinite normal forwards"
            fill="#685c64" fill-opacity=".585" stroke="#151912" stroke-width=".556" stroke-dasharray="none"
            stroke-opacity=".841">
            <path
                d="M83.01 51.996c1.223.636 3.77 1.118 6.11 1.204 2.341.086 4.476-.223 8.245-.034 3.77.19 9.174.878 14.716 1.532s11.221 1.273 15.094 1.618c3.873.344 5.938.413 8.107.31 2.168-.104 4.44-.38 5.68-.947 1.239-.568 1.445-1.429.602-2.392-.844-.964-2.737-2.031-5.611-3.443-2.874-1.411-6.73-3.167-10.379-4.492-3.648-1.325-7.09-2.22-10.344-3.253-3.253-1.033-6.316-2.203-8.777-3.115-2.462-.912-4.32-1.566-6.248-2.048s-3.924-.792-5.198-.758c-1.274.035-1.824.413-2.754 1.515-.93 1.102-2.237 2.926-4.01 5.06-1.773 2.134-4.01 4.578-5.18 6.196-1.171 1.618-1.274 2.41-.052 3.047z"
                id="prefix__wing1" transform="matrix(1.01182 0 0 1.03962 -.964 -1.426)" />
            <path
                d="M89.74 51.428c2.031-.138 4.062-.276 6.42-.327 2.358-.052 5.043-.018 7.556.223s4.854.689 6.816 1.188c1.962.5 3.545 1.05 5.008 1.704 1.463.654 2.806 1.411 4.148 2.169"
                id="prefix__path19" />
            <path
                d="M83.854 48.123c2.582.344 5.163.689 8.76.62 3.598-.07 8.21-.551 11.825-.981 3.614-.43 6.23-.81 8.124-1.102 1.893-.292 3.063-.499 4.234-.706"
                id="prefix__path20" />
            <path
                d="M83.338 49.569c4.371.206 8.743.413 13.425.654 4.681.24 9.672.516 14.233.654s8.692.138 11.739.034c3.046-.103 5.008-.31 6.97-.516"
                id="prefix__path21" />
            <path d="M113.595 51.428c3.408.654 6.816 1.308 10.775 1.91 3.958.603 8.468 1.153 12.977 1.704"
                id="prefix__path22" />
        </g>
        <path d="M69.955 57.103l-15.773-11.1" id="prefix__legsAxis" fill="none" fill-opacity="1" stroke="none"
            stroke-width=".556" stroke-dasharray="none" stroke-opacity=".841" />
        <path d="M83.829 51.553L67.764 38.117" id="prefix__wingAxis" fill="none" fill-opacity="1" stroke="none"
            stroke-width=".556" stroke-dasharray="none" stroke-opacity=".841" />
    </g>
    <path id="prefix__move_path"
        d="M335.466 143.324a148.331 104.937 0 01-148.331 104.937A148.331 104.937 0 0138.804 143.324a148.331 104.937 0 01148.33-104.937 148.331 104.937 0 01148.332 104.937z"
        fill="none" stroke="none" stroke-width=".55" />
</svg>