<svg width="24" height="24" viewBox="0 0 24 24" fill="none" xmlns="http://www.w3.org/2000/svg">
<path d="M12 21C16.9706 21 21 16.9706 21 12C21 7.02944 16.9706 3 12 3C7.02944 3 3 7.02944 3 12C3 16.9706 7.02944 21 12 21Z" stroke="#A5AAB4" stroke-width="2" stroke-linecap="round" stroke-linejoin="round"/>
<path d="M12 15C14.0711 15 15.75 13.3211 15.75 11.25C15.75 9.17893 14.0711 7.5 12 7.5C9.92893 7.5 8.25 9.17893 8.25 11.25C8.25 13.3211 9.92893 15 12 15Z" stroke="#A5AAB4" stroke-width="2" stroke-linecap="round" stroke-linejoin="round"/>
<path d="M5.9812 18.6937C6.54549 17.5822 7.40654 16.6487 8.4689 15.9966C9.53126 15.3446 10.7534 14.9994 12 14.9994C13.2465 14.9994 14.4686 15.3446 15.531 15.9966C16.5934 16.6487 17.4544 17.5822 18.0187 18.6937" stroke="#A5AAB4" stroke-width="2" stroke-linecap="round" stroke-linejoin="round"/>
</svg>
