<svg width="33" height="33" viewBox="0 0 33 33" fill="none" xmlns="http://www.w3.org/2000/svg">
<path d="M16.4274 0C7.39235 0 0 7.39235 0 16.4274C0 25.4625 7.39235 32.8549 16.4274 32.8549C25.4625 32.8549 32.8549 25.4625 32.8549 16.4274C32.8549 7.39235 25.4625 0 16.4274 0ZM16.4274 30.6148C8.58707 30.6148 2.24011 24.2678 2.24011 16.4274C2.24011 8.58707 8.58707 2.24011 16.4274 2.24011C24.2678 2.24011 30.6148 8.58707 30.6148 16.4274C30.6148 24.2678 24.2678 30.6148 16.4274 30.6148Z" fill="#D90000"/>
<path d="M23.894 15.6807H17.1737V7.46698C17.1737 6.86962 16.651 6.34692 16.0536 6.34692C15.4563 6.34692 14.9336 6.86962 14.9336 7.46698V17.9208H16.427H17.1737H23.894C24.4914 17.9208 25.0141 17.3981 25.0141 16.8007C25.0141 16.2034 24.4914 15.6807 23.894 15.6807Z" fill="#D90000"/>
</svg>
