<svg width="246" height="38" viewBox="0 0 246 38" fill="none" xmlns="http://www.w3.org/2000/svg">
<rect width="246" height="38" rx="19" fill="#D90000"/>
<path d="M28.0197 24.108C26.7717 24.108 25.6437 23.832 24.6357 23.28C23.6397 22.728 22.8537 21.966 22.2777 20.994C21.7137 20.01 21.4317 18.912 21.4317 17.7C21.4317 16.488 21.7137 15.396 22.2777 14.424C22.8537 13.44 23.6457 12.672 24.6537 12.12C25.6617 11.568 26.7897 11.292 28.0377 11.292C28.9737 11.292 29.8377 11.448 30.6297 11.76C31.4217 12.072 32.0937 12.528 32.6457 13.128L31.7997 13.974C30.8157 12.978 29.5737 12.48 28.0737 12.48C27.0777 12.48 26.1717 12.708 25.3557 13.164C24.5397 13.62 23.8977 14.244 23.4297 15.036C22.9737 15.828 22.7457 16.716 22.7457 17.7C22.7457 18.684 22.9737 19.572 23.4297 20.364C23.8977 21.156 24.5397 21.78 25.3557 22.236C26.1717 22.692 27.0777 22.92 28.0737 22.92C29.5857 22.92 30.8277 22.416 31.7997 21.408L32.6457 22.254C32.0937 22.854 31.4157 23.316 30.6117 23.64C29.8197 23.952 28.9557 24.108 28.0197 24.108ZM38.5746 24.09C37.6626 24.09 36.8406 23.886 36.1086 23.478C35.3766 23.058 34.8006 22.482 34.3806 21.75C33.9606 21.018 33.7506 20.19 33.7506 19.266C33.7506 18.342 33.9606 17.514 34.3806 16.782C34.8006 16.05 35.3766 15.48 36.1086 15.072C36.8406 14.664 37.6626 14.46 38.5746 14.46C39.4866 14.46 40.3086 14.664 41.0406 15.072C41.7726 15.48 42.3426 16.05 42.7506 16.782C43.1706 17.514 43.3806 18.342 43.3806 19.266C43.3806 20.19 43.1706 21.018 42.7506 21.75C42.3426 22.482 41.7726 23.058 41.0406 23.478C40.3086 23.886 39.4866 24.09 38.5746 24.09ZM38.5746 22.956C39.2466 22.956 39.8466 22.806 40.3746 22.506C40.9146 22.194 41.3346 21.756 41.6346 21.192C41.9346 20.628 42.0846 19.986 42.0846 19.266C42.0846 18.546 41.9346 17.904 41.6346 17.34C41.3346 16.776 40.9146 16.344 40.3746 16.044C39.8466 15.732 39.2466 15.576 38.5746 15.576C37.9026 15.576 37.2966 15.732 36.7566 16.044C36.2286 16.344 35.8086 16.776 35.4966 17.34C35.1966 17.904 35.0466 18.546 35.0466 19.266C35.0466 19.986 35.1966 20.628 35.4966 21.192C35.8086 21.756 36.2286 22.194 36.7566 22.506C37.2966 22.806 37.9026 22.956 38.5746 22.956ZM52.1419 19.104C53.4259 19.404 54.0679 20.178 54.0679 21.426C54.0679 22.254 53.7619 22.89 53.1499 23.334C52.5379 23.778 51.6259 24 50.4139 24H46.1119V14.532H50.2879C51.3679 14.532 52.2139 14.742 52.8259 15.162C53.4379 15.582 53.7439 16.182 53.7439 16.962C53.7439 17.478 53.5999 17.922 53.3119 18.294C53.0359 18.654 52.6459 18.924 52.1419 19.104ZM47.3539 18.744H50.1979C50.9299 18.744 51.4879 18.606 51.8719 18.33C52.2679 18.054 52.4659 17.652 52.4659 17.124C52.4659 16.596 52.2679 16.2 51.8719 15.936C51.4879 15.672 50.9299 15.54 50.1979 15.54H47.3539V18.744ZM50.3599 22.992C51.1759 22.992 51.7879 22.86 52.1959 22.596C52.6039 22.332 52.8079 21.918 52.8079 21.354C52.8079 20.79 52.6219 20.376 52.2499 20.112C51.8779 19.836 51.2899 19.698 50.4859 19.698H47.3539V22.992H50.3599ZM61.9411 14.46C62.8291 14.46 63.6331 14.664 64.3531 15.072C65.0731 15.468 65.6371 16.032 66.0451 16.764C66.4531 17.496 66.6571 18.33 66.6571 19.266C66.6571 20.214 66.4531 21.054 66.0451 21.786C65.6371 22.518 65.0731 23.088 64.3531 23.496C63.6451 23.892 62.8411 24.09 61.9411 24.09C61.1731 24.09 60.4771 23.934 59.8531 23.622C59.2411 23.298 58.7371 22.83 58.3411 22.218V27.492H57.0631V14.532H58.2871V16.404C58.6711 15.78 59.1751 15.3 59.7991 14.964C60.4351 14.628 61.1491 14.46 61.9411 14.46ZM61.8511 22.956C62.5111 22.956 63.1111 22.806 63.6511 22.506C64.1911 22.194 64.6111 21.756 64.9111 21.192C65.2231 20.628 65.3791 19.986 65.3791 19.266C65.3791 18.546 65.2231 17.91 64.9111 17.358C64.6111 16.794 64.1911 16.356 63.6511 16.044C63.1111 15.732 62.5111 15.576 61.8511 15.576C61.1791 15.576 60.5731 15.732 60.0331 16.044C59.5051 16.356 59.0851 16.794 58.7731 17.358C58.4731 17.91 58.3231 18.546 58.3231 19.266C58.3231 19.986 58.4731 20.628 58.7731 21.192C59.0851 21.756 59.5051 22.194 60.0331 22.506C60.5731 22.806 61.1791 22.956 61.8511 22.956ZM77.683 19.662H69.763C69.835 20.646 70.213 21.444 70.897 22.056C71.581 22.656 72.445 22.956 73.489 22.956C74.077 22.956 74.617 22.854 75.109 22.65C75.601 22.434 76.027 22.122 76.387 21.714L77.107 22.542C76.687 23.046 76.159 23.43 75.523 23.694C74.899 23.958 74.209 24.09 73.453 24.09C72.481 24.09 71.617 23.886 70.861 23.478C70.117 23.058 69.535 22.482 69.115 21.75C68.695 21.018 68.485 20.19 68.485 19.266C68.485 18.342 68.683 17.514 69.079 16.782C69.487 16.05 70.039 15.48 70.735 15.072C71.443 14.664 72.235 14.46 73.111 14.46C73.987 14.46 74.773 14.664 75.469 15.072C76.165 15.48 76.711 16.05 77.107 16.782C77.503 17.502 77.701 18.33 77.701 19.266L77.683 19.662ZM73.111 15.558C72.199 15.558 71.431 15.852 70.807 16.44C70.195 17.016 69.847 17.772 69.763 18.708H76.477C76.393 17.772 76.039 17.016 75.415 16.44C74.803 15.852 74.035 15.558 73.111 15.558ZM91.1139 14.532V24H89.9439V16.512L86.1099 22.848H85.5339L81.6999 16.494V24H80.5299V14.532H81.8259L85.8399 21.354L89.9259 14.532H91.1139ZM103.031 19.662H95.1106C95.1826 20.646 95.5606 21.444 96.2446 22.056C96.9286 22.656 97.7926 22.956 98.8366 22.956C99.4246 22.956 99.9646 22.854 100.457 22.65C100.949 22.434 101.375 22.122 101.735 21.714L102.455 22.542C102.035 23.046 101.507 23.43 100.871 23.694C100.247 23.958 99.5566 24.09 98.8006 24.09C97.8286 24.09 96.9646 23.886 96.2086 23.478C95.4646 23.058 94.8826 22.482 94.4626 21.75C94.0426 21.018 93.8326 20.19 93.8326 19.266C93.8326 18.342 94.0306 17.514 94.4266 16.782C94.8346 16.05 95.3866 15.48 96.0826 15.072C96.7906 14.664 97.5826 14.46 98.4586 14.46C99.3346 14.46 100.121 14.664 100.817 15.072C101.513 15.48 102.059 16.05 102.455 16.782C102.851 17.502 103.049 18.33 103.049 19.266L103.031 19.662ZM98.4586 15.558C97.5466 15.558 96.7786 15.852 96.1546 16.44C95.5426 17.016 95.1946 17.772 95.1106 18.708H101.825C101.741 17.772 101.387 17.016 100.763 16.44C100.151 15.852 99.3826 15.558 98.4586 15.558ZM105.878 14.532H107.156V18.726H113.114V14.532H114.392V24H113.114V19.824H107.156V24H105.878V14.532ZM118.024 14.532H119.302V18.726H125.26V14.532H126.538V24H125.26V19.824H119.302V24H118.024V14.532ZM134.149 17.88C135.337 17.892 136.243 18.156 136.867 18.672C137.491 19.188 137.803 19.932 137.803 20.904C137.803 21.912 137.467 22.686 136.795 23.226C136.123 23.766 135.163 24.03 133.915 24.018L130.171 24V14.532H131.449V17.844L134.149 17.88ZM139.387 14.532H140.665V24H139.387V14.532ZM133.843 23.046C134.719 23.058 135.379 22.884 135.823 22.524C136.279 22.152 136.507 21.612 136.507 20.904C136.507 20.208 136.285 19.692 135.841 19.356C135.397 19.02 134.731 18.846 133.843 18.834L131.449 18.798V23.01L133.843 23.046ZM152.583 19.662H144.663C144.735 20.646 145.113 21.444 145.797 22.056C146.481 22.656 147.345 22.956 148.389 22.956C148.977 22.956 149.517 22.854 150.009 22.65C150.501 22.434 150.927 22.122 151.287 21.714L152.007 22.542C151.587 23.046 151.059 23.43 150.423 23.694C149.799 23.958 149.109 24.09 148.353 24.09C147.381 24.09 146.517 23.886 145.761 23.478C145.017 23.058 144.435 22.482 144.015 21.75C143.595 21.018 143.385 20.19 143.385 19.266C143.385 18.342 143.583 17.514 143.979 16.782C144.387 16.05 144.939 15.48 145.635 15.072C146.343 14.664 147.135 14.46 148.011 14.46C148.887 14.46 149.673 14.664 150.369 15.072C151.065 15.48 151.611 16.05 152.007 16.782C152.403 17.502 152.601 18.33 152.601 19.266L152.583 19.662ZM148.011 15.558C147.099 15.558 146.331 15.852 145.707 16.44C145.095 17.016 144.747 17.772 144.663 18.708H151.377C151.293 17.772 150.939 17.016 150.315 16.44C149.703 15.852 148.935 15.558 148.011 15.558ZM164.749 19.068C165.421 19.224 165.937 19.494 166.297 19.878C166.669 20.262 166.855 20.73 166.855 21.282C166.855 21.834 166.663 22.326 166.279 22.758C165.907 23.19 165.397 23.526 164.749 23.766C164.101 23.994 163.387 24.108 162.607 24.108C161.923 24.108 161.251 24.012 160.591 23.82C159.931 23.616 159.355 23.322 158.863 22.938L159.295 21.984C159.727 22.308 160.231 22.56 160.807 22.74C161.383 22.92 161.965 23.01 162.553 23.01C163.429 23.01 164.143 22.848 164.695 22.524C165.259 22.188 165.541 21.738 165.541 21.174C165.541 20.67 165.313 20.28 164.857 20.004C164.401 19.716 163.777 19.572 162.985 19.572H161.365V18.636H162.913C163.621 18.636 164.191 18.504 164.623 18.24C165.055 17.964 165.271 17.598 165.271 17.142C165.271 16.638 165.025 16.242 164.533 15.954C164.053 15.666 163.423 15.522 162.643 15.522C161.623 15.522 160.615 15.78 159.619 16.296L159.259 15.306C160.387 14.718 161.557 14.424 162.769 14.424C163.489 14.424 164.137 14.532 164.713 14.748C165.301 14.952 165.757 15.246 166.081 15.63C166.417 16.014 166.585 16.458 166.585 16.962C166.585 17.442 166.417 17.868 166.081 18.24C165.757 18.612 165.313 18.888 164.749 19.068ZM178.99 22.884V26.286H177.784V24H169.306V26.286H168.1V22.884H168.64C169.276 22.848 169.708 22.38 169.936 21.48C170.164 20.58 170.32 19.32 170.404 17.7L170.53 14.532H177.514V22.884H178.99ZM171.574 17.772C171.514 19.116 171.4 20.226 171.232 21.102C171.064 21.966 170.764 22.56 170.332 22.884H176.236V15.666H171.682L171.574 17.772ZM184.739 14.46C185.975 14.46 186.923 14.772 187.583 15.396C188.243 16.008 188.573 16.92 188.573 18.132V24H187.349V22.524C187.061 23.016 186.635 23.4 186.071 23.676C185.519 23.952 184.859 24.09 184.091 24.09C183.035 24.09 182.195 23.838 181.571 23.334C180.947 22.83 180.635 22.164 180.635 21.336C180.635 20.532 180.923 19.884 181.499 19.392C182.087 18.9 183.017 18.654 184.289 18.654H187.295V18.078C187.295 17.262 187.067 16.644 186.611 16.224C186.155 15.792 185.489 15.576 184.613 15.576C184.013 15.576 183.437 15.678 182.885 15.882C182.333 16.074 181.859 16.344 181.463 16.692L180.887 15.738C181.367 15.33 181.943 15.018 182.615 14.802C183.287 14.574 183.995 14.46 184.739 14.46ZM184.289 23.082C185.009 23.082 185.627 22.92 186.143 22.596C186.659 22.26 187.043 21.78 187.295 21.156V19.608H184.325C182.705 19.608 181.895 20.172 181.895 21.3C181.895 21.852 182.105 22.29 182.525 22.614C182.945 22.926 183.533 23.082 184.289 23.082ZM191.975 14.532H193.253V18.726H199.211V14.532H200.489V24H199.211V19.824H193.253V24H191.975V14.532ZM204.122 14.532H205.4V22.056L211.718 14.532H212.852V24H211.574V16.476L205.274 24H204.122V14.532ZM223.786 14.532V24H222.616V20.868H219.646H219.286L217.09 24H215.704L218.062 20.688C217.33 20.484 216.766 20.136 216.37 19.644C215.974 19.152 215.776 18.528 215.776 17.772C215.776 16.716 216.136 15.912 216.856 15.36C217.576 14.808 218.56 14.532 219.808 14.532H223.786ZM217.072 17.808C217.072 19.212 217.966 19.914 219.754 19.914H222.616V15.666H219.844C217.996 15.666 217.072 16.38 217.072 17.808Z" fill="white"/>
</svg>
